<?xml version="1.0" encoding="utf-8" standalone="no"?>
<!DOCTYPE svg PUBLIC "-//W3C//DTD SVG 1.1//EN"
  "http://www.w3.org/Graphics/SVG/1.1/DTD/svg11.dtd">
<!-- Created with matplotlib (http://matplotlib.org/) -->
<svg height="186.85625pt" version="1.1" viewBox="0 0 248.620313 186.85625" width="248.620313pt" xmlns="http://www.w3.org/2000/svg" xmlns:xlink="http://www.w3.org/1999/xlink">
 <defs>
  <style type="text/css">
*{stroke-linecap:butt;stroke-linejoin:round;}
  </style>
 </defs>
 <g id="figure_1">
  <g id="patch_1">
   <path d="M 0 186.85625 
L 248.620313 186.85625 
L 248.620313 0 
L 0 0 
z
" style="fill:#ffffff;"/>
  </g>
  <g id="axes_1">
   <g id="patch_2">
    <path d="M 42.620312 149.3 
L 237.920313 149.3 
L 237.920313 10.7 
L 42.620312 10.7 
z
" style="fill:#ffffff;"/>
   </g>
   <g id="matplotlib.axis_1">
    <g id="xtick_1">
     <g id="line2d_1">
      <path clip-path="url(#p4355db313c)" d="M 51.497585 149.3 
L 51.497585 10.7 
" style="fill:none;stroke:#b0b0b0;stroke-linecap:square;stroke-width:0.8;"/>
     </g>
     <g id="line2d_2">
      <defs>
       <path d="M 0 0 
L 0 3.5 
" id="md8f727e8b6" style="stroke:#000000;stroke-width:0.8;"/>
      </defs>
      <g>
       <use style="stroke:#000000;stroke-width:0.8;" x="51.497585" xlink:href="#md8f727e8b6" y="149.3"/>
      </g>
     </g>
     <g id="text_1">
      <!-- −10 -->
      <defs>
       <path d="M 10.59375 35.5 
L 73.1875 35.5 
L 73.1875 27.203125 
L 10.59375 27.203125 
z
" id="DejaVuSans-2212"/>
       <path d="M 12.40625 8.296875 
L 28.515625 8.296875 
L 28.515625 63.921875 
L 10.984375 60.40625 
L 10.984375 69.390625 
L 28.421875 72.90625 
L 38.28125 72.90625 
L 38.28125 8.296875 
L 54.390625 8.296875 
L 54.390625 0 
L 12.40625 0 
z
" id="DejaVuSans-31"/>
       <path d="M 31.78125 66.40625 
Q 24.171875 66.40625 20.328125 58.90625 
Q 16.5 51.421875 16.5 36.375 
Q 16.5 21.390625 20.328125 13.890625 
Q 24.171875 6.390625 31.78125 6.390625 
Q 39.453125 6.390625 43.28125 13.890625 
Q 47.125 21.390625 47.125 36.375 
Q 47.125 51.421875 43.28125 58.90625 
Q 39.453125 66.40625 31.78125 66.40625 
z
M 31.78125 74.21875 
Q 44.046875 74.21875 50.515625 64.515625 
Q 56.984375 54.828125 56.984375 36.375 
Q 56.984375 17.96875 50.515625 8.265625 
Q 44.046875 -1.421875 31.78125 -1.421875 
Q 19.53125 -1.421875 13.0625 8.265625 
Q 6.59375 17.96875 6.59375 36.375 
Q 6.59375 54.828125 13.0625 64.515625 
Q 19.53125 74.21875 31.78125 74.21875 
z
" id="DejaVuSans-30"/>
      </defs>
      <g transform="translate(40.945241 163.898438)scale(0.1 -0.1)">
       <use xlink:href="#DejaVuSans-2212"/>
       <use x="83.789062" xlink:href="#DejaVuSans-31"/>
       <use x="147.412109" xlink:href="#DejaVuSans-30"/>
      </g>
     </g>
    </g>
    <g id="xtick_2">
     <g id="line2d_3">
      <path clip-path="url(#p4355db313c)" d="M 95.883949 149.3 
L 95.883949 10.7 
" style="fill:none;stroke:#b0b0b0;stroke-linecap:square;stroke-width:0.8;"/>
     </g>
     <g id="line2d_4">
      <g>
       <use style="stroke:#000000;stroke-width:0.8;" x="95.883949" xlink:href="#md8f727e8b6" y="149.3"/>
      </g>
     </g>
     <g id="text_2">
      <!-- −5 -->
      <defs>
       <path d="M 10.796875 72.90625 
L 49.515625 72.90625 
L 49.515625 64.59375 
L 19.828125 64.59375 
L 19.828125 46.734375 
Q 21.96875 47.46875 24.109375 47.828125 
Q 26.265625 48.1875 28.421875 48.1875 
Q 40.625 48.1875 47.75 41.5 
Q 54.890625 34.8125 54.890625 23.390625 
Q 54.890625 11.625 47.5625 5.09375 
Q 40.234375 -1.421875 26.90625 -1.421875 
Q 22.3125 -1.421875 17.546875 -0.640625 
Q 12.796875 0.140625 7.71875 1.703125 
L 7.71875 11.625 
Q 12.109375 9.234375 16.796875 8.0625 
Q 21.484375 6.890625 26.703125 6.890625 
Q 35.15625 6.890625 40.078125 11.328125 
Q 45.015625 15.765625 45.015625 23.390625 
Q 45.015625 31 40.078125 35.4375 
Q 35.15625 39.890625 26.703125 39.890625 
Q 22.75 39.890625 18.8125 39.015625 
Q 14.890625 38.140625 10.796875 36.28125 
z
" id="DejaVuSans-35"/>
      </defs>
      <g transform="translate(88.512855 163.898438)scale(0.1 -0.1)">
       <use xlink:href="#DejaVuSans-2212"/>
       <use x="83.789062" xlink:href="#DejaVuSans-35"/>
      </g>
     </g>
    </g>
    <g id="xtick_3">
     <g id="line2d_5">
      <path clip-path="url(#p4355db313c)" d="M 140.270312 149.3 
L 140.270312 10.7 
" style="fill:none;stroke:#b0b0b0;stroke-linecap:square;stroke-width:0.8;"/>
     </g>
     <g id="line2d_6">
      <g>
       <use style="stroke:#000000;stroke-width:0.8;" x="140.270312" xlink:href="#md8f727e8b6" y="149.3"/>
      </g>
     </g>
     <g id="text_3">
      <!-- 0 -->
      <g transform="translate(137.089062 163.898438)scale(0.1 -0.1)">
       <use xlink:href="#DejaVuSans-30"/>
      </g>
     </g>
    </g>
    <g id="xtick_4">
     <g id="line2d_7">
      <path clip-path="url(#p4355db313c)" d="M 184.656676 149.3 
L 184.656676 10.7 
" style="fill:none;stroke:#b0b0b0;stroke-linecap:square;stroke-width:0.8;"/>
     </g>
     <g id="line2d_8">
      <g>
       <use style="stroke:#000000;stroke-width:0.8;" x="184.656676" xlink:href="#md8f727e8b6" y="149.3"/>
      </g>
     </g>
     <g id="text_4">
      <!-- 5 -->
      <g transform="translate(181.475426 163.898438)scale(0.1 -0.1)">
       <use xlink:href="#DejaVuSans-35"/>
      </g>
     </g>
    </g>
    <g id="xtick_5">
     <g id="line2d_9">
      <path clip-path="url(#p4355db313c)" d="M 229.04304 149.3 
L 229.04304 10.7 
" style="fill:none;stroke:#b0b0b0;stroke-linecap:square;stroke-width:0.8;"/>
     </g>
     <g id="line2d_10">
      <g>
       <use style="stroke:#000000;stroke-width:0.8;" x="229.04304" xlink:href="#md8f727e8b6" y="149.3"/>
      </g>
     </g>
     <g id="text_5">
      <!-- 10 -->
      <g transform="translate(222.68054 163.898438)scale(0.1 -0.1)">
       <use xlink:href="#DejaVuSans-31"/>
       <use x="63.623047" xlink:href="#DejaVuSans-30"/>
      </g>
     </g>
    </g>
    <g id="text_6">
     <!-- x -->
     <defs>
      <path d="M 54.890625 54.6875 
L 35.109375 28.078125 
L 55.90625 0 
L 45.3125 0 
L 29.390625 21.484375 
L 13.484375 0 
L 2.875 0 
L 24.125 28.609375 
L 4.6875 54.6875 
L 15.28125 54.6875 
L 29.78125 35.203125 
L 44.28125 54.6875 
z
" id="DejaVuSans-78"/>
     </defs>
     <g transform="translate(137.310937 177.576562)scale(0.1 -0.1)">
      <use xlink:href="#DejaVuSans-78"/>
     </g>
    </g>
   </g>
   <g id="matplotlib.axis_2">
    <g id="ytick_1">
     <g id="line2d_11">
      <path clip-path="url(#p4355db313c)" d="M 42.620312 125.140971 
L 237.920313 125.140971 
" style="fill:none;stroke:#b0b0b0;stroke-linecap:square;stroke-width:0.8;"/>
     </g>
     <g id="line2d_12">
      <defs>
       <path d="M 0 0 
L -3.5 0 
" id="m08f912f23d" style="stroke:#000000;stroke-width:0.8;"/>
      </defs>
      <g>
       <use style="stroke:#000000;stroke-width:0.8;" x="42.620312" xlink:href="#m08f912f23d" y="125.140971"/>
      </g>
     </g>
     <g id="text_7">
      <!-- −5 -->
      <g transform="translate(20.878125 128.94019)scale(0.1 -0.1)">
       <use xlink:href="#DejaVuSans-2212"/>
       <use x="83.789062" xlink:href="#DejaVuSans-35"/>
      </g>
     </g>
    </g>
    <g id="ytick_2">
     <g id="line2d_13">
      <path clip-path="url(#p4355db313c)" d="M 42.620312 80.000004 
L 237.920313 80.000004 
" style="fill:none;stroke:#b0b0b0;stroke-linecap:square;stroke-width:0.8;"/>
     </g>
     <g id="line2d_14">
      <g>
       <use style="stroke:#000000;stroke-width:0.8;" x="42.620312" xlink:href="#m08f912f23d" y="80.000004"/>
      </g>
     </g>
     <g id="text_8">
      <!-- 0 -->
      <g transform="translate(29.257812 83.799223)scale(0.1 -0.1)">
       <use xlink:href="#DejaVuSans-30"/>
      </g>
     </g>
    </g>
    <g id="ytick_3">
     <g id="line2d_15">
      <path clip-path="url(#p4355db313c)" d="M 42.620312 34.859038 
L 237.920313 34.859038 
" style="fill:none;stroke:#b0b0b0;stroke-linecap:square;stroke-width:0.8;"/>
     </g>
     <g id="line2d_16">
      <g>
       <use style="stroke:#000000;stroke-width:0.8;" x="42.620312" xlink:href="#m08f912f23d" y="34.859038"/>
      </g>
     </g>
     <g id="text_9">
      <!-- 5 -->
      <g transform="translate(29.257812 38.658257)scale(0.1 -0.1)">
       <use xlink:href="#DejaVuSans-35"/>
      </g>
     </g>
    </g>
    <g id="text_10">
     <!-- f(x) -->
     <defs>
      <path d="M 37.109375 75.984375 
L 37.109375 68.5 
L 28.515625 68.5 
Q 23.6875 68.5 21.796875 66.546875 
Q 19.921875 64.59375 19.921875 59.515625 
L 19.921875 54.6875 
L 34.71875 54.6875 
L 34.71875 47.703125 
L 19.921875 47.703125 
L 19.921875 0 
L 10.890625 0 
L 10.890625 47.703125 
L 2.296875 47.703125 
L 2.296875 54.6875 
L 10.890625 54.6875 
L 10.890625 58.5 
Q 10.890625 67.625 15.140625 71.796875 
Q 19.390625 75.984375 28.609375 75.984375 
z
" id="DejaVuSans-66"/>
      <path d="M 31 75.875 
Q 24.46875 64.65625 21.28125 53.65625 
Q 18.109375 42.671875 18.109375 31.390625 
Q 18.109375 20.125 21.3125 9.0625 
Q 24.515625 -2 31 -13.1875 
L 23.1875 -13.1875 
Q 15.875 -1.703125 12.234375 9.375 
Q 8.59375 20.453125 8.59375 31.390625 
Q 8.59375 42.28125 12.203125 53.3125 
Q 15.828125 64.359375 23.1875 75.875 
z
" id="DejaVuSans-28"/>
      <path d="M 8.015625 75.875 
L 15.828125 75.875 
Q 23.140625 64.359375 26.78125 53.3125 
Q 30.421875 42.28125 30.421875 31.390625 
Q 30.421875 20.453125 26.78125 9.375 
Q 23.140625 -1.703125 15.828125 -13.1875 
L 8.015625 -13.1875 
Q 14.5 -2 17.703125 9.0625 
Q 20.90625 20.125 20.90625 31.390625 
Q 20.90625 42.671875 17.703125 53.65625 
Q 14.5 64.65625 8.015625 75.875 
z
" id="DejaVuSans-29"/>
     </defs>
     <g transform="translate(14.798437 88.621094)rotate(-90)scale(0.1 -0.1)">
      <use xlink:href="#DejaVuSans-66"/>
      <use x="35.205078" xlink:href="#DejaVuSans-28"/>
      <use x="74.21875" xlink:href="#DejaVuSans-78"/>
      <use x="133.398438" xlink:href="#DejaVuSans-29"/>
     </g>
    </g>
   </g>
   <g id="line2d_17">
    <path clip-path="url(#p4355db313c)" d="M 51.497585 80.000005 
L 54.515927 66.086137 
L 57.090395 55.252423 
L 59.309764 46.825217 
L 61.351583 39.905376 
L 63.215853 34.336896 
L 64.991349 29.731663 
L 66.589294 26.187232 
L 68.098465 23.370881 
L 69.518861 21.194792 
L 70.761708 19.667812 
L 72.004555 18.490198 
L 73.158626 17.705663 
L 74.223924 17.241186 
L 75.289221 17.021008 
L 76.354518 17.039279 
L 77.419815 17.289286 
L 78.485112 17.763484 
L 79.639184 18.520497 
L 80.88203 19.605704 
L 82.213652 21.061618 
L 83.722823 23.052545 
L 85.409543 25.667892 
L 87.273813 28.981778 
L 89.404407 33.228372 
L 91.978875 38.868285 
L 95.529866 47.226859 
L 103.164495 65.342227 
L 106.005256 71.442021 
L 108.402117 76.091596 
L 110.53266 79.764419 
L 112.485658 82.705214 
L 114.261111 84.99897 
L 115.947792 86.827999 
L 117.545699 88.238401 
L 119.054834 89.279826 
L 120.475196 90.002974 
L 121.895559 90.480429 
L 123.315921 90.718159 
L 124.736283 90.724517 
L 126.156645 90.510142 
L 127.66578 90.054866 
L 129.263688 89.336858 
L 131.039141 88.28333 
L 132.992139 86.856315 
L 135.300228 84.879686 
L 138.318498 81.974356 
L 145.95295 74.481714 
L 148.261039 72.593627 
L 150.214037 71.263659 
L 151.98949 70.314415 
L 153.587397 69.702006 
L 155.096532 69.355479 
L 156.516895 69.250373 
L 157.937257 69.371613 
L 159.35762 69.728708 
L 160.777982 70.328828 
L 162.198345 71.176709 
L 163.70748 72.351513 
L 165.216615 73.808031 
L 166.814522 75.65303 
L 168.589975 78.057906 
L 170.4542 80.966114 
L 172.495971 84.56886 
L 174.80406 89.109795 
L 177.467279 94.862284 
L 180.84072 102.709231 
L 190.073295 124.501049 
L 192.558988 129.657121 
L 194.689583 133.585181 
L 196.553853 136.564299 
L 198.151798 138.725338 
L 199.660969 140.396638 
L 200.992591 141.548254 
L 202.235437 142.332001 
L 203.389509 142.795234 
L 204.454806 142.987473 
L 205.520103 142.946201 
L 206.5854 142.664909 
L 207.650698 142.138006 
L 208.715995 141.360806 
L 209.870067 140.232127 
L 211.112913 138.679399 
L 212.44453 136.625111 
L 213.864926 133.988006 
L 215.374097 130.684904 
L 216.972043 126.633063 
L 218.747538 121.479609 
L 220.611808 115.36036 
L 222.653628 107.875581 
L 224.961771 98.51463 
L 227.536239 87.091206 
L 228.956636 80.413695 
L 228.956636 80.413695 
" style="fill:none;stroke:#1f77b4;stroke-linecap:square;stroke-width:1.5;"/>
   </g>
   <g id="line2d_18">
    <path clip-path="url(#p4355db313c)" d="M 229.04304 80.000003 
L 145.376715 74.996416 
L 129.559104 89.179364 
L 120.033697 89.804722 
L 128.344446 89.778279 
L 120.680216 90.08695 
L 127.613199 90.074486 
L 121.143035 90.257764 
L 127.097547 90.252762 
L 121.500614 90.37203 
L 126.704374 90.371154 
" style="fill:none;stroke:#ff7f0e;stroke-linecap:square;stroke-width:1.5;"/>
    <defs>
     <path d="M 0 3 
C 0.795609 3 1.55874 2.683901 2.12132 2.12132 
C 2.683901 1.55874 3 0.795609 3 0 
C 3 -0.795609 2.683901 -1.55874 2.12132 -2.12132 
C 1.55874 -2.683901 0.795609 -3 0 -3 
C -0.795609 -3 -1.55874 -2.683901 -2.12132 -2.12132 
C -2.683901 -1.55874 -3 -0.795609 -3 0 
C -3 0.795609 -2.683901 1.55874 -2.12132 2.12132 
C -1.55874 2.683901 -0.795609 3 0 3 
z
" id="m24e21a60e6" style="stroke:#ff7f0e;"/>
    </defs>
    <g clip-path="url(#p4355db313c)">
     <use style="fill:#ff7f0e;stroke:#ff7f0e;" x="229.04304" xlink:href="#m24e21a60e6" y="80.000003"/>
     <use style="fill:#ff7f0e;stroke:#ff7f0e;" x="145.376715" xlink:href="#m24e21a60e6" y="74.996416"/>
     <use style="fill:#ff7f0e;stroke:#ff7f0e;" x="129.559104" xlink:href="#m24e21a60e6" y="89.179364"/>
     <use style="fill:#ff7f0e;stroke:#ff7f0e;" x="120.033697" xlink:href="#m24e21a60e6" y="89.804722"/>
     <use style="fill:#ff7f0e;stroke:#ff7f0e;" x="128.344446" xlink:href="#m24e21a60e6" y="89.778279"/>
     <use style="fill:#ff7f0e;stroke:#ff7f0e;" x="120.680216" xlink:href="#m24e21a60e6" y="90.08695"/>
     <use style="fill:#ff7f0e;stroke:#ff7f0e;" x="127.613199" xlink:href="#m24e21a60e6" y="90.074486"/>
     <use style="fill:#ff7f0e;stroke:#ff7f0e;" x="121.143035" xlink:href="#m24e21a60e6" y="90.257764"/>
     <use style="fill:#ff7f0e;stroke:#ff7f0e;" x="127.097547" xlink:href="#m24e21a60e6" y="90.252762"/>
     <use style="fill:#ff7f0e;stroke:#ff7f0e;" x="121.500614" xlink:href="#m24e21a60e6" y="90.37203"/>
     <use style="fill:#ff7f0e;stroke:#ff7f0e;" x="126.704374" xlink:href="#m24e21a60e6" y="90.371154"/>
    </g>
   </g>
   <g id="patch_3">
    <path d="M 42.620312 149.3 
L 42.620312 10.7 
" style="fill:none;stroke:#000000;stroke-linecap:square;stroke-linejoin:miter;stroke-width:0.8;"/>
   </g>
   <g id="patch_4">
    <path d="M 237.920313 149.3 
L 237.920313 10.7 
" style="fill:none;stroke:#000000;stroke-linecap:square;stroke-linejoin:miter;stroke-width:0.8;"/>
   </g>
   <g id="patch_5">
    <path d="M 42.620312 149.3 
L 237.920313 149.3 
" style="fill:none;stroke:#000000;stroke-linecap:square;stroke-linejoin:miter;stroke-width:0.8;"/>
   </g>
   <g id="patch_6">
    <path d="M 42.620312 10.7 
L 237.920313 10.7 
" style="fill:none;stroke:#000000;stroke-linecap:square;stroke-linejoin:miter;stroke-width:0.8;"/>
   </g>
  </g>
 </g>
 <defs>
  <clipPath id="p4355db313c">
   <rect height="138.6" width="195.3" x="42.620312" y="10.7"/>
  </clipPath>
 </defs>
</svg>
