<?xml version="1.0" encoding="utf-8" standalone="no"?>
<!DOCTYPE svg PUBLIC "-//W3C//DTD SVG 1.1//EN"
  "http://www.w3.org/Graphics/SVG/1.1/DTD/svg11.dtd">
<!-- Created with matplotlib (http://matplotlib.org/) -->
<svg height="186.85625pt" version="1.1" viewBox="0 0 248.620313 186.85625" width="248.620313pt" xmlns="http://www.w3.org/2000/svg" xmlns:xlink="http://www.w3.org/1999/xlink">
 <defs>
  <style type="text/css">
*{stroke-linecap:butt;stroke-linejoin:round;}
  </style>
 </defs>
 <g id="figure_1">
  <g id="patch_1">
   <path d="M 0 186.85625 
L 248.620313 186.85625 
L 248.620313 0 
L 0 0 
z
" style="fill:#ffffff;"/>
  </g>
  <g id="axes_1">
   <g id="patch_2">
    <path d="M 42.620312 149.3 
L 237.920313 149.3 
L 237.920313 10.7 
L 42.620312 10.7 
z
" style="fill:#ffffff;"/>
   </g>
   <g id="matplotlib.axis_1">
    <g id="xtick_1">
     <g id="line2d_1">
      <defs>
       <path d="M 0 0 
L 0 3.5 
" id="m4aebf21d07" style="stroke:#000000;stroke-width:0.8;"/>
      </defs>
      <g>
       <use style="stroke:#000000;stroke-width:0.8;" x="88.393771" xlink:href="#m4aebf21d07" y="149.3"/>
      </g>
     </g>
     <g id="text_1">
      <!-- −4 -->
      <defs>
       <path d="M 10.59375 35.5 
L 73.1875 35.5 
L 73.1875 27.203125 
L 10.59375 27.203125 
z
" id="DejaVuSans-2212"/>
       <path d="M 37.796875 64.3125 
L 12.890625 25.390625 
L 37.796875 25.390625 
z
M 35.203125 72.90625 
L 47.609375 72.90625 
L 47.609375 25.390625 
L 58.015625 25.390625 
L 58.015625 17.1875 
L 47.609375 17.1875 
L 47.609375 0 
L 37.796875 0 
L 37.796875 17.1875 
L 4.890625 17.1875 
L 4.890625 26.703125 
z
" id="DejaVuSans-34"/>
      </defs>
      <g transform="translate(81.022677 163.898438)scale(0.1 -0.1)">
       <use xlink:href="#DejaVuSans-2212"/>
       <use x="83.789062" xlink:href="#DejaVuSans-34"/>
      </g>
     </g>
    </g>
    <g id="xtick_2">
     <g id="line2d_2">
      <g>
       <use style="stroke:#000000;stroke-width:0.8;" x="149.425049" xlink:href="#m4aebf21d07" y="149.3"/>
      </g>
     </g>
     <g id="text_2">
      <!-- −2 -->
      <defs>
       <path d="M 19.1875 8.296875 
L 53.609375 8.296875 
L 53.609375 0 
L 7.328125 0 
L 7.328125 8.296875 
Q 12.9375 14.109375 22.625 23.890625 
Q 32.328125 33.6875 34.8125 36.53125 
Q 39.546875 41.84375 41.421875 45.53125 
Q 43.3125 49.21875 43.3125 52.78125 
Q 43.3125 58.59375 39.234375 62.25 
Q 35.15625 65.921875 28.609375 65.921875 
Q 23.96875 65.921875 18.8125 64.3125 
Q 13.671875 62.703125 7.8125 59.421875 
L 7.8125 69.390625 
Q 13.765625 71.78125 18.9375 73 
Q 24.125 74.21875 28.421875 74.21875 
Q 39.75 74.21875 46.484375 68.546875 
Q 53.21875 62.890625 53.21875 53.421875 
Q 53.21875 48.921875 51.53125 44.890625 
Q 49.859375 40.875 45.40625 35.40625 
Q 44.1875 33.984375 37.640625 27.21875 
Q 31.109375 20.453125 19.1875 8.296875 
z
" id="DejaVuSans-32"/>
      </defs>
      <g transform="translate(142.053955 163.898438)scale(0.1 -0.1)">
       <use xlink:href="#DejaVuSans-2212"/>
       <use x="83.789062" xlink:href="#DejaVuSans-32"/>
      </g>
     </g>
    </g>
    <g id="xtick_3">
     <g id="line2d_3">
      <g>
       <use style="stroke:#000000;stroke-width:0.8;" x="210.456327" xlink:href="#m4aebf21d07" y="149.3"/>
      </g>
     </g>
     <g id="text_3">
      <!-- 0 -->
      <defs>
       <path d="M 31.78125 66.40625 
Q 24.171875 66.40625 20.328125 58.90625 
Q 16.5 51.421875 16.5 36.375 
Q 16.5 21.390625 20.328125 13.890625 
Q 24.171875 6.390625 31.78125 6.390625 
Q 39.453125 6.390625 43.28125 13.890625 
Q 47.125 21.390625 47.125 36.375 
Q 47.125 51.421875 43.28125 58.90625 
Q 39.453125 66.40625 31.78125 66.40625 
z
M 31.78125 74.21875 
Q 44.046875 74.21875 50.515625 64.515625 
Q 56.984375 54.828125 56.984375 36.375 
Q 56.984375 17.96875 50.515625 8.265625 
Q 44.046875 -1.421875 31.78125 -1.421875 
Q 19.53125 -1.421875 13.0625 8.265625 
Q 6.59375 17.96875 6.59375 36.375 
Q 6.59375 54.828125 13.0625 64.515625 
Q 19.53125 74.21875 31.78125 74.21875 
z
" id="DejaVuSans-30"/>
      </defs>
      <g transform="translate(207.275077 163.898438)scale(0.1 -0.1)">
       <use xlink:href="#DejaVuSans-30"/>
      </g>
     </g>
    </g>
    <g id="text_4">
     <!-- x1 -->
     <defs>
      <path d="M 54.890625 54.6875 
L 35.109375 28.078125 
L 55.90625 0 
L 45.3125 0 
L 29.390625 21.484375 
L 13.484375 0 
L 2.875 0 
L 24.125 28.609375 
L 4.6875 54.6875 
L 15.28125 54.6875 
L 29.78125 35.203125 
L 44.28125 54.6875 
z
" id="DejaVuSans-78"/>
      <path d="M 12.40625 8.296875 
L 28.515625 8.296875 
L 28.515625 63.921875 
L 10.984375 60.40625 
L 10.984375 69.390625 
L 28.421875 72.90625 
L 38.28125 72.90625 
L 38.28125 8.296875 
L 54.390625 8.296875 
L 54.390625 0 
L 12.40625 0 
z
" id="DejaVuSans-31"/>
     </defs>
     <g transform="translate(134.129687 177.576562)scale(0.1 -0.1)">
      <use xlink:href="#DejaVuSans-78"/>
      <use x="59.179688" xlink:href="#DejaVuSans-31"/>
     </g>
    </g>
   </g>
   <g id="matplotlib.axis_2">
    <g id="ytick_1">
     <g id="line2d_4">
      <defs>
       <path d="M 0 0 
L -3.5 0 
" id="mf1dfa4022c" style="stroke:#000000;stroke-width:0.8;"/>
      </defs>
      <g>
       <use style="stroke:#000000;stroke-width:0.8;" x="42.620312" xlink:href="#mf1dfa4022c" y="149.3"/>
      </g>
     </g>
     <g id="text_5">
      <!-- −3 -->
      <defs>
       <path d="M 40.578125 39.3125 
Q 47.65625 37.796875 51.625 33 
Q 55.609375 28.21875 55.609375 21.1875 
Q 55.609375 10.40625 48.1875 4.484375 
Q 40.765625 -1.421875 27.09375 -1.421875 
Q 22.515625 -1.421875 17.65625 -0.515625 
Q 12.796875 0.390625 7.625 2.203125 
L 7.625 11.71875 
Q 11.71875 9.328125 16.59375 8.109375 
Q 21.484375 6.890625 26.8125 6.890625 
Q 36.078125 6.890625 40.9375 10.546875 
Q 45.796875 14.203125 45.796875 21.1875 
Q 45.796875 27.640625 41.28125 31.265625 
Q 36.765625 34.90625 28.71875 34.90625 
L 20.21875 34.90625 
L 20.21875 43.015625 
L 29.109375 43.015625 
Q 36.375 43.015625 40.234375 45.921875 
Q 44.09375 48.828125 44.09375 54.296875 
Q 44.09375 59.90625 40.109375 62.90625 
Q 36.140625 65.921875 28.71875 65.921875 
Q 24.65625 65.921875 20.015625 65.03125 
Q 15.375 64.15625 9.8125 62.3125 
L 9.8125 71.09375 
Q 15.4375 72.65625 20.34375 73.4375 
Q 25.25 74.21875 29.59375 74.21875 
Q 40.828125 74.21875 47.359375 69.109375 
Q 53.90625 64.015625 53.90625 55.328125 
Q 53.90625 49.265625 50.4375 45.09375 
Q 46.96875 40.921875 40.578125 39.3125 
z
" id="DejaVuSans-33"/>
      </defs>
      <g transform="translate(20.878125 153.099219)scale(0.1 -0.1)">
       <use xlink:href="#DejaVuSans-2212"/>
       <use x="83.789062" xlink:href="#DejaVuSans-33"/>
      </g>
     </g>
    </g>
    <g id="ytick_2">
     <g id="line2d_5">
      <g>
       <use style="stroke:#000000;stroke-width:0.8;" x="42.620312" xlink:href="#mf1dfa4022c" y="113.761533"/>
      </g>
     </g>
     <g id="text_6">
      <!-- −2 -->
      <g transform="translate(20.878125 117.560752)scale(0.1 -0.1)">
       <use xlink:href="#DejaVuSans-2212"/>
       <use x="83.789062" xlink:href="#DejaVuSans-32"/>
      </g>
     </g>
    </g>
    <g id="ytick_3">
     <g id="line2d_6">
      <g>
       <use style="stroke:#000000;stroke-width:0.8;" x="42.620312" xlink:href="#mf1dfa4022c" y="78.223067"/>
      </g>
     </g>
     <g id="text_7">
      <!-- −1 -->
      <g transform="translate(20.878125 82.022285)scale(0.1 -0.1)">
       <use xlink:href="#DejaVuSans-2212"/>
       <use x="83.789062" xlink:href="#DejaVuSans-31"/>
      </g>
     </g>
    </g>
    <g id="ytick_4">
     <g id="line2d_7">
      <g>
       <use style="stroke:#000000;stroke-width:0.8;" x="42.620312" xlink:href="#mf1dfa4022c" y="42.6846"/>
      </g>
     </g>
     <g id="text_8">
      <!-- 0 -->
      <g transform="translate(29.257812 46.483819)scale(0.1 -0.1)">
       <use xlink:href="#DejaVuSans-30"/>
      </g>
     </g>
    </g>
    <g id="text_9">
     <!-- x2 -->
     <g transform="translate(14.798437 86.140625)rotate(-90)scale(0.1 -0.1)">
      <use xlink:href="#DejaVuSans-78"/>
      <use x="59.179688" xlink:href="#DejaVuSans-32"/>
     </g>
    </g>
   </g>
   <g id="LineCollection_1">
    <path clip-path="url(#pbda509bca5)" d="M 133.389367 10.7 
L 131.354994 14.253848 
L 131.115581 14.727841 
L 129.618663 17.807695 
L 128.12167 21.361543 
L 128.06402 21.523285 
L 126.898951 24.915389 
L 125.90026 28.469235 
L 125.123502 32.023082 
L 125.012459 32.734343 
L 124.584245 35.576928 
L 124.263029 39.130775 
L 124.155958 42.684622 
L 124.263033 46.238468 
L 124.58425 49.792315 
L 125.012459 52.634867 
L 125.123507 53.346162 
L 125.90027 56.900008 
L 126.898964 60.453855 
L 128.06402 63.845914 
L 128.121686 64.007702 
L 129.618682 67.56155 
L 131.115581 70.641359 
L 131.355016 71.115397 
L 133.389396 74.669245 
L 134.167142 75.884875 
L 135.724167 78.223092 
L 137.218703 80.253716 
L 138.387499 81.77694 
L 140.270264 84.017271 
L 141.423198 85.330787 
L 143.321825 87.320814 
L 144.883218 88.884635 
L 146.373386 90.266568 
L 148.829656 92.438482 
L 149.424947 92.928556 
L 152.476512 95.318216 
L 153.383878 95.99233 
L 155.528077 97.482554 
L 158.579641 99.488763 
L 158.672265 99.546177 
L 161.631206 101.269168 
L 164.68277 102.938401 
L 164.998616 103.100025 
L 167.734335 104.419947 
L 170.7859 105.790719 
L 172.861143 106.653872 
L 173.837464 107.038003 
L 176.889029 108.142581 
L 179.940594 109.151109 
L 182.992158 110.063587 
L 183.530887 110.20772 
L 186.043723 110.845534 
L 189.095287 111.52897 
L 192.146852 112.121281 
L 195.198417 112.622467 
L 198.24998 113.032527 
L 201.301544 113.351464 
L 204.353108 113.57928 
L 207.404672 113.715969 
L 210.456236 113.761532 
L 213.5078 113.715974 
L 216.559364 113.579289 
L 219.610927 113.351482 
L 222.662491 113.032549 
L 225.714055 112.622493 
L 228.765619 112.121312 
L 231.817183 111.529008 
L 234.868748 110.84558 
L 237.38177 110.20772 
L 237.920313 110.063637 
" style="fill:none;stroke:#1f77b4;stroke-width:1.5;"/>
   </g>
   <g id="LineCollection_2">
    <path clip-path="url(#pbda509bca5)" d="M 94.741012 10.7 
L 94.496849 11.327245 
L 93.387229 14.253848 
L 92.198311 17.807695 
L 91.445288 20.404873 
L 91.174935 21.361543 
L 90.325134 24.915389 
L 89.629844 28.469235 
L 89.089059 32.023082 
L 88.70279 35.576928 
L 88.471028 39.130775 
L 88.393772 42.684622 
L 88.471028 46.238468 
L 88.702791 49.792315 
L 89.089065 53.346162 
L 89.629852 56.900008 
L 90.325144 60.453855 
L 91.174946 64.007702 
L 91.445288 64.964329 
L 92.198326 67.56155 
L 93.387247 71.115397 
L 94.496849 74.041941 
L 94.741034 74.669245 
L 96.28716 78.223092 
L 97.54841 80.846036 
L 98.008301 81.77694 
L 99.931208 85.330787 
L 100.599971 86.467895 
L 102.061357 88.884635 
L 103.651532 91.319565 
L 104.403444 92.438482 
L 106.703093 95.624577 
L 106.976452 95.99233 
L 109.754654 99.488747 
L 109.801692 99.546177 
L 112.806215 102.992227 
L 112.903185 103.100025 
L 115.857776 106.196842 
L 116.308112 106.653872 
L 118.909337 109.151073 
L 120.047314 110.20772 
L 121.960898 111.89342 
L 124.156 113.761567 
L 125.012459 114.454904 
L 128.06402 116.838582 
L 128.697488 117.315411 
L 131.115581 119.050919 
L 133.748428 120.869254 
L 134.167142 121.14558 
L 137.218703 123.08045 
L 139.426351 124.423097 
L 140.270264 124.914507 
L 143.321825 126.615818 
L 145.876758 127.97694 
L 146.373386 128.230716 
L 149.424947 129.71753 
L 152.476512 131.131818 
L 153.383878 131.530784 
L 155.528077 132.436608 
L 158.579641 133.656068 
L 161.631206 134.805841 
L 162.418852 135.084627 
L 164.68277 135.855698 
L 167.734335 136.827979 
L 170.7859 137.733206 
L 173.837464 138.571383 
L 174.10295 138.63847 
L 176.889029 139.316901 
L 179.940594 139.995363 
L 182.992158 140.609213 
L 186.043723 141.158444 
L 189.095287 141.643064 
L 192.146852 142.063061 
L 193.25668 142.192313 
L 195.198417 142.410516 
L 198.24998 142.691084 
L 201.301544 142.909304 
L 204.353108 143.065178 
L 207.404672 143.158702 
L 210.456236 143.189877 
L 213.5078 143.158704 
L 216.559364 143.065184 
L 219.610927 142.909316 
L 222.662491 142.691098 
L 225.714055 142.410534 
L 227.655983 142.192313 
L 228.765619 142.063086 
L 231.817183 141.643089 
L 234.868748 141.158475 
L 237.920313 140.609245 
" style="fill:none;stroke:#1f77b4;stroke-width:1.5;"/>
   </g>
   <g id="LineCollection_3">
    <path clip-path="url(#pbda509bca5)" d="M 66.10129 10.7 
L 65.009152 14.253848 
L 64.045497 17.807695 
L 63.981239 18.081128 
L 63.226232 21.361543 
L 62.534121 24.915389 
L 61.967857 28.469235 
L 61.527421 32.023082 
L 61.212832 35.576928 
L 61.024077 39.130775 
L 60.961157 42.684622 
L 61.024077 46.238468 
L 61.212832 49.792315 
L 61.527427 53.346162 
L 61.967863 56.900008 
L 62.534133 60.453855 
L 63.226238 64.007702 
L 63.981239 67.288066 
L 64.045509 67.56155 
L 65.009165 71.115397 
L 66.101304 74.669245 
L 67.0328 77.381285 
L 67.328151 78.223092 
L 68.706275 81.77694 
L 70.084361 85.021676 
L 70.218531 85.330787 
L 71.895223 88.884635 
L 73.135922 91.319588 
L 73.718851 92.438482 
L 75.707517 95.99233 
L 76.187483 96.794722 
L 77.871157 99.546177 
L 79.239044 101.646093 
L 80.208422 103.100025 
L 82.290605 106.04455 
L 82.731861 106.653872 
L 85.342166 110.063559 
L 85.455255 110.20772 
L 88.393727 113.76148 
L 88.393801 113.761567 
L 91.445288 117.185314 
L 91.564251 117.315411 
L 94.496849 120.373294 
L 94.985174 120.869254 
L 97.54841 123.356867 
L 98.677152 124.423097 
L 100.599971 126.162139 
L 102.663081 127.97694 
L 103.651532 128.810935 
L 106.703093 131.313134 
L 106.976452 131.530784 
L 109.754654 133.656056 
L 111.679569 135.084627 
L 112.806215 135.889213 
L 115.857776 138.001401 
L 116.80835 138.63847 
L 118.909337 139.995339 
L 121.960898 141.901494 
L 122.442807 142.192313 
L 125.012459 143.68862 
L 128.06402 145.403192 
L 128.697456 145.746157 
L 131.115581 147.011036 
L 134.167142 148.547021 
L 135.724151 149.3 
" style="fill:none;stroke:#1f77b4;stroke-width:1.5;"/>
   </g>
   <g id="LineCollection_4">
    <path clip-path="url(#pbda509bca5)" d="M 42.620312 75.885005 
L 43.320222 78.223092 
L 44.496055 81.77694 
L 45.671873 85.02172 
L 45.785964 85.330787 
L 47.21193 88.884635 
L 48.723434 92.372631 
L 48.752514 92.438482 
L 50.438145 95.99233 
L 51.774995 98.629011 
L 52.249047 99.546177 
L 54.204423 103.100025 
L 54.826556 104.166128 
L 56.30705 106.653872 
L 57.878117 109.151109 
L 58.556281 110.20772 
L 60.929678 113.715943 
L 60.961181 113.761567 
L 63.540852 117.315411 
L 63.981239 117.893886 
L 66.29405 120.869254 
L 67.0328 121.777398 
L 69.23128 124.423097 
L 70.084361 125.406027 
L 72.364698 127.97694 
L 73.135922 128.810949 
L 75.707517 131.530784 
L 76.187483 132.018512 
L 79.239044 135.049738 
L 79.274994 135.084627 
L 82.290605 137.900836 
L 83.099501 138.63847 
L 85.342166 140.609193 
L 87.188223 142.192313 
L 88.393727 143.18984 
L 91.445288 145.652591 
L 91.564236 145.746157 
L 94.496849 147.974804 
L 96.287149 149.3 
" style="fill:none;stroke:#1f77b4;stroke-width:1.5;"/>
   </g>
   <g id="LineCollection_5">
    <path clip-path="url(#pbda509bca5)" d="M 42.620312 121.145633 
L 44.944002 124.423097 
L 45.671873 125.406041 
L 47.611206 127.97694 
L 48.723434 129.391196 
L 50.438145 131.530784 
L 51.774995 133.133473 
L 53.434114 135.084627 
L 54.826556 136.660364 
L 56.609178 138.63847 
L 57.878117 139.995363 
L 59.974168 142.192313 
L 60.929678 143.158679 
L 63.540834 145.746157 
L 63.981239 146.167774 
L 67.0328 149.02892 
L 67.328138 149.3 
" style="fill:none;stroke:#1f77b4;stroke-width:1.5;"/>
   </g>
   <g id="LineCollection_6">
    <path clip-path="url(#pbda509bca5)" d="M 42.620312 148.547067 
L 43.320214 149.3 
" style="fill:none;stroke:#1f77b4;stroke-width:1.5;"/>
   </g>
   <g id="line2d_8">
    <path clip-path="url(#pbda509bca5)" d="M 57.878132 113.761533 
L 73.135952 99.546147 
L 86.867989 88.173837 
L 99.226823 79.07599 
L 110.349773 71.797712 
L 120.360429 65.97509 
L 129.370019 61.316992 
L 137.478649 57.590513 
L 144.776417 54.609331 
L 151.344408 52.224385 
L 157.2556 50.316428 
L 162.575673 48.790062 
L 167.363738 47.56897 
L 171.672997 46.592096 
L 175.55133 45.810597 
L 179.04183 45.185397 
L 182.18328 44.685238 
L 185.010584 44.28511 
L 187.555159 43.965008 
L 189.845276 43.708927 
L 191.906381 43.504061 
" style="fill:none;stroke:#ff7f0e;stroke-linecap:square;stroke-width:1.5;"/>
    <defs>
     <path d="M 0 3 
C 0.795609 3 1.55874 2.683901 2.12132 2.12132 
C 2.683901 1.55874 3 0.795609 3 0 
C 3 -0.795609 2.683901 -1.55874 2.12132 -2.12132 
C 1.55874 -2.683901 0.795609 -3 0 -3 
C -0.795609 -3 -1.55874 -2.683901 -2.12132 -2.12132 
C -2.683901 -1.55874 -3 -0.795609 -3 0 
C -3 0.795609 -2.683901 1.55874 -2.12132 2.12132 
C -1.55874 2.683901 -0.795609 3 0 3 
z
" id="m03aca84858" style="stroke:#ff7f0e;"/>
    </defs>
    <g clip-path="url(#pbda509bca5)">
     <use style="fill:#ff7f0e;stroke:#ff7f0e;" x="57.878132" xlink:href="#m03aca84858" y="113.761533"/>
     <use style="fill:#ff7f0e;stroke:#ff7f0e;" x="73.135952" xlink:href="#m03aca84858" y="99.546147"/>
     <use style="fill:#ff7f0e;stroke:#ff7f0e;" x="86.867989" xlink:href="#m03aca84858" y="88.173837"/>
     <use style="fill:#ff7f0e;stroke:#ff7f0e;" x="99.226823" xlink:href="#m03aca84858" y="79.07599"/>
     <use style="fill:#ff7f0e;stroke:#ff7f0e;" x="110.349773" xlink:href="#m03aca84858" y="71.797712"/>
     <use style="fill:#ff7f0e;stroke:#ff7f0e;" x="120.360429" xlink:href="#m03aca84858" y="65.97509"/>
     <use style="fill:#ff7f0e;stroke:#ff7f0e;" x="129.370019" xlink:href="#m03aca84858" y="61.316992"/>
     <use style="fill:#ff7f0e;stroke:#ff7f0e;" x="137.478649" xlink:href="#m03aca84858" y="57.590513"/>
     <use style="fill:#ff7f0e;stroke:#ff7f0e;" x="144.776417" xlink:href="#m03aca84858" y="54.609331"/>
     <use style="fill:#ff7f0e;stroke:#ff7f0e;" x="151.344408" xlink:href="#m03aca84858" y="52.224385"/>
     <use style="fill:#ff7f0e;stroke:#ff7f0e;" x="157.2556" xlink:href="#m03aca84858" y="50.316428"/>
     <use style="fill:#ff7f0e;stroke:#ff7f0e;" x="162.575673" xlink:href="#m03aca84858" y="48.790062"/>
     <use style="fill:#ff7f0e;stroke:#ff7f0e;" x="167.363738" xlink:href="#m03aca84858" y="47.56897"/>
     <use style="fill:#ff7f0e;stroke:#ff7f0e;" x="171.672997" xlink:href="#m03aca84858" y="46.592096"/>
     <use style="fill:#ff7f0e;stroke:#ff7f0e;" x="175.55133" xlink:href="#m03aca84858" y="45.810597"/>
     <use style="fill:#ff7f0e;stroke:#ff7f0e;" x="179.04183" xlink:href="#m03aca84858" y="45.185397"/>
     <use style="fill:#ff7f0e;stroke:#ff7f0e;" x="182.18328" xlink:href="#m03aca84858" y="44.685238"/>
     <use style="fill:#ff7f0e;stroke:#ff7f0e;" x="185.010584" xlink:href="#m03aca84858" y="44.28511"/>
     <use style="fill:#ff7f0e;stroke:#ff7f0e;" x="187.555159" xlink:href="#m03aca84858" y="43.965008"/>
     <use style="fill:#ff7f0e;stroke:#ff7f0e;" x="189.845276" xlink:href="#m03aca84858" y="43.708927"/>
     <use style="fill:#ff7f0e;stroke:#ff7f0e;" x="191.906381" xlink:href="#m03aca84858" y="43.504061"/>
    </g>
   </g>
   <g id="patch_3">
    <path d="M 42.620312 149.3 
L 42.620312 10.7 
" style="fill:none;stroke:#000000;stroke-linecap:square;stroke-linejoin:miter;stroke-width:0.8;"/>
   </g>
   <g id="patch_4">
    <path d="M 237.920313 149.3 
L 237.920313 10.7 
" style="fill:none;stroke:#000000;stroke-linecap:square;stroke-linejoin:miter;stroke-width:0.8;"/>
   </g>
   <g id="patch_5">
    <path d="M 42.620312 149.3 
L 237.920313 149.3 
" style="fill:none;stroke:#000000;stroke-linecap:square;stroke-linejoin:miter;stroke-width:0.8;"/>
   </g>
   <g id="patch_6">
    <path d="M 42.620312 10.7 
L 237.920313 10.7 
" style="fill:none;stroke:#000000;stroke-linecap:square;stroke-linejoin:miter;stroke-width:0.8;"/>
   </g>
  </g>
 </g>
 <defs>
  <clipPath id="pbda509bca5">
   <rect height="138.6" width="195.3" x="42.620312" y="10.7"/>
  </clipPath>
 </defs>
</svg>
