<?xml version="1.0" encoding="utf-8" standalone="no"?>
<!DOCTYPE svg PUBLIC "-//W3C//DTD SVG 1.1//EN"
  "http://www.w3.org/Graphics/SVG/1.1/DTD/svg11.dtd">
<!-- Created with matplotlib (http://matplotlib.org/) -->
<svg height="186.85625pt" version="1.1" viewBox="0 0 248.620313 186.85625" width="248.620313pt" xmlns="http://www.w3.org/2000/svg" xmlns:xlink="http://www.w3.org/1999/xlink">
 <defs>
  <style type="text/css">
*{stroke-linecap:butt;stroke-linejoin:round;}
  </style>
 </defs>
 <g id="figure_1">
  <g id="patch_1">
   <path d="M 0 186.85625 
L 248.620313 186.85625 
L 248.620313 0 
L 0 0 
z
" style="fill:#ffffff;"/>
  </g>
  <g id="axes_1">
   <g id="patch_2">
    <path d="M 42.620312 149.3 
L 237.920313 149.3 
L 237.920313 10.7 
L 42.620312 10.7 
z
" style="fill:#ffffff;"/>
   </g>
   <g id="matplotlib.axis_1">
    <g id="xtick_1">
     <g id="line2d_1">
      <defs>
       <path d="M 0 0 
L 0 3.5 
" id="m790cbf62bb" style="stroke:#000000;stroke-width:0.8;"/>
      </defs>
      <g>
       <use style="stroke:#000000;stroke-width:0.8;" x="88.393771" xlink:href="#m790cbf62bb" y="149.3"/>
      </g>
     </g>
     <g id="text_1">
      <!-- −4 -->
      <defs>
       <path d="M 10.59375 35.5 
L 73.1875 35.5 
L 73.1875 27.203125 
L 10.59375 27.203125 
z
" id="DejaVuSans-2212"/>
       <path d="M 37.796875 64.3125 
L 12.890625 25.390625 
L 37.796875 25.390625 
z
M 35.203125 72.90625 
L 47.609375 72.90625 
L 47.609375 25.390625 
L 58.015625 25.390625 
L 58.015625 17.1875 
L 47.609375 17.1875 
L 47.609375 0 
L 37.796875 0 
L 37.796875 17.1875 
L 4.890625 17.1875 
L 4.890625 26.703125 
z
" id="DejaVuSans-34"/>
      </defs>
      <g transform="translate(81.022677 163.898438)scale(0.1 -0.1)">
       <use xlink:href="#DejaVuSans-2212"/>
       <use x="83.789062" xlink:href="#DejaVuSans-34"/>
      </g>
     </g>
    </g>
    <g id="xtick_2">
     <g id="line2d_2">
      <g>
       <use style="stroke:#000000;stroke-width:0.8;" x="149.425049" xlink:href="#m790cbf62bb" y="149.3"/>
      </g>
     </g>
     <g id="text_2">
      <!-- −2 -->
      <defs>
       <path d="M 19.1875 8.296875 
L 53.609375 8.296875 
L 53.609375 0 
L 7.328125 0 
L 7.328125 8.296875 
Q 12.9375 14.109375 22.625 23.890625 
Q 32.328125 33.6875 34.8125 36.53125 
Q 39.546875 41.84375 41.421875 45.53125 
Q 43.3125 49.21875 43.3125 52.78125 
Q 43.3125 58.59375 39.234375 62.25 
Q 35.15625 65.921875 28.609375 65.921875 
Q 23.96875 65.921875 18.8125 64.3125 
Q 13.671875 62.703125 7.8125 59.421875 
L 7.8125 69.390625 
Q 13.765625 71.78125 18.9375 73 
Q 24.125 74.21875 28.421875 74.21875 
Q 39.75 74.21875 46.484375 68.546875 
Q 53.21875 62.890625 53.21875 53.421875 
Q 53.21875 48.921875 51.53125 44.890625 
Q 49.859375 40.875 45.40625 35.40625 
Q 44.1875 33.984375 37.640625 27.21875 
Q 31.109375 20.453125 19.1875 8.296875 
z
" id="DejaVuSans-32"/>
      </defs>
      <g transform="translate(142.053955 163.898438)scale(0.1 -0.1)">
       <use xlink:href="#DejaVuSans-2212"/>
       <use x="83.789062" xlink:href="#DejaVuSans-32"/>
      </g>
     </g>
    </g>
    <g id="xtick_3">
     <g id="line2d_3">
      <g>
       <use style="stroke:#000000;stroke-width:0.8;" x="210.456327" xlink:href="#m790cbf62bb" y="149.3"/>
      </g>
     </g>
     <g id="text_3">
      <!-- 0 -->
      <defs>
       <path d="M 31.78125 66.40625 
Q 24.171875 66.40625 20.328125 58.90625 
Q 16.5 51.421875 16.5 36.375 
Q 16.5 21.390625 20.328125 13.890625 
Q 24.171875 6.390625 31.78125 6.390625 
Q 39.453125 6.390625 43.28125 13.890625 
Q 47.125 21.390625 47.125 36.375 
Q 47.125 51.421875 43.28125 58.90625 
Q 39.453125 66.40625 31.78125 66.40625 
z
M 31.78125 74.21875 
Q 44.046875 74.21875 50.515625 64.515625 
Q 56.984375 54.828125 56.984375 36.375 
Q 56.984375 17.96875 50.515625 8.265625 
Q 44.046875 -1.421875 31.78125 -1.421875 
Q 19.53125 -1.421875 13.0625 8.265625 
Q 6.59375 17.96875 6.59375 36.375 
Q 6.59375 54.828125 13.0625 64.515625 
Q 19.53125 74.21875 31.78125 74.21875 
z
" id="DejaVuSans-30"/>
      </defs>
      <g transform="translate(207.275077 163.898438)scale(0.1 -0.1)">
       <use xlink:href="#DejaVuSans-30"/>
      </g>
     </g>
    </g>
    <g id="text_4">
     <!-- x1 -->
     <defs>
      <path d="M 54.890625 54.6875 
L 35.109375 28.078125 
L 55.90625 0 
L 45.3125 0 
L 29.390625 21.484375 
L 13.484375 0 
L 2.875 0 
L 24.125 28.609375 
L 4.6875 54.6875 
L 15.28125 54.6875 
L 29.78125 35.203125 
L 44.28125 54.6875 
z
" id="DejaVuSans-78"/>
      <path d="M 12.40625 8.296875 
L 28.515625 8.296875 
L 28.515625 63.921875 
L 10.984375 60.40625 
L 10.984375 69.390625 
L 28.421875 72.90625 
L 38.28125 72.90625 
L 38.28125 8.296875 
L 54.390625 8.296875 
L 54.390625 0 
L 12.40625 0 
z
" id="DejaVuSans-31"/>
     </defs>
     <g transform="translate(134.129687 177.576562)scale(0.1 -0.1)">
      <use xlink:href="#DejaVuSans-78"/>
      <use x="59.179688" xlink:href="#DejaVuSans-31"/>
     </g>
    </g>
   </g>
   <g id="matplotlib.axis_2">
    <g id="ytick_1">
     <g id="line2d_4">
      <defs>
       <path d="M 0 0 
L -3.5 0 
" id="m6b79094328" style="stroke:#000000;stroke-width:0.8;"/>
      </defs>
      <g>
       <use style="stroke:#000000;stroke-width:0.8;" x="42.620312" xlink:href="#m6b79094328" y="149.3"/>
      </g>
     </g>
     <g id="text_5">
      <!-- −3 -->
      <defs>
       <path d="M 40.578125 39.3125 
Q 47.65625 37.796875 51.625 33 
Q 55.609375 28.21875 55.609375 21.1875 
Q 55.609375 10.40625 48.1875 4.484375 
Q 40.765625 -1.421875 27.09375 -1.421875 
Q 22.515625 -1.421875 17.65625 -0.515625 
Q 12.796875 0.390625 7.625 2.203125 
L 7.625 11.71875 
Q 11.71875 9.328125 16.59375 8.109375 
Q 21.484375 6.890625 26.8125 6.890625 
Q 36.078125 6.890625 40.9375 10.546875 
Q 45.796875 14.203125 45.796875 21.1875 
Q 45.796875 27.640625 41.28125 31.265625 
Q 36.765625 34.90625 28.71875 34.90625 
L 20.21875 34.90625 
L 20.21875 43.015625 
L 29.109375 43.015625 
Q 36.375 43.015625 40.234375 45.921875 
Q 44.09375 48.828125 44.09375 54.296875 
Q 44.09375 59.90625 40.109375 62.90625 
Q 36.140625 65.921875 28.71875 65.921875 
Q 24.65625 65.921875 20.015625 65.03125 
Q 15.375 64.15625 9.8125 62.3125 
L 9.8125 71.09375 
Q 15.4375 72.65625 20.34375 73.4375 
Q 25.25 74.21875 29.59375 74.21875 
Q 40.828125 74.21875 47.359375 69.109375 
Q 53.90625 64.015625 53.90625 55.328125 
Q 53.90625 49.265625 50.4375 45.09375 
Q 46.96875 40.921875 40.578125 39.3125 
z
" id="DejaVuSans-33"/>
      </defs>
      <g transform="translate(20.878125 153.099219)scale(0.1 -0.1)">
       <use xlink:href="#DejaVuSans-2212"/>
       <use x="83.789062" xlink:href="#DejaVuSans-33"/>
      </g>
     </g>
    </g>
    <g id="ytick_2">
     <g id="line2d_5">
      <g>
       <use style="stroke:#000000;stroke-width:0.8;" x="42.620312" xlink:href="#m6b79094328" y="113.761533"/>
      </g>
     </g>
     <g id="text_6">
      <!-- −2 -->
      <g transform="translate(20.878125 117.560752)scale(0.1 -0.1)">
       <use xlink:href="#DejaVuSans-2212"/>
       <use x="83.789062" xlink:href="#DejaVuSans-32"/>
      </g>
     </g>
    </g>
    <g id="ytick_3">
     <g id="line2d_6">
      <g>
       <use style="stroke:#000000;stroke-width:0.8;" x="42.620312" xlink:href="#m6b79094328" y="78.223067"/>
      </g>
     </g>
     <g id="text_7">
      <!-- −1 -->
      <g transform="translate(20.878125 82.022285)scale(0.1 -0.1)">
       <use xlink:href="#DejaVuSans-2212"/>
       <use x="83.789062" xlink:href="#DejaVuSans-31"/>
      </g>
     </g>
    </g>
    <g id="ytick_4">
     <g id="line2d_7">
      <g>
       <use style="stroke:#000000;stroke-width:0.8;" x="42.620312" xlink:href="#m6b79094328" y="42.6846"/>
      </g>
     </g>
     <g id="text_8">
      <!-- 0 -->
      <g transform="translate(29.257812 46.483819)scale(0.1 -0.1)">
       <use xlink:href="#DejaVuSans-30"/>
      </g>
     </g>
    </g>
    <g id="text_9">
     <!-- x2 -->
     <g transform="translate(14.798437 86.140625)rotate(-90)scale(0.1 -0.1)">
      <use xlink:href="#DejaVuSans-78"/>
      <use x="59.179688" xlink:href="#DejaVuSans-32"/>
     </g>
    </g>
   </g>
   <g id="LineCollection_1">
    <path clip-path="url(#p157a1b0d02)" d="M 133.389367 10.7 
L 131.354994 14.253848 
L 131.115581 14.727841 
L 129.618663 17.807695 
L 128.12167 21.361543 
L 128.06402 21.523285 
L 126.898951 24.915389 
L 125.90026 28.469235 
L 125.123502 32.023082 
L 125.012459 32.734343 
L 124.584245 35.576928 
L 124.263029 39.130775 
L 124.155958 42.684622 
L 124.263033 46.238468 
L 124.58425 49.792315 
L 125.012459 52.634867 
L 125.123507 53.346162 
L 125.90027 56.900008 
L 126.898964 60.453855 
L 128.06402 63.845914 
L 128.121686 64.007702 
L 129.618682 67.56155 
L 131.115581 70.641359 
L 131.355016 71.115397 
L 133.389396 74.669245 
L 134.167142 75.884875 
L 135.724167 78.223092 
L 137.218703 80.253716 
L 138.387499 81.77694 
L 140.270264 84.017271 
L 141.423198 85.330787 
L 143.321825 87.320814 
L 144.883218 88.884635 
L 146.373386 90.266568 
L 148.829656 92.438482 
L 149.424947 92.928556 
L 152.476512 95.318216 
L 153.383878 95.99233 
L 155.528077 97.482554 
L 158.579641 99.488763 
L 158.672265 99.546177 
L 161.631206 101.269168 
L 164.68277 102.938401 
L 164.998616 103.100025 
L 167.734335 104.419947 
L 170.7859 105.790719 
L 172.861143 106.653872 
L 173.837464 107.038003 
L 176.889029 108.142581 
L 179.940594 109.151109 
L 182.992158 110.063587 
L 183.530887 110.20772 
L 186.043723 110.845534 
L 189.095287 111.52897 
L 192.146852 112.121281 
L 195.198417 112.622467 
L 198.24998 113.032527 
L 201.301544 113.351464 
L 204.353108 113.57928 
L 207.404672 113.715969 
L 210.456236 113.761532 
L 213.5078 113.715974 
L 216.559364 113.579289 
L 219.610927 113.351482 
L 222.662491 113.032549 
L 225.714055 112.622493 
L 228.765619 112.121312 
L 231.817183 111.529008 
L 234.868748 110.84558 
L 237.38177 110.20772 
L 237.920313 110.063637 
" style="fill:none;stroke:#1f77b4;stroke-width:1.5;"/>
   </g>
   <g id="LineCollection_2">
    <path clip-path="url(#p157a1b0d02)" d="M 94.741012 10.7 
L 94.496849 11.327245 
L 93.387229 14.253848 
L 92.198311 17.807695 
L 91.445288 20.404873 
L 91.174935 21.361543 
L 90.325134 24.915389 
L 89.629844 28.469235 
L 89.089059 32.023082 
L 88.70279 35.576928 
L 88.471028 39.130775 
L 88.393772 42.684622 
L 88.471028 46.238468 
L 88.702791 49.792315 
L 89.089065 53.346162 
L 89.629852 56.900008 
L 90.325144 60.453855 
L 91.174946 64.007702 
L 91.445288 64.964329 
L 92.198326 67.56155 
L 93.387247 71.115397 
L 94.496849 74.041941 
L 94.741034 74.669245 
L 96.28716 78.223092 
L 97.54841 80.846036 
L 98.008301 81.77694 
L 99.931208 85.330787 
L 100.599971 86.467895 
L 102.061357 88.884635 
L 103.651532 91.319565 
L 104.403444 92.438482 
L 106.703093 95.624577 
L 106.976452 95.99233 
L 109.754654 99.488747 
L 109.801692 99.546177 
L 112.806215 102.992227 
L 112.903185 103.100025 
L 115.857776 106.196842 
L 116.308112 106.653872 
L 118.909337 109.151073 
L 120.047314 110.20772 
L 121.960898 111.89342 
L 124.156 113.761567 
L 125.012459 114.454904 
L 128.06402 116.838582 
L 128.697488 117.315411 
L 131.115581 119.050919 
L 133.748428 120.869254 
L 134.167142 121.14558 
L 137.218703 123.08045 
L 139.426351 124.423097 
L 140.270264 124.914507 
L 143.321825 126.615818 
L 145.876758 127.97694 
L 146.373386 128.230716 
L 149.424947 129.71753 
L 152.476512 131.131818 
L 153.383878 131.530784 
L 155.528077 132.436608 
L 158.579641 133.656068 
L 161.631206 134.805841 
L 162.418852 135.084627 
L 164.68277 135.855698 
L 167.734335 136.827979 
L 170.7859 137.733206 
L 173.837464 138.571383 
L 174.10295 138.63847 
L 176.889029 139.316901 
L 179.940594 139.995363 
L 182.992158 140.609213 
L 186.043723 141.158444 
L 189.095287 141.643064 
L 192.146852 142.063061 
L 193.25668 142.192313 
L 195.198417 142.410516 
L 198.24998 142.691084 
L 201.301544 142.909304 
L 204.353108 143.065178 
L 207.404672 143.158702 
L 210.456236 143.189877 
L 213.5078 143.158704 
L 216.559364 143.065184 
L 219.610927 142.909316 
L 222.662491 142.691098 
L 225.714055 142.410534 
L 227.655983 142.192313 
L 228.765619 142.063086 
L 231.817183 141.643089 
L 234.868748 141.158475 
L 237.920313 140.609245 
" style="fill:none;stroke:#1f77b4;stroke-width:1.5;"/>
   </g>
   <g id="LineCollection_3">
    <path clip-path="url(#p157a1b0d02)" d="M 66.10129 10.7 
L 65.009152 14.253848 
L 64.045497 17.807695 
L 63.981239 18.081128 
L 63.226232 21.361543 
L 62.534121 24.915389 
L 61.967857 28.469235 
L 61.527421 32.023082 
L 61.212832 35.576928 
L 61.024077 39.130775 
L 60.961157 42.684622 
L 61.024077 46.238468 
L 61.212832 49.792315 
L 61.527427 53.346162 
L 61.967863 56.900008 
L 62.534133 60.453855 
L 63.226238 64.007702 
L 63.981239 67.288066 
L 64.045509 67.56155 
L 65.009165 71.115397 
L 66.101304 74.669245 
L 67.0328 77.381285 
L 67.328151 78.223092 
L 68.706275 81.77694 
L 70.084361 85.021676 
L 70.218531 85.330787 
L 71.895223 88.884635 
L 73.135922 91.319588 
L 73.718851 92.438482 
L 75.707517 95.99233 
L 76.187483 96.794722 
L 77.871157 99.546177 
L 79.239044 101.646093 
L 80.208422 103.100025 
L 82.290605 106.04455 
L 82.731861 106.653872 
L 85.342166 110.063559 
L 85.455255 110.20772 
L 88.393727 113.76148 
L 88.393801 113.761567 
L 91.445288 117.185314 
L 91.564251 117.315411 
L 94.496849 120.373294 
L 94.985174 120.869254 
L 97.54841 123.356867 
L 98.677152 124.423097 
L 100.599971 126.162139 
L 102.663081 127.97694 
L 103.651532 128.810935 
L 106.703093 131.313134 
L 106.976452 131.530784 
L 109.754654 133.656056 
L 111.679569 135.084627 
L 112.806215 135.889213 
L 115.857776 138.001401 
L 116.80835 138.63847 
L 118.909337 139.995339 
L 121.960898 141.901494 
L 122.442807 142.192313 
L 125.012459 143.68862 
L 128.06402 145.403192 
L 128.697456 145.746157 
L 131.115581 147.011036 
L 134.167142 148.547021 
L 135.724151 149.3 
" style="fill:none;stroke:#1f77b4;stroke-width:1.5;"/>
   </g>
   <g id="LineCollection_4">
    <path clip-path="url(#p157a1b0d02)" d="M 42.620312 75.885005 
L 43.320222 78.223092 
L 44.496055 81.77694 
L 45.671873 85.02172 
L 45.785964 85.330787 
L 47.21193 88.884635 
L 48.723434 92.372631 
L 48.752514 92.438482 
L 50.438145 95.99233 
L 51.774995 98.629011 
L 52.249047 99.546177 
L 54.204423 103.100025 
L 54.826556 104.166128 
L 56.30705 106.653872 
L 57.878117 109.151109 
L 58.556281 110.20772 
L 60.929678 113.715943 
L 60.961181 113.761567 
L 63.540852 117.315411 
L 63.981239 117.893886 
L 66.29405 120.869254 
L 67.0328 121.777398 
L 69.23128 124.423097 
L 70.084361 125.406027 
L 72.364698 127.97694 
L 73.135922 128.810949 
L 75.707517 131.530784 
L 76.187483 132.018512 
L 79.239044 135.049738 
L 79.274994 135.084627 
L 82.290605 137.900836 
L 83.099501 138.63847 
L 85.342166 140.609193 
L 87.188223 142.192313 
L 88.393727 143.18984 
L 91.445288 145.652591 
L 91.564236 145.746157 
L 94.496849 147.974804 
L 96.287149 149.3 
" style="fill:none;stroke:#1f77b4;stroke-width:1.5;"/>
   </g>
   <g id="LineCollection_5">
    <path clip-path="url(#p157a1b0d02)" d="M 42.620312 121.145633 
L 44.944002 124.423097 
L 45.671873 125.406041 
L 47.611206 127.97694 
L 48.723434 129.391196 
L 50.438145 131.530784 
L 51.774995 133.133473 
L 53.434114 135.084627 
L 54.826556 136.660364 
L 56.609178 138.63847 
L 57.878117 139.995363 
L 59.974168 142.192313 
L 60.929678 143.158679 
L 63.540834 145.746157 
L 63.981239 146.167774 
L 67.0328 149.02892 
L 67.328138 149.3 
" style="fill:none;stroke:#1f77b4;stroke-width:1.5;"/>
   </g>
   <g id="LineCollection_6">
    <path clip-path="url(#p157a1b0d02)" d="M 42.620312 148.547067 
L 43.320214 149.3 
" style="fill:none;stroke:#1f77b4;stroke-width:1.5;"/>
   </g>
   <g id="line2d_8">
    <path clip-path="url(#p157a1b0d02)" d="M 57.878132 113.761533 
L 88.886613 79.035656 
L 112.142763 64.906208 
L 133.914981 59.181748 
L 150.672364 52.145671 
L 161.499789 48.872151 
L 168.479426 47.67096 
L 181.557303 44.122504 
L 187.800449 43.683854 
L 190.079369 44.224669 
L 190.189369 38.332315 
L 192.927225 37.472183 
L 198.578872 38.867569 
L 205.5413 42.90354 
L 205.135243 43.1718 
L 209.756154 42.95121 
L 212.277887 36.379645 
L 211.073534 39.183568 
L 215.222291 42.492254 
L 215.33211 46.366459 
L 215.798361 48.441192 
L 214.516908 48.715727 
L 218.023704 52.046702 
L 215.098031 52.482437 
L 211.905291 48.806074 
L 209.671444 42.172292 
L 211.948452 39.369785 
L 209.573927 44.377155 
L 209.932873 40.855061 
L 206.538883 43.408058 
L 201.984249 45.449811 
L 207.504789 45.998107 
L 211.078445 43.667909 
L 207.982 40.894978 
L 206.562944 38.278761 
L 206.763918 33.911075 
L 207.795589 34.599724 
L 204.832692 35.418754 
L 204.885979 43.401452 
L 204.791791 55.170452 
L 202.509876 47.043038 
L 204.654342 44.964373 
L 209.014035 43.778934 
L 216.594708 42.205959 
L 214.444849 41.41274 
L 212.759155 46.895952 
L 212.759938 43.552225 
L 211.981113 42.371059 
L 207.800277 39.382369 
L 204.378668 34.123147 
L 209.030491 30.883711 
L 213.438213 38.60834 
L 204.148243 38.393953 
L 204.767747 37.546811 
L 204.204535 40.114237 
L 204.678857 40.312807 
L 208.374801 43.032436 
L 211.991023 43.232385 
L 213.473747 39.484235 
L 216.472954 44.866708 
L 221.597849 45.600822 
L 218.817167 36.46707 
L 214.236938 33.36327 
L 214.291846 36.906713 
L 215.261345 43.968719 
L 212.612901 48.902393 
L 216.129495 45.311772 
L 212.360238 40.697314 
L 207.96506 42.008687 
L 210.5997 34.795435 
L 213.834746 39.447321 
L 212.957683 41.433336 
L 215.111098 46.710689 
L 216.093553 40.819589 
L 214.608994 43.558932 
L 211.805353 34.868418 
L 211.879869 39.982847 
L 216.962439 37.378198 
L 220.455271 41.899249 
L 214.578458 38.882544 
L 215.531145 41.87202 
L 214.277384 45.982877 
L 220.187331 45.920725 
L 216.757786 43.204933 
L 217.604998 43.097566 
L 215.643701 46.74275 
L 217.60641 47.896647 
L 219.651154 39.281431 
L 218.906437 41.512266 
L 216.738884 37.380923 
L 213.996951 42.97556 
L 216.987558 46.587252 
L 215.988112 48.76737 
L 214.911484 46.936546 
L 215.606023 44.469097 
L 218.775003 51.40708 
L 219.415339 45.406646 
L 216.727989 46.279677 
L 210.398898 42.076573 
L 212.018402 39.267787 
L 215.636845 43.879826 
L 221.366018 42.983281 
L 224.088735 41.341943 
L 225.773657 34.51366 
L 221.591089 38.292425 
L 221.971068 38.185593 
L 219.176496 40.104442 
L 213.677879 51.397212 
L 206.875025 52.692143 
L 210.432619 49.549138 
L 210.352533 51.474187 
L 211.276952 43.59476 
L 205.324648 38.32354 
L 208.634201 40.887968 
L 206.187156 42.98693 
L 207.338627 44.665181 
L 206.277361 50.371191 
L 207.09646 48.188584 
L 204.810078 43.277369 
L 203.426675 45.821645 
L 207.990236 43.882794 
L 205.900203 43.047847 
L 207.310929 43.833721 
L 208.177662 39.342508 
L 209.424236 40.415839 
L 204.508125 38.301015 
L 208.253924 35.270479 
L 211.221774 43.24169 
L 211.123975 40.80825 
L 209.204805 37.910612 
L 213.408625 37.693265 
L 210.255398 41.327775 
L 212.370625 32.779194 
L 210.281377 43.179191 
L 214.764416 40.880768 
L 214.943382 48.744548 
L 220.57854 41.11006 
L 220.075394 39.045013 
L 210.037311 36.694041 
L 207.929998 36.622858 
L 207.19493 36.10756 
L 205.62398 32.904036 
L 207.105485 37.651191 
L 208.036683 37.688721 
L 209.806251 37.113053 
L 209.91806 39.310584 
L 213.086169 40.027618 
L 211.292949 41.225844 
L 216.426051 38.98139 
L 212.613682 41.088784 
L 207.762321 38.235905 
L 206.318341 36.060226 
L 206.223775 39.286004 
L 208.170863 38.638458 
L 204.696132 42.314754 
L 205.986731 46.100789 
L 208.225567 39.369714 
L 213.685146 36.924472 
L 213.576662 40.934378 
L 217.377 44.963207 
L 212.106218 39.204861 
L 210.118929 35.87026 
L 213.08657 38.402119 
L 214.606114 35.296119 
L 211.537846 39.528457 
L 212.461636 38.371246 
L 211.280407 38.218466 
L 213.27479 41.481651 
L 213.295959 44.410565 
L 208.936623 36.369041 
L 211.030113 39.436495 
L 213.255186 39.691696 
L 210.116202 37.927501 
L 208.607292 41.163899 
L 213.117921 46.323727 
L 205.913946 42.314728 
L 208.303021 47.289485 
L 205.541166 40.371441 
L 204.452779 41.626453 
L 205.35238 37.348606 
L 203.814581 42.548813 
L 207.045571 43.047959 
L 204.710519 39.993349 
L 203.585017 40.184363 
L 208.925487 40.775585 
L 209.282804 41.488715 
L 205.566749 47.334548 
L 207.237092 37.21723 
L 204.249736 35.49519 
L 206.080788 42.728929 
L 202.366225 45.324511 
L 202.699968 46.016615 
L 206.574902 42.859363 
L 204.852044 43.665862 
L 209.423813 45.276903 
L 215.76377 48.473104 
L 212.773883 45.829996 
L 210.210576 51.34083 
L 210.800516 51.091495 
L 212.556862 45.040177 
L 209.340685 40.06922 
L 209.814014 40.400835 
L 207.593241 43.958542 
L 206.214223 39.308869 
L 205.452234 38.214923 
L 206.125922 41.707562 
L 201.241025 45.084682 
L 204.673496 43.999864 
L 205.563482 42.260333 
L 205.257408 46.878535 
L 206.500445 46.061602 
L 207.601627 46.283233 
L 215.861286 43.491246 
L 215.672924 42.00357 
L 213.703904 47.138964 
L 217.358015 41.615135 
L 213.485575 44.666045 
L 212.29495 44.814278 
L 210.867688 50.93247 
L 206.606601 43.218167 
L 208.95678 45.07124 
L 207.7709 38.660272 
L 210.150494 37.397701 
L 208.699804 40.969533 
L 207.78916 41.572588 
L 209.621907 44.463208 
L 212.546273 47.744896 
L 214.525474 43.258073 
L 213.019331 43.373635 
L 211.591699 42.20663 
L 210.7515 44.932711 
L 209.39314 47.129658 
L 214.262368 48.190286 
L 212.821077 48.000915 
L 211.858753 42.818229 
L 213.639973 36.035586 
L 206.784586 43.476816 
L 209.231913 41.672597 
L 211.720973 38.830682 
L 207.832421 42.088857 
L 214.608028 39.962741 
L 210.560721 37.980771 
L 209.666378 39.863832 
L 209.508513 37.049121 
L 210.717995 35.337351 
L 212.017461 42.619142 
L 214.01673 44.75961 
L 211.395246 47.492016 
L 209.275856 45.534931 
L 206.059701 51.788698 
L 202.649908 43.169803 
L 206.140334 43.898319 
L 209.817713 40.944576 
L 219.654625 41.96091 
L 212.832518 37.904086 
L 209.187601 49.415371 
L 208.126896 43.426549 
L 208.097053 38.843504 
L 203.695246 40.068262 
L 203.343085 37.936652 
L 210.045227 41.012179 
L 208.515581 43.828095 
L 208.308531 45.644692 
L 204.145077 40.014096 
L 208.703492 32.785478 
L 206.21869 33.245055 
L 206.693165 36.2393 
L 207.200641 28.923592 
L 208.93399 33.365975 
L 213.935729 41.856282 
L 214.229152 45.403067 
L 217.529965 44.635292 
L 219.344799 45.912217 
L 217.061593 42.879837 
L 214.859224 43.273469 
L 215.013868 44.862134 
L 212.672278 42.125539 
L 204.832948 40.287076 
L 205.719977 41.178673 
L 204.553311 35.828648 
L 208.595843 44.128126 
L 210.979063 42.583028 
L 209.861099 41.324355 
L 211.911216 38.715121 
L 209.604546 42.136352 
L 212.124546 40.269978 
L 212.569679 47.988933 
L 211.092147 42.499896 
L 205.188805 39.885815 
L 202.012344 44.457916 
L 204.227321 44.935895 
L 206.040884 46.916651 
L 207.188756 43.305356 
L 208.783435 44.773027 
L 203.078152 46.05063 
L 197.144443 38.514641 
L 199.240154 38.62049 
L 205.08898 36.984164 
L 200.189286 34.350254 
L 202.010128 36.554921 
L 204.202181 38.778297 
L 205.805518 36.513749 
L 209.909561 43.284678 
L 206.893549 43.867165 
L 205.890417 38.844677 
L 203.313029 49.353869 
L 209.150746 42.714189 
L 206.800845 38.043571 
L 210.391812 33.607962 
L 213.696278 36.562453 
L 216.845295 36.963106 
L 216.032143 36.201367 
L 213.375127 38.180761 
L 210.910493 38.982358 
L 209.621901 40.230251 
L 208.503748 42.4603 
L 211.770053 48.563066 
L 207.578881 40.838514 
L 205.305972 44.73639 
L 206.14571 41.553672 
L 212.054471 40.122235 
L 215.155069 43.262861 
L 214.281111 41.875387 
L 215.354406 44.825835 
L 210.126971 49.270712 
L 213.071598 52.362971 
L 209.556936 55.211273 
L 208.739181 43.515034 
L 207.704095 46.580099 
L 208.900451 43.288878 
L 210.469376 49.878324 
L 211.551213 44.58112 
L 214.01416 49.604281 
L 215.156757 48.384709 
L 213.455009 47.943194 
L 211.46559 43.714919 
L 209.339679 44.431292 
L 212.886155 43.076717 
L 216.732023 44.227394 
L 211.861747 48.820725 
L 213.870607 44.208639 
L 211.811908 41.002052 
L 210.062997 43.919262 
L 206.596014 41.194946 
L 209.10964 40.175105 
L 211.371827 43.209214 
L 211.450172 44.45759 
L 210.575727 43.936755 
L 210.672316 42.449835 
L 212.248838 45.888459 
L 210.035886 49.468918 
L 209.72572 49.104618 
L 216.355163 49.765286 
L 221.359392 54.981142 
L 220.79069 55.305429 
L 215.706632 51.265219 
L 211.119055 43.252074 
L 212.254558 50.274402 
L 209.031501 51.157067 
L 210.808262 43.097009 
L 205.320376 46.727164 
L 205.512564 46.330802 
L 205.451373 49.346374 
L 202.169802 45.289635 
L 200.525438 49.640713 
L 194.941937 39.485123 
L 198.292821 40.047492 
L 203.456431 39.251296 
L 207.832775 35.929832 
L 215.421307 40.515116 
L 212.20939 45.368945 
L 210.781119 48.091707 
L 218.858438 45.096323 
L 215.819267 39.610287 
L 213.125054 42.974106 
L 208.738218 40.026622 
L 206.644026 39.304987 
L 208.311504 41.218238 
L 204.156519 47.221562 
L 203.937317 39.412453 
L 205.026591 44.771033 
L 205.753214 39.702931 
L 209.673016 42.680463 
L 208.892708 39.407977 
L 206.666723 44.524269 
L 207.068433 44.588691 
L 214.150944 45.915685 
L 216.889896 44.124212 
L 215.009289 45.131198 
L 208.616775 46.090814 
L 208.817914 43.955972 
L 209.065526 47.246288 
L 203.972871 47.250018 
L 202.613599 46.848974 
L 205.011492 44.233235 
L 209.137389 36.420171 
L 216.546864 39.399243 
L 215.575654 35.688898 
L 218.464843 42.27582 
L 213.603077 40.983707 
L 213.902034 45.710548 
L 217.096997 40.153367 
L 217.403621 38.926944 
L 209.344351 37.029644 
L 213.960751 43.825982 
L 211.376428 38.069931 
L 213.684488 35.767685 
L 217.214083 41.125624 
L 215.469308 39.784079 
L 207.413301 38.68046 
L 207.662549 32.995106 
L 212.883851 34.875473 
L 209.350618 34.700663 
L 210.431133 39.143099 
L 211.313163 36.559203 
L 218.361299 40.815178 
L 217.540492 42.548843 
L 214.943788 35.866085 
L 217.35944 38.082868 
L 212.391177 37.955863 
L 213.793064 40.645212 
L 218.263757 41.841346 
L 223.176307 42.521423 
L 217.39326 40.238367 
L 217.211076 43.294739 
L 217.129134 36.901781 
L 217.330402 41.170615 
L 216.725375 46.577968 
L 216.934814 43.349009 
L 218.938569 44.798516 
L 215.013801 47.941034 
L 215.105115 46.149981 
L 219.117566 40.797886 
L 217.610977 46.389179 
L 215.006912 40.701026 
L 213.838609 39.245681 
L 209.706026 40.547135 
L 210.053096 43.018082 
L 209.903269 37.81922 
L 210.147424 41.512709 
L 205.826247 39.473068 
L 202.181765 38.417601 
L 206.126134 41.72787 
L 211.338247 47.080747 
L 218.976878 44.61034 
L 217.369121 39.986665 
L 217.235918 35.592157 
L 215.681831 36.539512 
L 209.436044 38.175552 
L 209.163867 35.751019 
L 211.889144 43.520256 
L 208.442582 43.110993 
L 208.590423 44.912178 
L 210.427722 36.400673 
L 216.658391 37.673781 
L 217.522777 41.507412 
L 212.819719 42.153043 
L 215.729673 45.389212 
L 216.740594 46.240768 
L 213.19992 38.580931 
L 216.439476 37.847496 
L 215.274292 36.053935 
L 212.935933 30.001998 
L 207.861136 41.879205 
L 207.362401 44.853618 
L 209.05057 41.236127 
L 205.680136 38.795618 
L 208.106018 43.445594 
L 208.106297 46.207159 
L 207.145368 39.863013 
L 208.811749 42.708545 
L 210.005077 46.85282 
L 210.209019 44.293691 
L 210.997206 45.551183 
L 206.849088 46.965601 
L 208.748562 46.753027 
L 213.184641 44.072951 
L 209.244306 44.655391 
L 210.281378 45.034811 
L 207.856103 49.441104 
L 204.256176 43.116362 
L 204.13279 44.650027 
L 207.054673 39.885453 
L 203.983866 42.867757 
L 205.951368 40.089277 
L 197.58662 33.231214 
L 195.767927 35.536137 
L 197.032416 34.426278 
L 201.481833 42.871666 
L 198.935317 39.251343 
L 203.256613 42.91773 
L 203.494553 45.787988 
L 205.665902 45.346165 
L 205.846915 43.37147 
L 207.840649 43.251592 
L 207.840649 43.251592 
" style="fill:none;stroke:#ff7f0e;stroke-linecap:square;stroke-width:1.5;"/>
    <defs>
     <path d="M 0 3 
C 0.795609 3 1.55874 2.683901 2.12132 2.12132 
C 2.683901 1.55874 3 0.795609 3 0 
C 3 -0.795609 2.683901 -1.55874 2.12132 -2.12132 
C 1.55874 -2.683901 0.795609 -3 0 -3 
C -0.795609 -3 -1.55874 -2.683901 -2.12132 -2.12132 
C -2.683901 -1.55874 -3 -0.795609 -3 0 
C -3 0.795609 -2.683901 1.55874 -2.12132 2.12132 
C -1.55874 2.683901 -0.795609 3 0 3 
z
" id="m6666137a36" style="stroke:#ff7f0e;"/>
    </defs>
    <g clip-path="url(#p157a1b0d02)">
     <use style="fill:#ff7f0e;stroke:#ff7f0e;" x="57.878132" xlink:href="#m6666137a36" y="113.761533"/>
     <use style="fill:#ff7f0e;stroke:#ff7f0e;" x="88.886613" xlink:href="#m6666137a36" y="79.035656"/>
     <use style="fill:#ff7f0e;stroke:#ff7f0e;" x="112.142763" xlink:href="#m6666137a36" y="64.906208"/>
     <use style="fill:#ff7f0e;stroke:#ff7f0e;" x="133.914981" xlink:href="#m6666137a36" y="59.181748"/>
     <use style="fill:#ff7f0e;stroke:#ff7f0e;" x="150.672364" xlink:href="#m6666137a36" y="52.145671"/>
     <use style="fill:#ff7f0e;stroke:#ff7f0e;" x="161.499789" xlink:href="#m6666137a36" y="48.872151"/>
     <use style="fill:#ff7f0e;stroke:#ff7f0e;" x="168.479426" xlink:href="#m6666137a36" y="47.67096"/>
     <use style="fill:#ff7f0e;stroke:#ff7f0e;" x="181.557303" xlink:href="#m6666137a36" y="44.122504"/>
     <use style="fill:#ff7f0e;stroke:#ff7f0e;" x="187.800449" xlink:href="#m6666137a36" y="43.683854"/>
     <use style="fill:#ff7f0e;stroke:#ff7f0e;" x="190.079369" xlink:href="#m6666137a36" y="44.224669"/>
     <use style="fill:#ff7f0e;stroke:#ff7f0e;" x="190.189369" xlink:href="#m6666137a36" y="38.332315"/>
     <use style="fill:#ff7f0e;stroke:#ff7f0e;" x="192.927225" xlink:href="#m6666137a36" y="37.472183"/>
     <use style="fill:#ff7f0e;stroke:#ff7f0e;" x="198.578872" xlink:href="#m6666137a36" y="38.867569"/>
     <use style="fill:#ff7f0e;stroke:#ff7f0e;" x="205.5413" xlink:href="#m6666137a36" y="42.90354"/>
     <use style="fill:#ff7f0e;stroke:#ff7f0e;" x="205.135243" xlink:href="#m6666137a36" y="43.1718"/>
     <use style="fill:#ff7f0e;stroke:#ff7f0e;" x="209.756154" xlink:href="#m6666137a36" y="42.95121"/>
     <use style="fill:#ff7f0e;stroke:#ff7f0e;" x="212.277887" xlink:href="#m6666137a36" y="36.379645"/>
     <use style="fill:#ff7f0e;stroke:#ff7f0e;" x="211.073534" xlink:href="#m6666137a36" y="39.183568"/>
     <use style="fill:#ff7f0e;stroke:#ff7f0e;" x="215.222291" xlink:href="#m6666137a36" y="42.492254"/>
     <use style="fill:#ff7f0e;stroke:#ff7f0e;" x="215.33211" xlink:href="#m6666137a36" y="46.366459"/>
     <use style="fill:#ff7f0e;stroke:#ff7f0e;" x="215.798361" xlink:href="#m6666137a36" y="48.441192"/>
     <use style="fill:#ff7f0e;stroke:#ff7f0e;" x="214.516908" xlink:href="#m6666137a36" y="48.715727"/>
     <use style="fill:#ff7f0e;stroke:#ff7f0e;" x="218.023704" xlink:href="#m6666137a36" y="52.046702"/>
     <use style="fill:#ff7f0e;stroke:#ff7f0e;" x="215.098031" xlink:href="#m6666137a36" y="52.482437"/>
     <use style="fill:#ff7f0e;stroke:#ff7f0e;" x="211.905291" xlink:href="#m6666137a36" y="48.806074"/>
     <use style="fill:#ff7f0e;stroke:#ff7f0e;" x="209.671444" xlink:href="#m6666137a36" y="42.172292"/>
     <use style="fill:#ff7f0e;stroke:#ff7f0e;" x="211.948452" xlink:href="#m6666137a36" y="39.369785"/>
     <use style="fill:#ff7f0e;stroke:#ff7f0e;" x="209.573927" xlink:href="#m6666137a36" y="44.377155"/>
     <use style="fill:#ff7f0e;stroke:#ff7f0e;" x="209.932873" xlink:href="#m6666137a36" y="40.855061"/>
     <use style="fill:#ff7f0e;stroke:#ff7f0e;" x="206.538883" xlink:href="#m6666137a36" y="43.408058"/>
     <use style="fill:#ff7f0e;stroke:#ff7f0e;" x="201.984249" xlink:href="#m6666137a36" y="45.449811"/>
     <use style="fill:#ff7f0e;stroke:#ff7f0e;" x="207.504789" xlink:href="#m6666137a36" y="45.998107"/>
     <use style="fill:#ff7f0e;stroke:#ff7f0e;" x="211.078445" xlink:href="#m6666137a36" y="43.667909"/>
     <use style="fill:#ff7f0e;stroke:#ff7f0e;" x="207.982" xlink:href="#m6666137a36" y="40.894978"/>
     <use style="fill:#ff7f0e;stroke:#ff7f0e;" x="206.562944" xlink:href="#m6666137a36" y="38.278761"/>
     <use style="fill:#ff7f0e;stroke:#ff7f0e;" x="206.763918" xlink:href="#m6666137a36" y="33.911075"/>
     <use style="fill:#ff7f0e;stroke:#ff7f0e;" x="207.795589" xlink:href="#m6666137a36" y="34.599724"/>
     <use style="fill:#ff7f0e;stroke:#ff7f0e;" x="204.832692" xlink:href="#m6666137a36" y="35.418754"/>
     <use style="fill:#ff7f0e;stroke:#ff7f0e;" x="204.885979" xlink:href="#m6666137a36" y="43.401452"/>
     <use style="fill:#ff7f0e;stroke:#ff7f0e;" x="204.791791" xlink:href="#m6666137a36" y="55.170452"/>
     <use style="fill:#ff7f0e;stroke:#ff7f0e;" x="202.509876" xlink:href="#m6666137a36" y="47.043038"/>
     <use style="fill:#ff7f0e;stroke:#ff7f0e;" x="204.654342" xlink:href="#m6666137a36" y="44.964373"/>
     <use style="fill:#ff7f0e;stroke:#ff7f0e;" x="209.014035" xlink:href="#m6666137a36" y="43.778934"/>
     <use style="fill:#ff7f0e;stroke:#ff7f0e;" x="216.594708" xlink:href="#m6666137a36" y="42.205959"/>
     <use style="fill:#ff7f0e;stroke:#ff7f0e;" x="214.444849" xlink:href="#m6666137a36" y="41.41274"/>
     <use style="fill:#ff7f0e;stroke:#ff7f0e;" x="212.759155" xlink:href="#m6666137a36" y="46.895952"/>
     <use style="fill:#ff7f0e;stroke:#ff7f0e;" x="212.759938" xlink:href="#m6666137a36" y="43.552225"/>
     <use style="fill:#ff7f0e;stroke:#ff7f0e;" x="211.981113" xlink:href="#m6666137a36" y="42.371059"/>
     <use style="fill:#ff7f0e;stroke:#ff7f0e;" x="207.800277" xlink:href="#m6666137a36" y="39.382369"/>
     <use style="fill:#ff7f0e;stroke:#ff7f0e;" x="204.378668" xlink:href="#m6666137a36" y="34.123147"/>
     <use style="fill:#ff7f0e;stroke:#ff7f0e;" x="209.030491" xlink:href="#m6666137a36" y="30.883711"/>
     <use style="fill:#ff7f0e;stroke:#ff7f0e;" x="213.438213" xlink:href="#m6666137a36" y="38.60834"/>
     <use style="fill:#ff7f0e;stroke:#ff7f0e;" x="204.148243" xlink:href="#m6666137a36" y="38.393953"/>
     <use style="fill:#ff7f0e;stroke:#ff7f0e;" x="204.767747" xlink:href="#m6666137a36" y="37.546811"/>
     <use style="fill:#ff7f0e;stroke:#ff7f0e;" x="204.204535" xlink:href="#m6666137a36" y="40.114237"/>
     <use style="fill:#ff7f0e;stroke:#ff7f0e;" x="204.678857" xlink:href="#m6666137a36" y="40.312807"/>
     <use style="fill:#ff7f0e;stroke:#ff7f0e;" x="208.374801" xlink:href="#m6666137a36" y="43.032436"/>
     <use style="fill:#ff7f0e;stroke:#ff7f0e;" x="211.991023" xlink:href="#m6666137a36" y="43.232385"/>
     <use style="fill:#ff7f0e;stroke:#ff7f0e;" x="213.473747" xlink:href="#m6666137a36" y="39.484235"/>
     <use style="fill:#ff7f0e;stroke:#ff7f0e;" x="216.472954" xlink:href="#m6666137a36" y="44.866708"/>
     <use style="fill:#ff7f0e;stroke:#ff7f0e;" x="218.757457" xlink:href="#m6666137a36" y="45.229007"/>
     <use style="fill:#ff7f0e;stroke:#ff7f0e;" x="221.597849" xlink:href="#m6666137a36" y="45.600822"/>
     <use style="fill:#ff7f0e;stroke:#ff7f0e;" x="218.817167" xlink:href="#m6666137a36" y="36.46707"/>
     <use style="fill:#ff7f0e;stroke:#ff7f0e;" x="214.236938" xlink:href="#m6666137a36" y="33.36327"/>
     <use style="fill:#ff7f0e;stroke:#ff7f0e;" x="214.291846" xlink:href="#m6666137a36" y="36.906713"/>
     <use style="fill:#ff7f0e;stroke:#ff7f0e;" x="215.261345" xlink:href="#m6666137a36" y="43.968719"/>
     <use style="fill:#ff7f0e;stroke:#ff7f0e;" x="212.612901" xlink:href="#m6666137a36" y="48.902393"/>
     <use style="fill:#ff7f0e;stroke:#ff7f0e;" x="216.129495" xlink:href="#m6666137a36" y="45.311772"/>
     <use style="fill:#ff7f0e;stroke:#ff7f0e;" x="212.360238" xlink:href="#m6666137a36" y="40.697314"/>
     <use style="fill:#ff7f0e;stroke:#ff7f0e;" x="207.96506" xlink:href="#m6666137a36" y="42.008687"/>
     <use style="fill:#ff7f0e;stroke:#ff7f0e;" x="210.5997" xlink:href="#m6666137a36" y="34.795435"/>
     <use style="fill:#ff7f0e;stroke:#ff7f0e;" x="213.834746" xlink:href="#m6666137a36" y="39.447321"/>
     <use style="fill:#ff7f0e;stroke:#ff7f0e;" x="212.957683" xlink:href="#m6666137a36" y="41.433336"/>
     <use style="fill:#ff7f0e;stroke:#ff7f0e;" x="215.111098" xlink:href="#m6666137a36" y="46.710689"/>
     <use style="fill:#ff7f0e;stroke:#ff7f0e;" x="216.093553" xlink:href="#m6666137a36" y="40.819589"/>
     <use style="fill:#ff7f0e;stroke:#ff7f0e;" x="214.608994" xlink:href="#m6666137a36" y="43.558932"/>
     <use style="fill:#ff7f0e;stroke:#ff7f0e;" x="211.805353" xlink:href="#m6666137a36" y="34.868418"/>
     <use style="fill:#ff7f0e;stroke:#ff7f0e;" x="211.879869" xlink:href="#m6666137a36" y="39.982847"/>
     <use style="fill:#ff7f0e;stroke:#ff7f0e;" x="216.962439" xlink:href="#m6666137a36" y="37.378198"/>
     <use style="fill:#ff7f0e;stroke:#ff7f0e;" x="220.455271" xlink:href="#m6666137a36" y="41.899249"/>
     <use style="fill:#ff7f0e;stroke:#ff7f0e;" x="214.578458" xlink:href="#m6666137a36" y="38.882544"/>
     <use style="fill:#ff7f0e;stroke:#ff7f0e;" x="215.531145" xlink:href="#m6666137a36" y="41.87202"/>
     <use style="fill:#ff7f0e;stroke:#ff7f0e;" x="214.277384" xlink:href="#m6666137a36" y="45.982877"/>
     <use style="fill:#ff7f0e;stroke:#ff7f0e;" x="220.187331" xlink:href="#m6666137a36" y="45.920725"/>
     <use style="fill:#ff7f0e;stroke:#ff7f0e;" x="216.757786" xlink:href="#m6666137a36" y="43.204933"/>
     <use style="fill:#ff7f0e;stroke:#ff7f0e;" x="217.604998" xlink:href="#m6666137a36" y="43.097566"/>
     <use style="fill:#ff7f0e;stroke:#ff7f0e;" x="215.643701" xlink:href="#m6666137a36" y="46.74275"/>
     <use style="fill:#ff7f0e;stroke:#ff7f0e;" x="217.60641" xlink:href="#m6666137a36" y="47.896647"/>
     <use style="fill:#ff7f0e;stroke:#ff7f0e;" x="219.651154" xlink:href="#m6666137a36" y="39.281431"/>
     <use style="fill:#ff7f0e;stroke:#ff7f0e;" x="218.906437" xlink:href="#m6666137a36" y="41.512266"/>
     <use style="fill:#ff7f0e;stroke:#ff7f0e;" x="216.738884" xlink:href="#m6666137a36" y="37.380923"/>
     <use style="fill:#ff7f0e;stroke:#ff7f0e;" x="213.996951" xlink:href="#m6666137a36" y="42.97556"/>
     <use style="fill:#ff7f0e;stroke:#ff7f0e;" x="216.987558" xlink:href="#m6666137a36" y="46.587252"/>
     <use style="fill:#ff7f0e;stroke:#ff7f0e;" x="215.988112" xlink:href="#m6666137a36" y="48.76737"/>
     <use style="fill:#ff7f0e;stroke:#ff7f0e;" x="214.911484" xlink:href="#m6666137a36" y="46.936546"/>
     <use style="fill:#ff7f0e;stroke:#ff7f0e;" x="215.606023" xlink:href="#m6666137a36" y="44.469097"/>
     <use style="fill:#ff7f0e;stroke:#ff7f0e;" x="218.775003" xlink:href="#m6666137a36" y="51.40708"/>
     <use style="fill:#ff7f0e;stroke:#ff7f0e;" x="219.118549" xlink:href="#m6666137a36" y="48.393577"/>
     <use style="fill:#ff7f0e;stroke:#ff7f0e;" x="219.415339" xlink:href="#m6666137a36" y="45.406646"/>
     <use style="fill:#ff7f0e;stroke:#ff7f0e;" x="216.727989" xlink:href="#m6666137a36" y="46.279677"/>
     <use style="fill:#ff7f0e;stroke:#ff7f0e;" x="210.398898" xlink:href="#m6666137a36" y="42.076573"/>
     <use style="fill:#ff7f0e;stroke:#ff7f0e;" x="212.018402" xlink:href="#m6666137a36" y="39.267787"/>
     <use style="fill:#ff7f0e;stroke:#ff7f0e;" x="215.636845" xlink:href="#m6666137a36" y="43.879826"/>
     <use style="fill:#ff7f0e;stroke:#ff7f0e;" x="221.366018" xlink:href="#m6666137a36" y="42.983281"/>
     <use style="fill:#ff7f0e;stroke:#ff7f0e;" x="224.088735" xlink:href="#m6666137a36" y="41.341943"/>
     <use style="fill:#ff7f0e;stroke:#ff7f0e;" x="225.773657" xlink:href="#m6666137a36" y="34.51366"/>
     <use style="fill:#ff7f0e;stroke:#ff7f0e;" x="221.591089" xlink:href="#m6666137a36" y="38.292425"/>
     <use style="fill:#ff7f0e;stroke:#ff7f0e;" x="221.971068" xlink:href="#m6666137a36" y="38.185593"/>
     <use style="fill:#ff7f0e;stroke:#ff7f0e;" x="219.176496" xlink:href="#m6666137a36" y="40.104442"/>
     <use style="fill:#ff7f0e;stroke:#ff7f0e;" x="213.677879" xlink:href="#m6666137a36" y="51.397212"/>
     <use style="fill:#ff7f0e;stroke:#ff7f0e;" x="206.875025" xlink:href="#m6666137a36" y="52.692143"/>
     <use style="fill:#ff7f0e;stroke:#ff7f0e;" x="210.432619" xlink:href="#m6666137a36" y="49.549138"/>
     <use style="fill:#ff7f0e;stroke:#ff7f0e;" x="210.352533" xlink:href="#m6666137a36" y="51.474187"/>
     <use style="fill:#ff7f0e;stroke:#ff7f0e;" x="211.276952" xlink:href="#m6666137a36" y="43.59476"/>
     <use style="fill:#ff7f0e;stroke:#ff7f0e;" x="205.324648" xlink:href="#m6666137a36" y="38.32354"/>
     <use style="fill:#ff7f0e;stroke:#ff7f0e;" x="208.634201" xlink:href="#m6666137a36" y="40.887968"/>
     <use style="fill:#ff7f0e;stroke:#ff7f0e;" x="206.187156" xlink:href="#m6666137a36" y="42.98693"/>
     <use style="fill:#ff7f0e;stroke:#ff7f0e;" x="207.338627" xlink:href="#m6666137a36" y="44.665181"/>
     <use style="fill:#ff7f0e;stroke:#ff7f0e;" x="206.277361" xlink:href="#m6666137a36" y="50.371191"/>
     <use style="fill:#ff7f0e;stroke:#ff7f0e;" x="207.09646" xlink:href="#m6666137a36" y="48.188584"/>
     <use style="fill:#ff7f0e;stroke:#ff7f0e;" x="204.810078" xlink:href="#m6666137a36" y="43.277369"/>
     <use style="fill:#ff7f0e;stroke:#ff7f0e;" x="203.426675" xlink:href="#m6666137a36" y="45.821645"/>
     <use style="fill:#ff7f0e;stroke:#ff7f0e;" x="207.990236" xlink:href="#m6666137a36" y="43.882794"/>
     <use style="fill:#ff7f0e;stroke:#ff7f0e;" x="205.900203" xlink:href="#m6666137a36" y="43.047847"/>
     <use style="fill:#ff7f0e;stroke:#ff7f0e;" x="207.310929" xlink:href="#m6666137a36" y="43.833721"/>
     <use style="fill:#ff7f0e;stroke:#ff7f0e;" x="208.177662" xlink:href="#m6666137a36" y="39.342508"/>
     <use style="fill:#ff7f0e;stroke:#ff7f0e;" x="209.424236" xlink:href="#m6666137a36" y="40.415839"/>
     <use style="fill:#ff7f0e;stroke:#ff7f0e;" x="204.508125" xlink:href="#m6666137a36" y="38.301015"/>
     <use style="fill:#ff7f0e;stroke:#ff7f0e;" x="208.253924" xlink:href="#m6666137a36" y="35.270479"/>
     <use style="fill:#ff7f0e;stroke:#ff7f0e;" x="211.221774" xlink:href="#m6666137a36" y="43.24169"/>
     <use style="fill:#ff7f0e;stroke:#ff7f0e;" x="211.123975" xlink:href="#m6666137a36" y="40.80825"/>
     <use style="fill:#ff7f0e;stroke:#ff7f0e;" x="209.204805" xlink:href="#m6666137a36" y="37.910612"/>
     <use style="fill:#ff7f0e;stroke:#ff7f0e;" x="213.408625" xlink:href="#m6666137a36" y="37.693265"/>
     <use style="fill:#ff7f0e;stroke:#ff7f0e;" x="210.255398" xlink:href="#m6666137a36" y="41.327775"/>
     <use style="fill:#ff7f0e;stroke:#ff7f0e;" x="212.370625" xlink:href="#m6666137a36" y="32.779194"/>
     <use style="fill:#ff7f0e;stroke:#ff7f0e;" x="210.281377" xlink:href="#m6666137a36" y="43.179191"/>
     <use style="fill:#ff7f0e;stroke:#ff7f0e;" x="214.764416" xlink:href="#m6666137a36" y="40.880768"/>
     <use style="fill:#ff7f0e;stroke:#ff7f0e;" x="214.826197" xlink:href="#m6666137a36" y="43.83175"/>
     <use style="fill:#ff7f0e;stroke:#ff7f0e;" x="214.943382" xlink:href="#m6666137a36" y="48.744548"/>
     <use style="fill:#ff7f0e;stroke:#ff7f0e;" x="220.57854" xlink:href="#m6666137a36" y="41.11006"/>
     <use style="fill:#ff7f0e;stroke:#ff7f0e;" x="220.075394" xlink:href="#m6666137a36" y="39.045013"/>
     <use style="fill:#ff7f0e;stroke:#ff7f0e;" x="210.037311" xlink:href="#m6666137a36" y="36.694041"/>
     <use style="fill:#ff7f0e;stroke:#ff7f0e;" x="207.929998" xlink:href="#m6666137a36" y="36.622858"/>
     <use style="fill:#ff7f0e;stroke:#ff7f0e;" x="207.19493" xlink:href="#m6666137a36" y="36.10756"/>
     <use style="fill:#ff7f0e;stroke:#ff7f0e;" x="205.62398" xlink:href="#m6666137a36" y="32.904036"/>
     <use style="fill:#ff7f0e;stroke:#ff7f0e;" x="207.105485" xlink:href="#m6666137a36" y="37.651191"/>
     <use style="fill:#ff7f0e;stroke:#ff7f0e;" x="208.036683" xlink:href="#m6666137a36" y="37.688721"/>
     <use style="fill:#ff7f0e;stroke:#ff7f0e;" x="209.806251" xlink:href="#m6666137a36" y="37.113053"/>
     <use style="fill:#ff7f0e;stroke:#ff7f0e;" x="209.91806" xlink:href="#m6666137a36" y="39.310584"/>
     <use style="fill:#ff7f0e;stroke:#ff7f0e;" x="213.086169" xlink:href="#m6666137a36" y="40.027618"/>
     <use style="fill:#ff7f0e;stroke:#ff7f0e;" x="211.292949" xlink:href="#m6666137a36" y="41.225844"/>
     <use style="fill:#ff7f0e;stroke:#ff7f0e;" x="216.426051" xlink:href="#m6666137a36" y="38.98139"/>
     <use style="fill:#ff7f0e;stroke:#ff7f0e;" x="212.613682" xlink:href="#m6666137a36" y="41.088784"/>
     <use style="fill:#ff7f0e;stroke:#ff7f0e;" x="207.762321" xlink:href="#m6666137a36" y="38.235905"/>
     <use style="fill:#ff7f0e;stroke:#ff7f0e;" x="206.318341" xlink:href="#m6666137a36" y="36.060226"/>
     <use style="fill:#ff7f0e;stroke:#ff7f0e;" x="206.223775" xlink:href="#m6666137a36" y="39.286004"/>
     <use style="fill:#ff7f0e;stroke:#ff7f0e;" x="208.170863" xlink:href="#m6666137a36" y="38.638458"/>
     <use style="fill:#ff7f0e;stroke:#ff7f0e;" x="204.696132" xlink:href="#m6666137a36" y="42.314754"/>
     <use style="fill:#ff7f0e;stroke:#ff7f0e;" x="205.986731" xlink:href="#m6666137a36" y="46.100789"/>
     <use style="fill:#ff7f0e;stroke:#ff7f0e;" x="208.225567" xlink:href="#m6666137a36" y="39.369714"/>
     <use style="fill:#ff7f0e;stroke:#ff7f0e;" x="213.685146" xlink:href="#m6666137a36" y="36.924472"/>
     <use style="fill:#ff7f0e;stroke:#ff7f0e;" x="213.576662" xlink:href="#m6666137a36" y="40.934378"/>
     <use style="fill:#ff7f0e;stroke:#ff7f0e;" x="217.377" xlink:href="#m6666137a36" y="44.963207"/>
     <use style="fill:#ff7f0e;stroke:#ff7f0e;" x="212.106218" xlink:href="#m6666137a36" y="39.204861"/>
     <use style="fill:#ff7f0e;stroke:#ff7f0e;" x="210.118929" xlink:href="#m6666137a36" y="35.87026"/>
     <use style="fill:#ff7f0e;stroke:#ff7f0e;" x="213.08657" xlink:href="#m6666137a36" y="38.402119"/>
     <use style="fill:#ff7f0e;stroke:#ff7f0e;" x="214.606114" xlink:href="#m6666137a36" y="35.296119"/>
     <use style="fill:#ff7f0e;stroke:#ff7f0e;" x="211.537846" xlink:href="#m6666137a36" y="39.528457"/>
     <use style="fill:#ff7f0e;stroke:#ff7f0e;" x="212.461636" xlink:href="#m6666137a36" y="38.371246"/>
     <use style="fill:#ff7f0e;stroke:#ff7f0e;" x="211.280407" xlink:href="#m6666137a36" y="38.218466"/>
     <use style="fill:#ff7f0e;stroke:#ff7f0e;" x="213.27479" xlink:href="#m6666137a36" y="41.481651"/>
     <use style="fill:#ff7f0e;stroke:#ff7f0e;" x="213.295959" xlink:href="#m6666137a36" y="44.410565"/>
     <use style="fill:#ff7f0e;stroke:#ff7f0e;" x="208.936623" xlink:href="#m6666137a36" y="36.369041"/>
     <use style="fill:#ff7f0e;stroke:#ff7f0e;" x="211.030113" xlink:href="#m6666137a36" y="39.436495"/>
     <use style="fill:#ff7f0e;stroke:#ff7f0e;" x="213.255186" xlink:href="#m6666137a36" y="39.691696"/>
     <use style="fill:#ff7f0e;stroke:#ff7f0e;" x="210.116202" xlink:href="#m6666137a36" y="37.927501"/>
     <use style="fill:#ff7f0e;stroke:#ff7f0e;" x="208.607292" xlink:href="#m6666137a36" y="41.163899"/>
     <use style="fill:#ff7f0e;stroke:#ff7f0e;" x="213.117921" xlink:href="#m6666137a36" y="46.323727"/>
     <use style="fill:#ff7f0e;stroke:#ff7f0e;" x="205.913946" xlink:href="#m6666137a36" y="42.314728"/>
     <use style="fill:#ff7f0e;stroke:#ff7f0e;" x="208.303021" xlink:href="#m6666137a36" y="47.289485"/>
     <use style="fill:#ff7f0e;stroke:#ff7f0e;" x="205.541166" xlink:href="#m6666137a36" y="40.371441"/>
     <use style="fill:#ff7f0e;stroke:#ff7f0e;" x="204.452779" xlink:href="#m6666137a36" y="41.626453"/>
     <use style="fill:#ff7f0e;stroke:#ff7f0e;" x="205.35238" xlink:href="#m6666137a36" y="37.348606"/>
     <use style="fill:#ff7f0e;stroke:#ff7f0e;" x="203.814581" xlink:href="#m6666137a36" y="42.548813"/>
     <use style="fill:#ff7f0e;stroke:#ff7f0e;" x="207.045571" xlink:href="#m6666137a36" y="43.047959"/>
     <use style="fill:#ff7f0e;stroke:#ff7f0e;" x="204.710519" xlink:href="#m6666137a36" y="39.993349"/>
     <use style="fill:#ff7f0e;stroke:#ff7f0e;" x="203.585017" xlink:href="#m6666137a36" y="40.184363"/>
     <use style="fill:#ff7f0e;stroke:#ff7f0e;" x="208.925487" xlink:href="#m6666137a36" y="40.775585"/>
     <use style="fill:#ff7f0e;stroke:#ff7f0e;" x="209.282804" xlink:href="#m6666137a36" y="41.488715"/>
     <use style="fill:#ff7f0e;stroke:#ff7f0e;" x="205.566749" xlink:href="#m6666137a36" y="47.334548"/>
     <use style="fill:#ff7f0e;stroke:#ff7f0e;" x="207.237092" xlink:href="#m6666137a36" y="37.21723"/>
     <use style="fill:#ff7f0e;stroke:#ff7f0e;" x="204.249736" xlink:href="#m6666137a36" y="35.49519"/>
     <use style="fill:#ff7f0e;stroke:#ff7f0e;" x="206.080788" xlink:href="#m6666137a36" y="42.728929"/>
     <use style="fill:#ff7f0e;stroke:#ff7f0e;" x="202.366225" xlink:href="#m6666137a36" y="45.324511"/>
     <use style="fill:#ff7f0e;stroke:#ff7f0e;" x="202.699968" xlink:href="#m6666137a36" y="46.016615"/>
     <use style="fill:#ff7f0e;stroke:#ff7f0e;" x="206.574902" xlink:href="#m6666137a36" y="42.859363"/>
     <use style="fill:#ff7f0e;stroke:#ff7f0e;" x="204.852044" xlink:href="#m6666137a36" y="43.665862"/>
     <use style="fill:#ff7f0e;stroke:#ff7f0e;" x="209.423813" xlink:href="#m6666137a36" y="45.276903"/>
     <use style="fill:#ff7f0e;stroke:#ff7f0e;" x="215.76377" xlink:href="#m6666137a36" y="48.473104"/>
     <use style="fill:#ff7f0e;stroke:#ff7f0e;" x="212.773883" xlink:href="#m6666137a36" y="45.829996"/>
     <use style="fill:#ff7f0e;stroke:#ff7f0e;" x="210.210576" xlink:href="#m6666137a36" y="51.34083"/>
     <use style="fill:#ff7f0e;stroke:#ff7f0e;" x="210.800516" xlink:href="#m6666137a36" y="51.091495"/>
     <use style="fill:#ff7f0e;stroke:#ff7f0e;" x="212.556862" xlink:href="#m6666137a36" y="45.040177"/>
     <use style="fill:#ff7f0e;stroke:#ff7f0e;" x="209.340685" xlink:href="#m6666137a36" y="40.06922"/>
     <use style="fill:#ff7f0e;stroke:#ff7f0e;" x="209.814014" xlink:href="#m6666137a36" y="40.400835"/>
     <use style="fill:#ff7f0e;stroke:#ff7f0e;" x="207.593241" xlink:href="#m6666137a36" y="43.958542"/>
     <use style="fill:#ff7f0e;stroke:#ff7f0e;" x="206.214223" xlink:href="#m6666137a36" y="39.308869"/>
     <use style="fill:#ff7f0e;stroke:#ff7f0e;" x="205.452234" xlink:href="#m6666137a36" y="38.214923"/>
     <use style="fill:#ff7f0e;stroke:#ff7f0e;" x="206.125922" xlink:href="#m6666137a36" y="41.707562"/>
     <use style="fill:#ff7f0e;stroke:#ff7f0e;" x="201.241025" xlink:href="#m6666137a36" y="45.084682"/>
     <use style="fill:#ff7f0e;stroke:#ff7f0e;" x="204.673496" xlink:href="#m6666137a36" y="43.999864"/>
     <use style="fill:#ff7f0e;stroke:#ff7f0e;" x="205.563482" xlink:href="#m6666137a36" y="42.260333"/>
     <use style="fill:#ff7f0e;stroke:#ff7f0e;" x="205.257408" xlink:href="#m6666137a36" y="46.878535"/>
     <use style="fill:#ff7f0e;stroke:#ff7f0e;" x="206.500445" xlink:href="#m6666137a36" y="46.061602"/>
     <use style="fill:#ff7f0e;stroke:#ff7f0e;" x="207.601627" xlink:href="#m6666137a36" y="46.283233"/>
     <use style="fill:#ff7f0e;stroke:#ff7f0e;" x="215.861286" xlink:href="#m6666137a36" y="43.491246"/>
     <use style="fill:#ff7f0e;stroke:#ff7f0e;" x="215.672924" xlink:href="#m6666137a36" y="42.00357"/>
     <use style="fill:#ff7f0e;stroke:#ff7f0e;" x="213.703904" xlink:href="#m6666137a36" y="47.138964"/>
     <use style="fill:#ff7f0e;stroke:#ff7f0e;" x="217.358015" xlink:href="#m6666137a36" y="41.615135"/>
     <use style="fill:#ff7f0e;stroke:#ff7f0e;" x="213.485575" xlink:href="#m6666137a36" y="44.666045"/>
     <use style="fill:#ff7f0e;stroke:#ff7f0e;" x="212.29495" xlink:href="#m6666137a36" y="44.814278"/>
     <use style="fill:#ff7f0e;stroke:#ff7f0e;" x="210.867688" xlink:href="#m6666137a36" y="50.93247"/>
     <use style="fill:#ff7f0e;stroke:#ff7f0e;" x="206.606601" xlink:href="#m6666137a36" y="43.218167"/>
     <use style="fill:#ff7f0e;stroke:#ff7f0e;" x="208.95678" xlink:href="#m6666137a36" y="45.07124"/>
     <use style="fill:#ff7f0e;stroke:#ff7f0e;" x="207.7709" xlink:href="#m6666137a36" y="38.660272"/>
     <use style="fill:#ff7f0e;stroke:#ff7f0e;" x="210.150494" xlink:href="#m6666137a36" y="37.397701"/>
     <use style="fill:#ff7f0e;stroke:#ff7f0e;" x="208.699804" xlink:href="#m6666137a36" y="40.969533"/>
     <use style="fill:#ff7f0e;stroke:#ff7f0e;" x="207.78916" xlink:href="#m6666137a36" y="41.572588"/>
     <use style="fill:#ff7f0e;stroke:#ff7f0e;" x="209.621907" xlink:href="#m6666137a36" y="44.463208"/>
     <use style="fill:#ff7f0e;stroke:#ff7f0e;" x="212.546273" xlink:href="#m6666137a36" y="47.744896"/>
     <use style="fill:#ff7f0e;stroke:#ff7f0e;" x="214.525474" xlink:href="#m6666137a36" y="43.258073"/>
     <use style="fill:#ff7f0e;stroke:#ff7f0e;" x="213.019331" xlink:href="#m6666137a36" y="43.373635"/>
     <use style="fill:#ff7f0e;stroke:#ff7f0e;" x="211.591699" xlink:href="#m6666137a36" y="42.20663"/>
     <use style="fill:#ff7f0e;stroke:#ff7f0e;" x="210.7515" xlink:href="#m6666137a36" y="44.932711"/>
     <use style="fill:#ff7f0e;stroke:#ff7f0e;" x="209.39314" xlink:href="#m6666137a36" y="47.129658"/>
     <use style="fill:#ff7f0e;stroke:#ff7f0e;" x="214.262368" xlink:href="#m6666137a36" y="48.190286"/>
     <use style="fill:#ff7f0e;stroke:#ff7f0e;" x="212.821077" xlink:href="#m6666137a36" y="48.000915"/>
     <use style="fill:#ff7f0e;stroke:#ff7f0e;" x="211.858753" xlink:href="#m6666137a36" y="42.818229"/>
     <use style="fill:#ff7f0e;stroke:#ff7f0e;" x="213.639973" xlink:href="#m6666137a36" y="36.035586"/>
     <use style="fill:#ff7f0e;stroke:#ff7f0e;" x="206.784586" xlink:href="#m6666137a36" y="43.476816"/>
     <use style="fill:#ff7f0e;stroke:#ff7f0e;" x="209.231913" xlink:href="#m6666137a36" y="41.672597"/>
     <use style="fill:#ff7f0e;stroke:#ff7f0e;" x="211.720973" xlink:href="#m6666137a36" y="38.830682"/>
     <use style="fill:#ff7f0e;stroke:#ff7f0e;" x="207.832421" xlink:href="#m6666137a36" y="42.088857"/>
     <use style="fill:#ff7f0e;stroke:#ff7f0e;" x="214.608028" xlink:href="#m6666137a36" y="39.962741"/>
     <use style="fill:#ff7f0e;stroke:#ff7f0e;" x="210.560721" xlink:href="#m6666137a36" y="37.980771"/>
     <use style="fill:#ff7f0e;stroke:#ff7f0e;" x="209.666378" xlink:href="#m6666137a36" y="39.863832"/>
     <use style="fill:#ff7f0e;stroke:#ff7f0e;" x="209.508513" xlink:href="#m6666137a36" y="37.049121"/>
     <use style="fill:#ff7f0e;stroke:#ff7f0e;" x="210.717995" xlink:href="#m6666137a36" y="35.337351"/>
     <use style="fill:#ff7f0e;stroke:#ff7f0e;" x="212.017461" xlink:href="#m6666137a36" y="42.619142"/>
     <use style="fill:#ff7f0e;stroke:#ff7f0e;" x="214.01673" xlink:href="#m6666137a36" y="44.75961"/>
     <use style="fill:#ff7f0e;stroke:#ff7f0e;" x="211.395246" xlink:href="#m6666137a36" y="47.492016"/>
     <use style="fill:#ff7f0e;stroke:#ff7f0e;" x="209.275856" xlink:href="#m6666137a36" y="45.534931"/>
     <use style="fill:#ff7f0e;stroke:#ff7f0e;" x="206.059701" xlink:href="#m6666137a36" y="51.788698"/>
     <use style="fill:#ff7f0e;stroke:#ff7f0e;" x="202.649908" xlink:href="#m6666137a36" y="43.169803"/>
     <use style="fill:#ff7f0e;stroke:#ff7f0e;" x="206.140334" xlink:href="#m6666137a36" y="43.898319"/>
     <use style="fill:#ff7f0e;stroke:#ff7f0e;" x="209.817713" xlink:href="#m6666137a36" y="40.944576"/>
     <use style="fill:#ff7f0e;stroke:#ff7f0e;" x="219.654625" xlink:href="#m6666137a36" y="41.96091"/>
     <use style="fill:#ff7f0e;stroke:#ff7f0e;" x="212.832518" xlink:href="#m6666137a36" y="37.904086"/>
     <use style="fill:#ff7f0e;stroke:#ff7f0e;" x="209.187601" xlink:href="#m6666137a36" y="49.415371"/>
     <use style="fill:#ff7f0e;stroke:#ff7f0e;" x="208.126896" xlink:href="#m6666137a36" y="43.426549"/>
     <use style="fill:#ff7f0e;stroke:#ff7f0e;" x="208.097053" xlink:href="#m6666137a36" y="38.843504"/>
     <use style="fill:#ff7f0e;stroke:#ff7f0e;" x="203.695246" xlink:href="#m6666137a36" y="40.068262"/>
     <use style="fill:#ff7f0e;stroke:#ff7f0e;" x="203.343085" xlink:href="#m6666137a36" y="37.936652"/>
     <use style="fill:#ff7f0e;stroke:#ff7f0e;" x="210.045227" xlink:href="#m6666137a36" y="41.012179"/>
     <use style="fill:#ff7f0e;stroke:#ff7f0e;" x="208.515581" xlink:href="#m6666137a36" y="43.828095"/>
     <use style="fill:#ff7f0e;stroke:#ff7f0e;" x="208.308531" xlink:href="#m6666137a36" y="45.644692"/>
     <use style="fill:#ff7f0e;stroke:#ff7f0e;" x="204.145077" xlink:href="#m6666137a36" y="40.014096"/>
     <use style="fill:#ff7f0e;stroke:#ff7f0e;" x="208.703492" xlink:href="#m6666137a36" y="32.785478"/>
     <use style="fill:#ff7f0e;stroke:#ff7f0e;" x="206.21869" xlink:href="#m6666137a36" y="33.245055"/>
     <use style="fill:#ff7f0e;stroke:#ff7f0e;" x="206.693165" xlink:href="#m6666137a36" y="36.2393"/>
     <use style="fill:#ff7f0e;stroke:#ff7f0e;" x="207.200641" xlink:href="#m6666137a36" y="28.923592"/>
     <use style="fill:#ff7f0e;stroke:#ff7f0e;" x="208.93399" xlink:href="#m6666137a36" y="33.365975"/>
     <use style="fill:#ff7f0e;stroke:#ff7f0e;" x="213.935729" xlink:href="#m6666137a36" y="41.856282"/>
     <use style="fill:#ff7f0e;stroke:#ff7f0e;" x="214.229152" xlink:href="#m6666137a36" y="45.403067"/>
     <use style="fill:#ff7f0e;stroke:#ff7f0e;" x="217.529965" xlink:href="#m6666137a36" y="44.635292"/>
     <use style="fill:#ff7f0e;stroke:#ff7f0e;" x="219.344799" xlink:href="#m6666137a36" y="45.912217"/>
     <use style="fill:#ff7f0e;stroke:#ff7f0e;" x="217.061593" xlink:href="#m6666137a36" y="42.879837"/>
     <use style="fill:#ff7f0e;stroke:#ff7f0e;" x="214.859224" xlink:href="#m6666137a36" y="43.273469"/>
     <use style="fill:#ff7f0e;stroke:#ff7f0e;" x="215.013868" xlink:href="#m6666137a36" y="44.862134"/>
     <use style="fill:#ff7f0e;stroke:#ff7f0e;" x="212.672278" xlink:href="#m6666137a36" y="42.125539"/>
     <use style="fill:#ff7f0e;stroke:#ff7f0e;" x="204.832948" xlink:href="#m6666137a36" y="40.287076"/>
     <use style="fill:#ff7f0e;stroke:#ff7f0e;" x="205.719977" xlink:href="#m6666137a36" y="41.178673"/>
     <use style="fill:#ff7f0e;stroke:#ff7f0e;" x="205.520634" xlink:href="#m6666137a36" y="40.273601"/>
     <use style="fill:#ff7f0e;stroke:#ff7f0e;" x="204.553311" xlink:href="#m6666137a36" y="35.828648"/>
     <use style="fill:#ff7f0e;stroke:#ff7f0e;" x="208.595843" xlink:href="#m6666137a36" y="44.128126"/>
     <use style="fill:#ff7f0e;stroke:#ff7f0e;" x="210.979063" xlink:href="#m6666137a36" y="42.583028"/>
     <use style="fill:#ff7f0e;stroke:#ff7f0e;" x="209.861099" xlink:href="#m6666137a36" y="41.324355"/>
     <use style="fill:#ff7f0e;stroke:#ff7f0e;" x="211.911216" xlink:href="#m6666137a36" y="38.715121"/>
     <use style="fill:#ff7f0e;stroke:#ff7f0e;" x="209.604546" xlink:href="#m6666137a36" y="42.136352"/>
     <use style="fill:#ff7f0e;stroke:#ff7f0e;" x="212.124546" xlink:href="#m6666137a36" y="40.269978"/>
     <use style="fill:#ff7f0e;stroke:#ff7f0e;" x="212.569679" xlink:href="#m6666137a36" y="47.988933"/>
     <use style="fill:#ff7f0e;stroke:#ff7f0e;" x="211.092147" xlink:href="#m6666137a36" y="42.499896"/>
     <use style="fill:#ff7f0e;stroke:#ff7f0e;" x="205.188805" xlink:href="#m6666137a36" y="39.885815"/>
     <use style="fill:#ff7f0e;stroke:#ff7f0e;" x="202.012344" xlink:href="#m6666137a36" y="44.457916"/>
     <use style="fill:#ff7f0e;stroke:#ff7f0e;" x="204.227321" xlink:href="#m6666137a36" y="44.935895"/>
     <use style="fill:#ff7f0e;stroke:#ff7f0e;" x="206.040884" xlink:href="#m6666137a36" y="46.916651"/>
     <use style="fill:#ff7f0e;stroke:#ff7f0e;" x="207.188756" xlink:href="#m6666137a36" y="43.305356"/>
     <use style="fill:#ff7f0e;stroke:#ff7f0e;" x="208.783435" xlink:href="#m6666137a36" y="44.773027"/>
     <use style="fill:#ff7f0e;stroke:#ff7f0e;" x="203.078152" xlink:href="#m6666137a36" y="46.05063"/>
     <use style="fill:#ff7f0e;stroke:#ff7f0e;" x="197.144443" xlink:href="#m6666137a36" y="38.514641"/>
     <use style="fill:#ff7f0e;stroke:#ff7f0e;" x="199.240154" xlink:href="#m6666137a36" y="38.62049"/>
     <use style="fill:#ff7f0e;stroke:#ff7f0e;" x="205.08898" xlink:href="#m6666137a36" y="36.984164"/>
     <use style="fill:#ff7f0e;stroke:#ff7f0e;" x="200.189286" xlink:href="#m6666137a36" y="34.350254"/>
     <use style="fill:#ff7f0e;stroke:#ff7f0e;" x="202.010128" xlink:href="#m6666137a36" y="36.554921"/>
     <use style="fill:#ff7f0e;stroke:#ff7f0e;" x="204.202181" xlink:href="#m6666137a36" y="38.778297"/>
     <use style="fill:#ff7f0e;stroke:#ff7f0e;" x="205.805518" xlink:href="#m6666137a36" y="36.513749"/>
     <use style="fill:#ff7f0e;stroke:#ff7f0e;" x="209.909561" xlink:href="#m6666137a36" y="43.284678"/>
     <use style="fill:#ff7f0e;stroke:#ff7f0e;" x="206.893549" xlink:href="#m6666137a36" y="43.867165"/>
     <use style="fill:#ff7f0e;stroke:#ff7f0e;" x="205.890417" xlink:href="#m6666137a36" y="38.844677"/>
     <use style="fill:#ff7f0e;stroke:#ff7f0e;" x="203.313029" xlink:href="#m6666137a36" y="49.353869"/>
     <use style="fill:#ff7f0e;stroke:#ff7f0e;" x="209.150746" xlink:href="#m6666137a36" y="42.714189"/>
     <use style="fill:#ff7f0e;stroke:#ff7f0e;" x="206.800845" xlink:href="#m6666137a36" y="38.043571"/>
     <use style="fill:#ff7f0e;stroke:#ff7f0e;" x="210.391812" xlink:href="#m6666137a36" y="33.607962"/>
     <use style="fill:#ff7f0e;stroke:#ff7f0e;" x="213.696278" xlink:href="#m6666137a36" y="36.562453"/>
     <use style="fill:#ff7f0e;stroke:#ff7f0e;" x="216.845295" xlink:href="#m6666137a36" y="36.963106"/>
     <use style="fill:#ff7f0e;stroke:#ff7f0e;" x="216.032143" xlink:href="#m6666137a36" y="36.201367"/>
     <use style="fill:#ff7f0e;stroke:#ff7f0e;" x="213.375127" xlink:href="#m6666137a36" y="38.180761"/>
     <use style="fill:#ff7f0e;stroke:#ff7f0e;" x="210.910493" xlink:href="#m6666137a36" y="38.982358"/>
     <use style="fill:#ff7f0e;stroke:#ff7f0e;" x="209.621901" xlink:href="#m6666137a36" y="40.230251"/>
     <use style="fill:#ff7f0e;stroke:#ff7f0e;" x="208.503748" xlink:href="#m6666137a36" y="42.4603"/>
     <use style="fill:#ff7f0e;stroke:#ff7f0e;" x="211.770053" xlink:href="#m6666137a36" y="48.563066"/>
     <use style="fill:#ff7f0e;stroke:#ff7f0e;" x="207.578881" xlink:href="#m6666137a36" y="40.838514"/>
     <use style="fill:#ff7f0e;stroke:#ff7f0e;" x="205.305972" xlink:href="#m6666137a36" y="44.73639"/>
     <use style="fill:#ff7f0e;stroke:#ff7f0e;" x="206.14571" xlink:href="#m6666137a36" y="41.553672"/>
     <use style="fill:#ff7f0e;stroke:#ff7f0e;" x="212.054471" xlink:href="#m6666137a36" y="40.122235"/>
     <use style="fill:#ff7f0e;stroke:#ff7f0e;" x="215.155069" xlink:href="#m6666137a36" y="43.262861"/>
     <use style="fill:#ff7f0e;stroke:#ff7f0e;" x="214.281111" xlink:href="#m6666137a36" y="41.875387"/>
     <use style="fill:#ff7f0e;stroke:#ff7f0e;" x="215.354406" xlink:href="#m6666137a36" y="44.825835"/>
     <use style="fill:#ff7f0e;stroke:#ff7f0e;" x="210.126971" xlink:href="#m6666137a36" y="49.270712"/>
     <use style="fill:#ff7f0e;stroke:#ff7f0e;" x="213.071598" xlink:href="#m6666137a36" y="52.362971"/>
     <use style="fill:#ff7f0e;stroke:#ff7f0e;" x="209.556936" xlink:href="#m6666137a36" y="55.211273"/>
     <use style="fill:#ff7f0e;stroke:#ff7f0e;" x="208.739181" xlink:href="#m6666137a36" y="43.515034"/>
     <use style="fill:#ff7f0e;stroke:#ff7f0e;" x="207.704095" xlink:href="#m6666137a36" y="46.580099"/>
     <use style="fill:#ff7f0e;stroke:#ff7f0e;" x="208.900451" xlink:href="#m6666137a36" y="43.288878"/>
     <use style="fill:#ff7f0e;stroke:#ff7f0e;" x="210.469376" xlink:href="#m6666137a36" y="49.878324"/>
     <use style="fill:#ff7f0e;stroke:#ff7f0e;" x="211.551213" xlink:href="#m6666137a36" y="44.58112"/>
     <use style="fill:#ff7f0e;stroke:#ff7f0e;" x="214.01416" xlink:href="#m6666137a36" y="49.604281"/>
     <use style="fill:#ff7f0e;stroke:#ff7f0e;" x="215.156757" xlink:href="#m6666137a36" y="48.384709"/>
     <use style="fill:#ff7f0e;stroke:#ff7f0e;" x="213.455009" xlink:href="#m6666137a36" y="47.943194"/>
     <use style="fill:#ff7f0e;stroke:#ff7f0e;" x="211.46559" xlink:href="#m6666137a36" y="43.714919"/>
     <use style="fill:#ff7f0e;stroke:#ff7f0e;" x="209.339679" xlink:href="#m6666137a36" y="44.431292"/>
     <use style="fill:#ff7f0e;stroke:#ff7f0e;" x="212.886155" xlink:href="#m6666137a36" y="43.076717"/>
     <use style="fill:#ff7f0e;stroke:#ff7f0e;" x="216.732023" xlink:href="#m6666137a36" y="44.227394"/>
     <use style="fill:#ff7f0e;stroke:#ff7f0e;" x="211.861747" xlink:href="#m6666137a36" y="48.820725"/>
     <use style="fill:#ff7f0e;stroke:#ff7f0e;" x="213.870607" xlink:href="#m6666137a36" y="44.208639"/>
     <use style="fill:#ff7f0e;stroke:#ff7f0e;" x="211.811908" xlink:href="#m6666137a36" y="41.002052"/>
     <use style="fill:#ff7f0e;stroke:#ff7f0e;" x="210.062997" xlink:href="#m6666137a36" y="43.919262"/>
     <use style="fill:#ff7f0e;stroke:#ff7f0e;" x="206.596014" xlink:href="#m6666137a36" y="41.194946"/>
     <use style="fill:#ff7f0e;stroke:#ff7f0e;" x="209.10964" xlink:href="#m6666137a36" y="40.175105"/>
     <use style="fill:#ff7f0e;stroke:#ff7f0e;" x="211.371827" xlink:href="#m6666137a36" y="43.209214"/>
     <use style="fill:#ff7f0e;stroke:#ff7f0e;" x="211.450172" xlink:href="#m6666137a36" y="44.45759"/>
     <use style="fill:#ff7f0e;stroke:#ff7f0e;" x="210.575727" xlink:href="#m6666137a36" y="43.936755"/>
     <use style="fill:#ff7f0e;stroke:#ff7f0e;" x="210.672316" xlink:href="#m6666137a36" y="42.449835"/>
     <use style="fill:#ff7f0e;stroke:#ff7f0e;" x="212.248838" xlink:href="#m6666137a36" y="45.888459"/>
     <use style="fill:#ff7f0e;stroke:#ff7f0e;" x="210.035886" xlink:href="#m6666137a36" y="49.468918"/>
     <use style="fill:#ff7f0e;stroke:#ff7f0e;" x="209.72572" xlink:href="#m6666137a36" y="49.104618"/>
     <use style="fill:#ff7f0e;stroke:#ff7f0e;" x="216.355163" xlink:href="#m6666137a36" y="49.765286"/>
     <use style="fill:#ff7f0e;stroke:#ff7f0e;" x="221.359392" xlink:href="#m6666137a36" y="54.981142"/>
     <use style="fill:#ff7f0e;stroke:#ff7f0e;" x="220.79069" xlink:href="#m6666137a36" y="55.305429"/>
     <use style="fill:#ff7f0e;stroke:#ff7f0e;" x="215.706632" xlink:href="#m6666137a36" y="51.265219"/>
     <use style="fill:#ff7f0e;stroke:#ff7f0e;" x="212.9189" xlink:href="#m6666137a36" y="46.28153"/>
     <use style="fill:#ff7f0e;stroke:#ff7f0e;" x="211.119055" xlink:href="#m6666137a36" y="43.252074"/>
     <use style="fill:#ff7f0e;stroke:#ff7f0e;" x="212.254558" xlink:href="#m6666137a36" y="50.274402"/>
     <use style="fill:#ff7f0e;stroke:#ff7f0e;" x="209.031501" xlink:href="#m6666137a36" y="51.157067"/>
     <use style="fill:#ff7f0e;stroke:#ff7f0e;" x="210.808262" xlink:href="#m6666137a36" y="43.097009"/>
     <use style="fill:#ff7f0e;stroke:#ff7f0e;" x="205.320376" xlink:href="#m6666137a36" y="46.727164"/>
     <use style="fill:#ff7f0e;stroke:#ff7f0e;" x="205.512564" xlink:href="#m6666137a36" y="46.330802"/>
     <use style="fill:#ff7f0e;stroke:#ff7f0e;" x="205.451373" xlink:href="#m6666137a36" y="49.346374"/>
     <use style="fill:#ff7f0e;stroke:#ff7f0e;" x="202.169802" xlink:href="#m6666137a36" y="45.289635"/>
     <use style="fill:#ff7f0e;stroke:#ff7f0e;" x="200.525438" xlink:href="#m6666137a36" y="49.640713"/>
     <use style="fill:#ff7f0e;stroke:#ff7f0e;" x="194.941937" xlink:href="#m6666137a36" y="39.485123"/>
     <use style="fill:#ff7f0e;stroke:#ff7f0e;" x="198.292821" xlink:href="#m6666137a36" y="40.047492"/>
     <use style="fill:#ff7f0e;stroke:#ff7f0e;" x="203.456431" xlink:href="#m6666137a36" y="39.251296"/>
     <use style="fill:#ff7f0e;stroke:#ff7f0e;" x="207.832775" xlink:href="#m6666137a36" y="35.929832"/>
     <use style="fill:#ff7f0e;stroke:#ff7f0e;" x="215.421307" xlink:href="#m6666137a36" y="40.515116"/>
     <use style="fill:#ff7f0e;stroke:#ff7f0e;" x="212.20939" xlink:href="#m6666137a36" y="45.368945"/>
     <use style="fill:#ff7f0e;stroke:#ff7f0e;" x="210.781119" xlink:href="#m6666137a36" y="48.091707"/>
     <use style="fill:#ff7f0e;stroke:#ff7f0e;" x="218.858438" xlink:href="#m6666137a36" y="45.096323"/>
     <use style="fill:#ff7f0e;stroke:#ff7f0e;" x="215.819267" xlink:href="#m6666137a36" y="39.610287"/>
     <use style="fill:#ff7f0e;stroke:#ff7f0e;" x="213.125054" xlink:href="#m6666137a36" y="42.974106"/>
     <use style="fill:#ff7f0e;stroke:#ff7f0e;" x="208.738218" xlink:href="#m6666137a36" y="40.026622"/>
     <use style="fill:#ff7f0e;stroke:#ff7f0e;" x="206.644026" xlink:href="#m6666137a36" y="39.304987"/>
     <use style="fill:#ff7f0e;stroke:#ff7f0e;" x="208.311504" xlink:href="#m6666137a36" y="41.218238"/>
     <use style="fill:#ff7f0e;stroke:#ff7f0e;" x="204.156519" xlink:href="#m6666137a36" y="47.221562"/>
     <use style="fill:#ff7f0e;stroke:#ff7f0e;" x="203.937317" xlink:href="#m6666137a36" y="39.412453"/>
     <use style="fill:#ff7f0e;stroke:#ff7f0e;" x="205.026591" xlink:href="#m6666137a36" y="44.771033"/>
     <use style="fill:#ff7f0e;stroke:#ff7f0e;" x="205.753214" xlink:href="#m6666137a36" y="39.702931"/>
     <use style="fill:#ff7f0e;stroke:#ff7f0e;" x="209.673016" xlink:href="#m6666137a36" y="42.680463"/>
     <use style="fill:#ff7f0e;stroke:#ff7f0e;" x="208.892708" xlink:href="#m6666137a36" y="39.407977"/>
     <use style="fill:#ff7f0e;stroke:#ff7f0e;" x="206.666723" xlink:href="#m6666137a36" y="44.524269"/>
     <use style="fill:#ff7f0e;stroke:#ff7f0e;" x="207.068433" xlink:href="#m6666137a36" y="44.588691"/>
     <use style="fill:#ff7f0e;stroke:#ff7f0e;" x="214.150944" xlink:href="#m6666137a36" y="45.915685"/>
     <use style="fill:#ff7f0e;stroke:#ff7f0e;" x="216.889896" xlink:href="#m6666137a36" y="44.124212"/>
     <use style="fill:#ff7f0e;stroke:#ff7f0e;" x="215.009289" xlink:href="#m6666137a36" y="45.131198"/>
     <use style="fill:#ff7f0e;stroke:#ff7f0e;" x="208.616775" xlink:href="#m6666137a36" y="46.090814"/>
     <use style="fill:#ff7f0e;stroke:#ff7f0e;" x="208.817914" xlink:href="#m6666137a36" y="43.955972"/>
     <use style="fill:#ff7f0e;stroke:#ff7f0e;" x="209.065526" xlink:href="#m6666137a36" y="47.246288"/>
     <use style="fill:#ff7f0e;stroke:#ff7f0e;" x="203.972871" xlink:href="#m6666137a36" y="47.250018"/>
     <use style="fill:#ff7f0e;stroke:#ff7f0e;" x="202.613599" xlink:href="#m6666137a36" y="46.848974"/>
     <use style="fill:#ff7f0e;stroke:#ff7f0e;" x="205.011492" xlink:href="#m6666137a36" y="44.233235"/>
     <use style="fill:#ff7f0e;stroke:#ff7f0e;" x="209.137389" xlink:href="#m6666137a36" y="36.420171"/>
     <use style="fill:#ff7f0e;stroke:#ff7f0e;" x="216.546864" xlink:href="#m6666137a36" y="39.399243"/>
     <use style="fill:#ff7f0e;stroke:#ff7f0e;" x="215.575654" xlink:href="#m6666137a36" y="35.688898"/>
     <use style="fill:#ff7f0e;stroke:#ff7f0e;" x="218.464843" xlink:href="#m6666137a36" y="42.27582"/>
     <use style="fill:#ff7f0e;stroke:#ff7f0e;" x="213.603077" xlink:href="#m6666137a36" y="40.983707"/>
     <use style="fill:#ff7f0e;stroke:#ff7f0e;" x="213.902034" xlink:href="#m6666137a36" y="45.710548"/>
     <use style="fill:#ff7f0e;stroke:#ff7f0e;" x="217.096997" xlink:href="#m6666137a36" y="40.153367"/>
     <use style="fill:#ff7f0e;stroke:#ff7f0e;" x="217.403621" xlink:href="#m6666137a36" y="38.926944"/>
     <use style="fill:#ff7f0e;stroke:#ff7f0e;" x="209.344351" xlink:href="#m6666137a36" y="37.029644"/>
     <use style="fill:#ff7f0e;stroke:#ff7f0e;" x="213.960751" xlink:href="#m6666137a36" y="43.825982"/>
     <use style="fill:#ff7f0e;stroke:#ff7f0e;" x="211.376428" xlink:href="#m6666137a36" y="38.069931"/>
     <use style="fill:#ff7f0e;stroke:#ff7f0e;" x="213.684488" xlink:href="#m6666137a36" y="35.767685"/>
     <use style="fill:#ff7f0e;stroke:#ff7f0e;" x="217.214083" xlink:href="#m6666137a36" y="41.125624"/>
     <use style="fill:#ff7f0e;stroke:#ff7f0e;" x="215.469308" xlink:href="#m6666137a36" y="39.784079"/>
     <use style="fill:#ff7f0e;stroke:#ff7f0e;" x="207.413301" xlink:href="#m6666137a36" y="38.68046"/>
     <use style="fill:#ff7f0e;stroke:#ff7f0e;" x="207.662549" xlink:href="#m6666137a36" y="32.995106"/>
     <use style="fill:#ff7f0e;stroke:#ff7f0e;" x="212.883851" xlink:href="#m6666137a36" y="34.875473"/>
     <use style="fill:#ff7f0e;stroke:#ff7f0e;" x="209.350618" xlink:href="#m6666137a36" y="34.700663"/>
     <use style="fill:#ff7f0e;stroke:#ff7f0e;" x="210.431133" xlink:href="#m6666137a36" y="39.143099"/>
     <use style="fill:#ff7f0e;stroke:#ff7f0e;" x="211.313163" xlink:href="#m6666137a36" y="36.559203"/>
     <use style="fill:#ff7f0e;stroke:#ff7f0e;" x="218.361299" xlink:href="#m6666137a36" y="40.815178"/>
     <use style="fill:#ff7f0e;stroke:#ff7f0e;" x="217.540492" xlink:href="#m6666137a36" y="42.548843"/>
     <use style="fill:#ff7f0e;stroke:#ff7f0e;" x="214.943788" xlink:href="#m6666137a36" y="35.866085"/>
     <use style="fill:#ff7f0e;stroke:#ff7f0e;" x="217.35944" xlink:href="#m6666137a36" y="38.082868"/>
     <use style="fill:#ff7f0e;stroke:#ff7f0e;" x="212.391177" xlink:href="#m6666137a36" y="37.955863"/>
     <use style="fill:#ff7f0e;stroke:#ff7f0e;" x="213.793064" xlink:href="#m6666137a36" y="40.645212"/>
     <use style="fill:#ff7f0e;stroke:#ff7f0e;" x="218.263757" xlink:href="#m6666137a36" y="41.841346"/>
     <use style="fill:#ff7f0e;stroke:#ff7f0e;" x="223.176307" xlink:href="#m6666137a36" y="42.521423"/>
     <use style="fill:#ff7f0e;stroke:#ff7f0e;" x="217.39326" xlink:href="#m6666137a36" y="40.238367"/>
     <use style="fill:#ff7f0e;stroke:#ff7f0e;" x="217.211076" xlink:href="#m6666137a36" y="43.294739"/>
     <use style="fill:#ff7f0e;stroke:#ff7f0e;" x="217.129134" xlink:href="#m6666137a36" y="36.901781"/>
     <use style="fill:#ff7f0e;stroke:#ff7f0e;" x="217.330402" xlink:href="#m6666137a36" y="41.170615"/>
     <use style="fill:#ff7f0e;stroke:#ff7f0e;" x="216.725375" xlink:href="#m6666137a36" y="46.577968"/>
     <use style="fill:#ff7f0e;stroke:#ff7f0e;" x="216.934814" xlink:href="#m6666137a36" y="43.349009"/>
     <use style="fill:#ff7f0e;stroke:#ff7f0e;" x="218.938569" xlink:href="#m6666137a36" y="44.798516"/>
     <use style="fill:#ff7f0e;stroke:#ff7f0e;" x="215.013801" xlink:href="#m6666137a36" y="47.941034"/>
     <use style="fill:#ff7f0e;stroke:#ff7f0e;" x="215.105115" xlink:href="#m6666137a36" y="46.149981"/>
     <use style="fill:#ff7f0e;stroke:#ff7f0e;" x="219.117566" xlink:href="#m6666137a36" y="40.797886"/>
     <use style="fill:#ff7f0e;stroke:#ff7f0e;" x="217.610977" xlink:href="#m6666137a36" y="46.389179"/>
     <use style="fill:#ff7f0e;stroke:#ff7f0e;" x="215.006912" xlink:href="#m6666137a36" y="40.701026"/>
     <use style="fill:#ff7f0e;stroke:#ff7f0e;" x="213.838609" xlink:href="#m6666137a36" y="39.245681"/>
     <use style="fill:#ff7f0e;stroke:#ff7f0e;" x="209.706026" xlink:href="#m6666137a36" y="40.547135"/>
     <use style="fill:#ff7f0e;stroke:#ff7f0e;" x="210.053096" xlink:href="#m6666137a36" y="43.018082"/>
     <use style="fill:#ff7f0e;stroke:#ff7f0e;" x="209.903269" xlink:href="#m6666137a36" y="37.81922"/>
     <use style="fill:#ff7f0e;stroke:#ff7f0e;" x="210.147424" xlink:href="#m6666137a36" y="41.512709"/>
     <use style="fill:#ff7f0e;stroke:#ff7f0e;" x="205.826247" xlink:href="#m6666137a36" y="39.473068"/>
     <use style="fill:#ff7f0e;stroke:#ff7f0e;" x="202.181765" xlink:href="#m6666137a36" y="38.417601"/>
     <use style="fill:#ff7f0e;stroke:#ff7f0e;" x="206.126134" xlink:href="#m6666137a36" y="41.72787"/>
     <use style="fill:#ff7f0e;stroke:#ff7f0e;" x="211.338247" xlink:href="#m6666137a36" y="47.080747"/>
     <use style="fill:#ff7f0e;stroke:#ff7f0e;" x="218.976878" xlink:href="#m6666137a36" y="44.61034"/>
     <use style="fill:#ff7f0e;stroke:#ff7f0e;" x="217.369121" xlink:href="#m6666137a36" y="39.986665"/>
     <use style="fill:#ff7f0e;stroke:#ff7f0e;" x="217.235918" xlink:href="#m6666137a36" y="35.592157"/>
     <use style="fill:#ff7f0e;stroke:#ff7f0e;" x="215.681831" xlink:href="#m6666137a36" y="36.539512"/>
     <use style="fill:#ff7f0e;stroke:#ff7f0e;" x="209.436044" xlink:href="#m6666137a36" y="38.175552"/>
     <use style="fill:#ff7f0e;stroke:#ff7f0e;" x="209.163867" xlink:href="#m6666137a36" y="35.751019"/>
     <use style="fill:#ff7f0e;stroke:#ff7f0e;" x="211.889144" xlink:href="#m6666137a36" y="43.520256"/>
     <use style="fill:#ff7f0e;stroke:#ff7f0e;" x="208.442582" xlink:href="#m6666137a36" y="43.110993"/>
     <use style="fill:#ff7f0e;stroke:#ff7f0e;" x="208.590423" xlink:href="#m6666137a36" y="44.912178"/>
     <use style="fill:#ff7f0e;stroke:#ff7f0e;" x="210.427722" xlink:href="#m6666137a36" y="36.400673"/>
     <use style="fill:#ff7f0e;stroke:#ff7f0e;" x="216.658391" xlink:href="#m6666137a36" y="37.673781"/>
     <use style="fill:#ff7f0e;stroke:#ff7f0e;" x="217.522777" xlink:href="#m6666137a36" y="41.507412"/>
     <use style="fill:#ff7f0e;stroke:#ff7f0e;" x="212.819719" xlink:href="#m6666137a36" y="42.153043"/>
     <use style="fill:#ff7f0e;stroke:#ff7f0e;" x="215.729673" xlink:href="#m6666137a36" y="45.389212"/>
     <use style="fill:#ff7f0e;stroke:#ff7f0e;" x="216.740594" xlink:href="#m6666137a36" y="46.240768"/>
     <use style="fill:#ff7f0e;stroke:#ff7f0e;" x="213.19992" xlink:href="#m6666137a36" y="38.580931"/>
     <use style="fill:#ff7f0e;stroke:#ff7f0e;" x="216.439476" xlink:href="#m6666137a36" y="37.847496"/>
     <use style="fill:#ff7f0e;stroke:#ff7f0e;" x="215.274292" xlink:href="#m6666137a36" y="36.053935"/>
     <use style="fill:#ff7f0e;stroke:#ff7f0e;" x="212.935933" xlink:href="#m6666137a36" y="30.001998"/>
     <use style="fill:#ff7f0e;stroke:#ff7f0e;" x="207.861136" xlink:href="#m6666137a36" y="41.879205"/>
     <use style="fill:#ff7f0e;stroke:#ff7f0e;" x="207.362401" xlink:href="#m6666137a36" y="44.853618"/>
     <use style="fill:#ff7f0e;stroke:#ff7f0e;" x="209.05057" xlink:href="#m6666137a36" y="41.236127"/>
     <use style="fill:#ff7f0e;stroke:#ff7f0e;" x="205.680136" xlink:href="#m6666137a36" y="38.795618"/>
     <use style="fill:#ff7f0e;stroke:#ff7f0e;" x="208.106018" xlink:href="#m6666137a36" y="43.445594"/>
     <use style="fill:#ff7f0e;stroke:#ff7f0e;" x="208.106297" xlink:href="#m6666137a36" y="46.207159"/>
     <use style="fill:#ff7f0e;stroke:#ff7f0e;" x="207.145368" xlink:href="#m6666137a36" y="39.863013"/>
     <use style="fill:#ff7f0e;stroke:#ff7f0e;" x="208.811749" xlink:href="#m6666137a36" y="42.708545"/>
     <use style="fill:#ff7f0e;stroke:#ff7f0e;" x="210.005077" xlink:href="#m6666137a36" y="46.85282"/>
     <use style="fill:#ff7f0e;stroke:#ff7f0e;" x="210.209019" xlink:href="#m6666137a36" y="44.293691"/>
     <use style="fill:#ff7f0e;stroke:#ff7f0e;" x="210.997206" xlink:href="#m6666137a36" y="45.551183"/>
     <use style="fill:#ff7f0e;stroke:#ff7f0e;" x="206.849088" xlink:href="#m6666137a36" y="46.965601"/>
     <use style="fill:#ff7f0e;stroke:#ff7f0e;" x="208.748562" xlink:href="#m6666137a36" y="46.753027"/>
     <use style="fill:#ff7f0e;stroke:#ff7f0e;" x="213.184641" xlink:href="#m6666137a36" y="44.072951"/>
     <use style="fill:#ff7f0e;stroke:#ff7f0e;" x="209.244306" xlink:href="#m6666137a36" y="44.655391"/>
     <use style="fill:#ff7f0e;stroke:#ff7f0e;" x="210.281378" xlink:href="#m6666137a36" y="45.034811"/>
     <use style="fill:#ff7f0e;stroke:#ff7f0e;" x="207.856103" xlink:href="#m6666137a36" y="49.441104"/>
     <use style="fill:#ff7f0e;stroke:#ff7f0e;" x="204.256176" xlink:href="#m6666137a36" y="43.116362"/>
     <use style="fill:#ff7f0e;stroke:#ff7f0e;" x="204.13279" xlink:href="#m6666137a36" y="44.650027"/>
     <use style="fill:#ff7f0e;stroke:#ff7f0e;" x="206.899219" xlink:href="#m6666137a36" y="40.019826"/>
     <use style="fill:#ff7f0e;stroke:#ff7f0e;" x="207.054673" xlink:href="#m6666137a36" y="39.885453"/>
     <use style="fill:#ff7f0e;stroke:#ff7f0e;" x="203.983866" xlink:href="#m6666137a36" y="42.867757"/>
     <use style="fill:#ff7f0e;stroke:#ff7f0e;" x="205.951368" xlink:href="#m6666137a36" y="40.089277"/>
     <use style="fill:#ff7f0e;stroke:#ff7f0e;" x="197.58662" xlink:href="#m6666137a36" y="33.231214"/>
     <use style="fill:#ff7f0e;stroke:#ff7f0e;" x="195.767927" xlink:href="#m6666137a36" y="35.536137"/>
     <use style="fill:#ff7f0e;stroke:#ff7f0e;" x="197.032416" xlink:href="#m6666137a36" y="34.426278"/>
     <use style="fill:#ff7f0e;stroke:#ff7f0e;" x="201.481833" xlink:href="#m6666137a36" y="42.871666"/>
     <use style="fill:#ff7f0e;stroke:#ff7f0e;" x="198.935317" xlink:href="#m6666137a36" y="39.251343"/>
     <use style="fill:#ff7f0e;stroke:#ff7f0e;" x="203.256613" xlink:href="#m6666137a36" y="42.91773"/>
     <use style="fill:#ff7f0e;stroke:#ff7f0e;" x="203.494553" xlink:href="#m6666137a36" y="45.787988"/>
     <use style="fill:#ff7f0e;stroke:#ff7f0e;" x="205.665902" xlink:href="#m6666137a36" y="45.346165"/>
     <use style="fill:#ff7f0e;stroke:#ff7f0e;" x="205.846915" xlink:href="#m6666137a36" y="43.37147"/>
     <use style="fill:#ff7f0e;stroke:#ff7f0e;" x="207.840649" xlink:href="#m6666137a36" y="43.251592"/>
    </g>
   </g>
   <g id="patch_3">
    <path d="M 42.620312 149.3 
L 42.620312 10.7 
" style="fill:none;stroke:#000000;stroke-linecap:square;stroke-linejoin:miter;stroke-width:0.8;"/>
   </g>
   <g id="patch_4">
    <path d="M 237.920313 149.3 
L 237.920313 10.7 
" style="fill:none;stroke:#000000;stroke-linecap:square;stroke-linejoin:miter;stroke-width:0.8;"/>
   </g>
   <g id="patch_5">
    <path d="M 42.620312 149.3 
L 237.920313 149.3 
" style="fill:none;stroke:#000000;stroke-linecap:square;stroke-linejoin:miter;stroke-width:0.8;"/>
   </g>
   <g id="patch_6">
    <path d="M 42.620312 10.7 
L 237.920313 10.7 
" style="fill:none;stroke:#000000;stroke-linecap:square;stroke-linejoin:miter;stroke-width:0.8;"/>
   </g>
  </g>
 </g>
 <defs>
  <clipPath id="p157a1b0d02">
   <rect height="138.6" width="195.3" x="42.620312" y="10.7"/>
  </clipPath>
 </defs>
</svg>
