<?xml version="1.0" encoding="utf-8" standalone="no"?>
<!DOCTYPE svg PUBLIC "-//W3C//DTD SVG 1.1//EN"
  "http://www.w3.org/Graphics/SVG/1.1/DTD/svg11.dtd">
<!-- Created with matplotlib (http://matplotlib.org/) -->
<svg height="186.85625pt" version="1.1" viewBox="0 0 267.707812 186.85625" width="267.707812pt" xmlns="http://www.w3.org/2000/svg" xmlns:xlink="http://www.w3.org/1999/xlink">
 <defs>
  <style type="text/css">
*{stroke-linecap:butt;stroke-linejoin:round;}
  </style>
 </defs>
 <g id="figure_1">
  <g id="patch_1">
   <path d="M 0 186.85625 
L 267.707812 186.85625 
L 267.707812 0 
L 0 0 
z
" style="fill:#ffffff;"/>
  </g>
  <g id="axes_1">
   <g id="patch_2">
    <path d="M 61.707813 149.3 
L 257.007812 149.3 
L 257.007812 10.7 
L 61.707813 10.7 
z
" style="fill:#ffffff;"/>
   </g>
   <g id="matplotlib.axis_1">
    <g id="xtick_1">
     <g id="line2d_1">
      <defs>
       <path d="M 0 0 
L 0 3.5 
" id="m9f426807bc" style="stroke:#000000;stroke-width:0.8;"/>
      </defs>
      <g>
       <use style="stroke:#000000;stroke-width:0.8;" x="107.481271" xlink:href="#m9f426807bc" y="149.3"/>
      </g>
     </g>
     <g id="text_1">
      <!-- −4 -->
      <defs>
       <path d="M 10.59375 35.5 
L 73.1875 35.5 
L 73.1875 27.203125 
L 10.59375 27.203125 
z
" id="DejaVuSans-2212"/>
       <path d="M 37.796875 64.3125 
L 12.890625 25.390625 
L 37.796875 25.390625 
z
M 35.203125 72.90625 
L 47.609375 72.90625 
L 47.609375 25.390625 
L 58.015625 25.390625 
L 58.015625 17.1875 
L 47.609375 17.1875 
L 47.609375 0 
L 37.796875 0 
L 37.796875 17.1875 
L 4.890625 17.1875 
L 4.890625 26.703125 
z
" id="DejaVuSans-34"/>
      </defs>
      <g transform="translate(100.110177 163.898438)scale(0.1 -0.1)">
       <use xlink:href="#DejaVuSans-2212"/>
       <use x="83.789062" xlink:href="#DejaVuSans-34"/>
      </g>
     </g>
    </g>
    <g id="xtick_2">
     <g id="line2d_2">
      <g>
       <use style="stroke:#000000;stroke-width:0.8;" x="168.512549" xlink:href="#m9f426807bc" y="149.3"/>
      </g>
     </g>
     <g id="text_2">
      <!-- −2 -->
      <defs>
       <path d="M 19.1875 8.296875 
L 53.609375 8.296875 
L 53.609375 0 
L 7.328125 0 
L 7.328125 8.296875 
Q 12.9375 14.109375 22.625 23.890625 
Q 32.328125 33.6875 34.8125 36.53125 
Q 39.546875 41.84375 41.421875 45.53125 
Q 43.3125 49.21875 43.3125 52.78125 
Q 43.3125 58.59375 39.234375 62.25 
Q 35.15625 65.921875 28.609375 65.921875 
Q 23.96875 65.921875 18.8125 64.3125 
Q 13.671875 62.703125 7.8125 59.421875 
L 7.8125 69.390625 
Q 13.765625 71.78125 18.9375 73 
Q 24.125 74.21875 28.421875 74.21875 
Q 39.75 74.21875 46.484375 68.546875 
Q 53.21875 62.890625 53.21875 53.421875 
Q 53.21875 48.921875 51.53125 44.890625 
Q 49.859375 40.875 45.40625 35.40625 
Q 44.1875 33.984375 37.640625 27.21875 
Q 31.109375 20.453125 19.1875 8.296875 
z
" id="DejaVuSans-32"/>
      </defs>
      <g transform="translate(161.141455 163.898438)scale(0.1 -0.1)">
       <use xlink:href="#DejaVuSans-2212"/>
       <use x="83.789062" xlink:href="#DejaVuSans-32"/>
      </g>
     </g>
    </g>
    <g id="xtick_3">
     <g id="line2d_3">
      <g>
       <use style="stroke:#000000;stroke-width:0.8;" x="229.543827" xlink:href="#m9f426807bc" y="149.3"/>
      </g>
     </g>
     <g id="text_3">
      <!-- 0 -->
      <defs>
       <path d="M 31.78125 66.40625 
Q 24.171875 66.40625 20.328125 58.90625 
Q 16.5 51.421875 16.5 36.375 
Q 16.5 21.390625 20.328125 13.890625 
Q 24.171875 6.390625 31.78125 6.390625 
Q 39.453125 6.390625 43.28125 13.890625 
Q 47.125 21.390625 47.125 36.375 
Q 47.125 51.421875 43.28125 58.90625 
Q 39.453125 66.40625 31.78125 66.40625 
z
M 31.78125 74.21875 
Q 44.046875 74.21875 50.515625 64.515625 
Q 56.984375 54.828125 56.984375 36.375 
Q 56.984375 17.96875 50.515625 8.265625 
Q 44.046875 -1.421875 31.78125 -1.421875 
Q 19.53125 -1.421875 13.0625 8.265625 
Q 6.59375 17.96875 6.59375 36.375 
Q 6.59375 54.828125 13.0625 64.515625 
Q 19.53125 74.21875 31.78125 74.21875 
z
" id="DejaVuSans-30"/>
      </defs>
      <g transform="translate(226.362577 163.898438)scale(0.1 -0.1)">
       <use xlink:href="#DejaVuSans-30"/>
      </g>
     </g>
    </g>
    <g id="text_4">
     <!-- x1 -->
     <defs>
      <path d="M 54.890625 54.6875 
L 35.109375 28.078125 
L 55.90625 0 
L 45.3125 0 
L 29.390625 21.484375 
L 13.484375 0 
L 2.875 0 
L 24.125 28.609375 
L 4.6875 54.6875 
L 15.28125 54.6875 
L 29.78125 35.203125 
L 44.28125 54.6875 
z
" id="DejaVuSans-78"/>
      <path d="M 12.40625 8.296875 
L 28.515625 8.296875 
L 28.515625 63.921875 
L 10.984375 60.40625 
L 10.984375 69.390625 
L 28.421875 72.90625 
L 38.28125 72.90625 
L 38.28125 8.296875 
L 54.390625 8.296875 
L 54.390625 0 
L 12.40625 0 
z
" id="DejaVuSans-31"/>
     </defs>
     <g transform="translate(153.217188 177.576562)scale(0.1 -0.1)">
      <use xlink:href="#DejaVuSans-78"/>
      <use x="59.179688" xlink:href="#DejaVuSans-31"/>
     </g>
    </g>
   </g>
   <g id="matplotlib.axis_2">
    <g id="ytick_1">
     <g id="line2d_4">
      <defs>
       <path d="M 0 0 
L -3.5 0 
" id="me850c909be" style="stroke:#000000;stroke-width:0.8;"/>
      </defs>
      <g>
       <use style="stroke:#000000;stroke-width:0.8;" x="61.707813" xlink:href="#me850c909be" y="113.423469"/>
      </g>
     </g>
     <g id="text_5">
      <!-- −1000 -->
      <g transform="translate(20.878125 117.222687)scale(0.1 -0.1)">
       <use xlink:href="#DejaVuSans-2212"/>
       <use x="83.789062" xlink:href="#DejaVuSans-31"/>
       <use x="147.412109" xlink:href="#DejaVuSans-30"/>
       <use x="211.035156" xlink:href="#DejaVuSans-30"/>
       <use x="274.658203" xlink:href="#DejaVuSans-30"/>
      </g>
     </g>
    </g>
    <g id="ytick_2">
     <g id="line2d_5">
      <g>
       <use style="stroke:#000000;stroke-width:0.8;" x="61.707813" xlink:href="#me850c909be" y="69.5"/>
      </g>
     </g>
     <g id="text_6">
      <!-- 0 -->
      <g transform="translate(48.345313 73.299219)scale(0.1 -0.1)">
       <use xlink:href="#DejaVuSans-30"/>
      </g>
     </g>
    </g>
    <g id="ytick_3">
     <g id="line2d_6">
      <g>
       <use style="stroke:#000000;stroke-width:0.8;" x="61.707813" xlink:href="#me850c909be" y="25.576531"/>
      </g>
     </g>
     <g id="text_7">
      <!-- 1000 -->
      <g transform="translate(29.257812 29.37575)scale(0.1 -0.1)">
       <use xlink:href="#DejaVuSans-31"/>
       <use x="63.623047" xlink:href="#DejaVuSans-30"/>
       <use x="127.246094" xlink:href="#DejaVuSans-30"/>
       <use x="190.869141" xlink:href="#DejaVuSans-30"/>
      </g>
     </g>
    </g>
    <g id="text_8">
     <!-- x2 -->
     <g transform="translate(14.798438 86.140625)rotate(-90)scale(0.1 -0.1)">
      <use xlink:href="#DejaVuSans-78"/>
      <use x="59.179688" xlink:href="#DejaVuSans-32"/>
     </g>
    </g>
   </g>
   <g id="LineCollection_1">
    <path clip-path="url(#p6c9b94c621)" d="M 116.188321 69.460469 
L 113.584349 69.461296 
L 110.532788 69.46229 
L 107.481227 69.463311 
L 104.429666 69.464357 
L 102.995772 69.464861 
L 101.378105 69.465505 
L 98.326544 69.46675 
L 95.274983 69.468024 
L 92.394838 69.469254 
L 92.223422 69.469338 
L 89.171861 69.470875 
L 86.1203 69.472446 
L 83.839637 69.473646 
L 83.068739 69.474125 
L 80.017178 69.476062 
L 76.965617 69.478038 
L 76.965603 69.478038 
L 73.914056 69.480503 
L 71.573518 69.482431 
L 70.862495 69.483184 
L 67.810934 69.486478 
L 67.497211 69.486823 
L 64.759373 69.49104 
L 64.647378 69.491215 
L 62.967627 69.495608 
L 62.407715 69.5 
L 62.96764 69.504392 
L 64.647404 69.508785 
L 64.759373 69.50896 
L 67.497252 69.513177 
L 67.810934 69.513522 
L 70.862495 69.516816 
L 71.573574 69.517569 
L 73.914056 69.519497 
L 76.965617 69.521962 
L 76.965676 69.521962 
L 80.017178 69.523938 
L 83.068739 69.525875 
L 83.839728 69.526354 
L 86.1203 69.527554 
L 89.171861 69.529125 
L 92.223422 69.530662 
L 92.39496 69.530746 
L 95.274983 69.531976 
L 98.326544 69.53325 
L 101.378105 69.534495 
L 102.995921 69.535139 
L 104.429666 69.535643 
L 107.481227 69.536689 
L 110.532788 69.53771 
L 113.584349 69.538704 
L 116.188497 69.539531 
L 116.63591 69.539658 
L 119.687471 69.540502 
L 122.739032 69.541323 
L 125.790593 69.54212 
L 128.842154 69.542895 
L 131.893715 69.543646 
L 133.056427 69.543924 
L 134.945276 69.544331 
L 137.996837 69.544969 
L 141.048398 69.545586 
L 144.099959 69.546182 
L 147.15152 69.546758 
L 150.203081 69.547312 
L 153.254642 69.547845 
L 156.057382 69.548316 
L 156.306203 69.548354 
L 159.357764 69.548803 
L 162.409325 69.549232 
L 165.460886 69.549643 
L 168.512447 69.550035 
L 171.564012 69.550407 
L 174.615577 69.55076 
L 177.667141 69.551094 
L 180.718706 69.55141 
L 183.77027 69.551706 
L 186.821835 69.551982 
L 189.8734 69.55224 
L 192.924964 69.552479 
L 195.976529 69.552699 
L 196.122488 69.552708 
L 199.028094 69.552884 
L 202.079658 69.553051 
L 205.131223 69.5532 
L 208.182787 69.553332 
L 211.234352 69.553446 
L 214.285917 69.553543 
L 217.33748 69.553622 
L 220.389044 69.553683 
L 223.440608 69.553727 
L 226.492172 69.553754 
L 229.543736 69.553762 
L 232.5953 69.553754 
L 235.646864 69.553727 
L 238.698427 69.553683 
L 241.749991 69.553622 
L 244.801555 69.553543 
L 247.853119 69.553446 
L 250.904683 69.553332 
L 253.956248 69.5532 
L 257.007813 69.553051 
" style="fill:none;stroke:#1f77b4;stroke-width:1.5;"/>
   </g>
   <g id="LineCollection_2">
    <path clip-path="url(#p6c9b94c621)" d="M 61.707813 69.553543 
L 64.759373 69.5545 
L 67.810934 69.55544 
L 70.862495 69.556363 
L 73.351285 69.557101 
L 73.914056 69.557255 
L 76.965617 69.558077 
L 80.017178 69.558882 
L 83.068739 69.559671 
L 86.1203 69.560444 
L 89.171861 69.5612 
L 90.379256 69.561493 
L 92.223422 69.561909 
L 95.274983 69.562583 
L 98.326544 69.563242 
L 101.378105 69.563886 
L 104.429666 69.564514 
L 107.481227 69.565128 
L 110.532788 69.565726 
L 111.365292 69.565885 
L 113.584349 69.566282 
L 116.63591 69.566813 
L 119.687471 69.56733 
L 122.739032 69.567833 
L 125.790593 69.568322 
L 128.842154 69.568797 
L 131.893715 69.569257 
L 134.945276 69.569704 
L 137.996837 69.570136 
L 139.031633 69.570278 
L 141.048398 69.570537 
L 144.099959 69.570916 
L 147.15152 69.571282 
L 150.203081 69.571635 
L 153.254642 69.571975 
L 156.306203 69.572301 
L 159.357764 69.572613 
L 162.409325 69.572913 
L 165.460886 69.573199 
L 168.512447 69.573472 
L 171.564012 69.573732 
L 174.615577 69.573978 
L 177.667141 69.574211 
L 180.718706 69.57443 
L 183.77027 69.574637 
L 184.29712 69.57467 
L 186.821835 69.57482 
L 189.8734 69.57499 
L 192.924964 69.575147 
L 195.976529 69.575291 
L 199.028094 69.575423 
L 202.079658 69.575542 
L 205.131223 69.575649 
L 208.182787 69.575743 
L 211.234352 69.575824 
L 214.285917 69.575893 
L 217.33748 69.57595 
L 220.389044 69.575994 
L 223.440608 69.576025 
L 226.492172 69.576044 
L 229.543736 69.57605 
L 232.5953 69.576044 
L 235.646864 69.576025 
L 238.698427 69.575994 
L 241.749991 69.57595 
L 244.801555 69.575893 
L 247.853119 69.575824 
L 250.904683 69.575743 
L 253.956248 69.575649 
L 257.007813 69.575542 
" style="fill:none;stroke:#1f77b4;stroke-width:1.5;"/>
   </g>
   <g id="LineCollection_3">
    <path clip-path="url(#p6c9b94c621)" d="M 61.707813 69.575893 
L 64.759373 69.576577 
L 67.810934 69.577249 
L 70.862495 69.577908 
L 73.914056 69.578554 
L 76.361564 69.579062 
L 76.965617 69.579181 
L 80.017178 69.579769 
L 83.068739 69.580344 
L 86.1203 69.580908 
L 89.171861 69.58146 
L 92.223422 69.582 
L 95.274983 69.582529 
L 98.326544 69.583045 
L 100.803975 69.583455 
L 101.378105 69.583545 
L 104.429666 69.584012 
L 107.481227 69.584468 
L 110.532788 69.584913 
L 113.584349 69.585347 
L 116.63591 69.585769 
L 119.687471 69.58618 
L 122.739032 69.58658 
L 125.790593 69.586968 
L 128.842154 69.587346 
L 131.893715 69.587712 
L 133.056644 69.587847 
L 134.945276 69.588056 
L 137.996837 69.588383 
L 141.048398 69.588699 
L 144.099959 69.589004 
L 147.15152 69.589299 
L 150.203081 69.589582 
L 153.254642 69.589856 
L 156.306203 69.590118 
L 159.357764 69.59037 
L 162.409325 69.590611 
L 165.460886 69.590841 
L 168.512447 69.591061 
L 171.564012 69.59127 
L 174.615577 69.591468 
L 177.667141 69.591655 
L 180.718706 69.591832 
L 183.77027 69.591998 
L 186.821835 69.592154 
L 188.631088 69.592239 
L 189.8734 69.592295 
L 192.924964 69.592423 
L 195.976529 69.592541 
L 199.028094 69.592648 
L 202.079658 69.592745 
L 205.131223 69.592832 
L 208.182787 69.592908 
L 211.234352 69.592975 
L 214.285917 69.593031 
L 217.33748 69.593077 
L 220.389044 69.593113 
L 223.440608 69.593138 
L 226.492172 69.593154 
L 229.543736 69.593159 
L 232.5953 69.593154 
L 235.646864 69.593138 
L 238.698427 69.593113 
L 241.749991 69.593077 
L 244.801555 69.593031 
L 247.853119 69.592975 
L 250.904683 69.592908 
L 253.956248 69.592832 
L 257.007813 69.592745 
" style="fill:none;stroke:#1f77b4;stroke-width:1.5;"/>
   </g>
   <g id="LineCollection_4">
    <path clip-path="url(#p6c9b94c621)" d="M 61.707813 69.593031 
L 64.759373 69.593588 
L 67.810934 69.594134 
L 70.862495 69.59467 
L 73.914056 69.595196 
L 76.965617 69.595712 
L 80.017178 69.596218 
L 82.565636 69.596632 
L 83.068739 69.59671 
L 86.1203 69.597173 
L 89.171861 69.597627 
L 92.223422 69.598071 
L 95.274983 69.598506 
L 98.326544 69.59893 
L 101.378105 69.599345 
L 104.429666 69.59975 
L 107.481227 69.600145 
L 110.532788 69.600531 
L 113.584349 69.600907 
L 114.561169 69.601024 
L 116.63591 69.601262 
L 119.687471 69.601603 
L 122.739032 69.601935 
L 125.790593 69.602258 
L 128.842154 69.602571 
L 131.893715 69.602874 
L 134.945276 69.603169 
L 137.996837 69.603454 
L 141.048398 69.603729 
L 144.099959 69.603996 
L 147.15152 69.604253 
L 150.203081 69.6045 
L 153.254642 69.604739 
L 156.306203 69.604968 
L 159.357764 69.605187 
L 162.409325 69.605398 
L 162.693643 69.605416 
L 165.460886 69.605591 
L 168.512447 69.605775 
L 171.564012 69.60595 
L 174.615577 69.606116 
L 177.667141 69.606272 
L 180.718706 69.60642 
L 183.77027 69.606559 
L 186.821835 69.606689 
L 189.8734 69.60681 
L 192.924964 69.606922 
L 195.976529 69.607025 
L 199.028094 69.607119 
L 202.079658 69.607205 
L 205.131223 69.607281 
L 208.182787 69.607348 
L 211.234352 69.607406 
L 214.285917 69.607456 
L 217.33748 69.607496 
L 220.389044 69.607527 
L 223.440608 69.60755 
L 226.492172 69.607563 
L 229.543736 69.607568 
L 232.5953 69.607563 
L 235.646864 69.60755 
L 238.698427 69.607527 
L 241.749991 69.607496 
L 244.801555 69.607456 
L 247.853119 69.607406 
L 250.904683 69.607348 
L 253.956248 69.607281 
L 257.007813 69.607205 
" style="fill:none;stroke:#1f77b4;stroke-width:1.5;"/>
   </g>
   <g id="LineCollection_5">
    <path clip-path="url(#p6c9b94c621)" d="M 61.707813 69.607456 
L 64.759373 69.607944 
L 67.810934 69.608424 
L 70.862495 69.608894 
L 73.914056 69.609356 
L 76.965617 69.609809 
L 76.965794 69.609809 
L 80.017178 69.610235 
L 83.068739 69.610653 
L 86.1203 69.611062 
L 89.171861 69.611462 
L 92.223422 69.611854 
L 95.274983 69.612237 
L 98.326544 69.612612 
L 101.378105 69.612978 
L 104.429666 69.613335 
L 107.481227 69.613684 
L 110.532788 69.614024 
L 112.157856 69.614201 
L 113.584349 69.61435 
L 116.63591 69.614661 
L 119.687471 69.614963 
L 122.739032 69.615258 
L 125.790593 69.615544 
L 128.842154 69.615821 
L 131.893715 69.616091 
L 134.945276 69.616352 
L 137.996837 69.616604 
L 141.048398 69.616849 
L 144.099959 69.617085 
L 147.15152 69.617313 
L 150.203081 69.617533 
L 153.254642 69.617744 
L 156.306203 69.617947 
L 159.357764 69.618142 
L 162.409325 69.618328 
L 165.460886 69.618506 
L 167.02418 69.618593 
L 168.512447 69.618673 
L 171.564012 69.618829 
L 174.615577 69.618977 
L 177.667141 69.619116 
L 180.718706 69.619248 
L 183.77027 69.619372 
L 186.821835 69.619488 
L 189.8734 69.619596 
L 192.924964 69.619695 
L 195.976529 69.619787 
L 199.028094 69.619871 
L 202.079658 69.619947 
L 205.131223 69.620015 
L 208.182787 69.620075 
L 211.234352 69.620127 
L 214.285917 69.620171 
L 217.33748 69.620207 
L 220.389044 69.620235 
L 223.440608 69.620254 
L 226.492172 69.620266 
L 229.543736 69.62027 
L 232.5953 69.620266 
L 235.646864 69.620254 
L 238.698427 69.620235 
L 241.749991 69.620207 
L 244.801555 69.620171 
L 247.853119 69.620127 
L 250.904683 69.620075 
L 253.956248 69.620015 
L 257.007813 69.619947 
" style="fill:none;stroke:#1f77b4;stroke-width:1.5;"/>
   </g>
   <g id="LineCollection_6">
    <path clip-path="url(#p6c9b94c621)" d="M 61.707813 69.620171 
L 64.759373 69.620606 
L 67.810934 69.621033 
L 70.862495 69.621452 
L 73.914056 69.621864 
L 76.965617 69.622267 
L 80.017178 69.622662 
L 82.565486 69.622986 
L 83.068739 69.623047 
L 86.1203 69.623413 
L 89.171861 69.623772 
L 92.223422 69.624122 
L 95.274983 69.624465 
L 98.326544 69.6248 
L 101.378105 69.625128 
L 104.429666 69.625448 
L 107.481227 69.62576 
L 110.532788 69.626064 
L 113.584349 69.626361 
L 116.63591 69.62665 
L 119.687471 69.626931 
L 122.739032 69.627205 
L 124.729317 69.627378 
L 125.790593 69.627467 
L 128.842154 69.627717 
L 131.893715 69.627959 
L 134.945276 69.628193 
L 137.996837 69.62842 
L 141.048398 69.62864 
L 144.099959 69.628852 
L 147.15152 69.629057 
L 150.203081 69.629254 
L 153.254642 69.629444 
L 156.306203 69.629626 
L 159.357764 69.629801 
L 162.409325 69.629969 
L 165.460886 69.630129 
L 168.512447 69.630281 
L 171.564012 69.630427 
L 174.615577 69.630564 
L 177.667141 69.630695 
L 180.718706 69.630817 
L 183.77027 69.630933 
L 186.821835 69.631041 
L 189.8734 69.631141 
L 192.924964 69.631234 
L 195.976529 69.63132 
L 199.028094 69.631398 
L 202.079658 69.631469 
L 205.131223 69.631532 
L 208.182787 69.631588 
L 211.234352 69.631636 
L 214.285917 69.631677 
L 217.33748 69.631711 
L 220.389044 69.631737 
L 223.440608 69.631756 
L 226.492172 69.631767 
L 229.543736 69.63177 
" style="fill:none;stroke:#1f77b4;stroke-width:1.5;"/>
    <path clip-path="url(#p6c9b94c621)" d="M 229.543736 69.63177 
L 232.5953 69.631767 
L 235.646864 69.631756 
L 238.698427 69.631737 
L 241.749991 69.631711 
L 244.801555 69.631677 
L 247.853119 69.631636 
L 250.904683 69.631588 
L 253.956248 69.631532 
L 257.007813 69.631469 
" style="fill:none;stroke:#1f77b4;stroke-width:1.5;"/>
   </g>
   <g id="LineCollection_7">
    <path clip-path="url(#p6c9b94c621)" d="M 61.707813 69.631677 
L 62.407706 69.63177 
" style="fill:none;stroke:#1f77b4;stroke-width:1.5;"/>
   </g>
   <g id="line2d_7">
    <path clip-path="url(#p6c9b94c621)" d="M 76.965632 69.587847 
L 95.275015 69.377014 
L 111.387273 69.67218 
L 125.566059 69.258948 
L 138.043392 69.837473 
L 149.023444 69.027538 
L 158.68589 70.161447 
L 167.188842 68.573975 
L 174.67144 70.796435 
L 181.256127 67.68499 
L 187.050651 72.041014 
L 192.149832 65.942581 
L 196.637112 74.480387 
L 200.585917 62.527459 
L 204.060867 79.261558 
L 207.118822 55.833819 
L 209.809822 88.632653 
L 212.177903 42.714286 
L 214.261814 107 
L 216.095656 17 
L 217.709436 143 
" style="fill:none;stroke:#ff7f0e;stroke-linecap:square;stroke-width:1.5;"/>
    <defs>
     <path d="M 0 3 
C 0.795609 3 1.55874 2.683901 2.12132 2.12132 
C 2.683901 1.55874 3 0.795609 3 0 
C 3 -0.795609 2.683901 -1.55874 2.12132 -2.12132 
C 1.55874 -2.683901 0.795609 -3 0 -3 
C -0.795609 -3 -1.55874 -2.683901 -2.12132 -2.12132 
C -2.683901 -1.55874 -3 -0.795609 -3 0 
C -3 0.795609 -2.683901 1.55874 -2.12132 2.12132 
C -1.55874 2.683901 -0.795609 3 0 3 
z
" id="mf17eb61a97" style="stroke:#ff7f0e;"/>
    </defs>
    <g clip-path="url(#p6c9b94c621)">
     <use style="fill:#ff7f0e;stroke:#ff7f0e;" x="76.965632" xlink:href="#mf17eb61a97" y="69.587847"/>
     <use style="fill:#ff7f0e;stroke:#ff7f0e;" x="95.275015" xlink:href="#mf17eb61a97" y="69.377014"/>
     <use style="fill:#ff7f0e;stroke:#ff7f0e;" x="111.387273" xlink:href="#mf17eb61a97" y="69.67218"/>
     <use style="fill:#ff7f0e;stroke:#ff7f0e;" x="125.566059" xlink:href="#mf17eb61a97" y="69.258948"/>
     <use style="fill:#ff7f0e;stroke:#ff7f0e;" x="138.043392" xlink:href="#mf17eb61a97" y="69.837473"/>
     <use style="fill:#ff7f0e;stroke:#ff7f0e;" x="149.023444" xlink:href="#mf17eb61a97" y="69.027538"/>
     <use style="fill:#ff7f0e;stroke:#ff7f0e;" x="158.68589" xlink:href="#mf17eb61a97" y="70.161447"/>
     <use style="fill:#ff7f0e;stroke:#ff7f0e;" x="167.188842" xlink:href="#mf17eb61a97" y="68.573975"/>
     <use style="fill:#ff7f0e;stroke:#ff7f0e;" x="174.67144" xlink:href="#mf17eb61a97" y="70.796435"/>
     <use style="fill:#ff7f0e;stroke:#ff7f0e;" x="181.256127" xlink:href="#mf17eb61a97" y="67.68499"/>
     <use style="fill:#ff7f0e;stroke:#ff7f0e;" x="187.050651" xlink:href="#mf17eb61a97" y="72.041014"/>
     <use style="fill:#ff7f0e;stroke:#ff7f0e;" x="192.149832" xlink:href="#mf17eb61a97" y="65.942581"/>
     <use style="fill:#ff7f0e;stroke:#ff7f0e;" x="196.637112" xlink:href="#mf17eb61a97" y="74.480387"/>
     <use style="fill:#ff7f0e;stroke:#ff7f0e;" x="200.585917" xlink:href="#mf17eb61a97" y="62.527459"/>
     <use style="fill:#ff7f0e;stroke:#ff7f0e;" x="204.060867" xlink:href="#mf17eb61a97" y="79.261558"/>
     <use style="fill:#ff7f0e;stroke:#ff7f0e;" x="207.118822" xlink:href="#mf17eb61a97" y="55.833819"/>
     <use style="fill:#ff7f0e;stroke:#ff7f0e;" x="209.809822" xlink:href="#mf17eb61a97" y="88.632653"/>
     <use style="fill:#ff7f0e;stroke:#ff7f0e;" x="212.177903" xlink:href="#mf17eb61a97" y="42.714286"/>
     <use style="fill:#ff7f0e;stroke:#ff7f0e;" x="214.261814" xlink:href="#mf17eb61a97" y="107"/>
     <use style="fill:#ff7f0e;stroke:#ff7f0e;" x="216.095656" xlink:href="#mf17eb61a97" y="17"/>
     <use style="fill:#ff7f0e;stroke:#ff7f0e;" x="217.709436" xlink:href="#mf17eb61a97" y="143"/>
    </g>
   </g>
   <g id="patch_3">
    <path d="M 61.707813 149.3 
L 61.707813 10.7 
" style="fill:none;stroke:#000000;stroke-linecap:square;stroke-linejoin:miter;stroke-width:0.8;"/>
   </g>
   <g id="patch_4">
    <path d="M 257.007812 149.3 
L 257.007812 10.7 
" style="fill:none;stroke:#000000;stroke-linecap:square;stroke-linejoin:miter;stroke-width:0.8;"/>
   </g>
   <g id="patch_5">
    <path d="M 61.707813 149.3 
L 257.007813 149.3 
" style="fill:none;stroke:#000000;stroke-linecap:square;stroke-linejoin:miter;stroke-width:0.8;"/>
   </g>
   <g id="patch_6">
    <path d="M 61.707813 10.7 
L 257.007813 10.7 
" style="fill:none;stroke:#000000;stroke-linecap:square;stroke-linejoin:miter;stroke-width:0.8;"/>
   </g>
  </g>
 </g>
 <defs>
  <clipPath id="p6c9b94c621">
   <rect height="138.6" width="195.3" x="61.707813" y="10.7"/>
  </clipPath>
 </defs>
</svg>
