<?xml version="1.0" encoding="utf-8" standalone="no"?>
<!DOCTYPE svg PUBLIC "-//W3C//DTD SVG 1.1//EN"
  "http://www.w3.org/Graphics/SVG/1.1/DTD/svg11.dtd">
<!-- Created with matplotlib (http://matplotlib.org/) -->
<svg height="186.85625pt" version="1.1" viewBox="0 0 248.620313 186.85625" width="248.620313pt" xmlns="http://www.w3.org/2000/svg" xmlns:xlink="http://www.w3.org/1999/xlink">
 <defs>
  <style type="text/css">
*{stroke-linecap:butt;stroke-linejoin:round;}
  </style>
 </defs>
 <g id="figure_1">
  <g id="patch_1">
   <path d="M 0 186.85625 
L 248.620313 186.85625 
L 248.620313 0 
L 0 0 
z
" style="fill:#ffffff;"/>
  </g>
  <g id="axes_1">
   <g id="patch_2">
    <path d="M 42.620312 149.3 
L 237.920313 149.3 
L 237.920313 10.7 
L 42.620312 10.7 
z
" style="fill:#ffffff;"/>
   </g>
   <g id="matplotlib.axis_1">
    <g id="xtick_1">
     <g id="line2d_1">
      <defs>
       <path d="M 0 0 
L 0 3.5 
" id="mb089cfb95f" style="stroke:#000000;stroke-width:0.8;"/>
      </defs>
      <g>
       <use style="stroke:#000000;stroke-width:0.8;" x="88.393771" xlink:href="#mb089cfb95f" y="149.3"/>
      </g>
     </g>
     <g id="text_1">
      <!-- −4 -->
      <defs>
       <path d="M 10.59375 35.5 
L 73.1875 35.5 
L 73.1875 27.203125 
L 10.59375 27.203125 
z
" id="DejaVuSans-2212"/>
       <path d="M 37.796875 64.3125 
L 12.890625 25.390625 
L 37.796875 25.390625 
z
M 35.203125 72.90625 
L 47.609375 72.90625 
L 47.609375 25.390625 
L 58.015625 25.390625 
L 58.015625 17.1875 
L 47.609375 17.1875 
L 47.609375 0 
L 37.796875 0 
L 37.796875 17.1875 
L 4.890625 17.1875 
L 4.890625 26.703125 
z
" id="DejaVuSans-34"/>
      </defs>
      <g transform="translate(81.022677 163.898438)scale(0.1 -0.1)">
       <use xlink:href="#DejaVuSans-2212"/>
       <use x="83.789062" xlink:href="#DejaVuSans-34"/>
      </g>
     </g>
    </g>
    <g id="xtick_2">
     <g id="line2d_2">
      <g>
       <use style="stroke:#000000;stroke-width:0.8;" x="149.425049" xlink:href="#mb089cfb95f" y="149.3"/>
      </g>
     </g>
     <g id="text_2">
      <!-- −2 -->
      <defs>
       <path d="M 19.1875 8.296875 
L 53.609375 8.296875 
L 53.609375 0 
L 7.328125 0 
L 7.328125 8.296875 
Q 12.9375 14.109375 22.625 23.890625 
Q 32.328125 33.6875 34.8125 36.53125 
Q 39.546875 41.84375 41.421875 45.53125 
Q 43.3125 49.21875 43.3125 52.78125 
Q 43.3125 58.59375 39.234375 62.25 
Q 35.15625 65.921875 28.609375 65.921875 
Q 23.96875 65.921875 18.8125 64.3125 
Q 13.671875 62.703125 7.8125 59.421875 
L 7.8125 69.390625 
Q 13.765625 71.78125 18.9375 73 
Q 24.125 74.21875 28.421875 74.21875 
Q 39.75 74.21875 46.484375 68.546875 
Q 53.21875 62.890625 53.21875 53.421875 
Q 53.21875 48.921875 51.53125 44.890625 
Q 49.859375 40.875 45.40625 35.40625 
Q 44.1875 33.984375 37.640625 27.21875 
Q 31.109375 20.453125 19.1875 8.296875 
z
" id="DejaVuSans-32"/>
      </defs>
      <g transform="translate(142.053955 163.898438)scale(0.1 -0.1)">
       <use xlink:href="#DejaVuSans-2212"/>
       <use x="83.789062" xlink:href="#DejaVuSans-32"/>
      </g>
     </g>
    </g>
    <g id="xtick_3">
     <g id="line2d_3">
      <g>
       <use style="stroke:#000000;stroke-width:0.8;" x="210.456327" xlink:href="#mb089cfb95f" y="149.3"/>
      </g>
     </g>
     <g id="text_3">
      <!-- 0 -->
      <defs>
       <path d="M 31.78125 66.40625 
Q 24.171875 66.40625 20.328125 58.90625 
Q 16.5 51.421875 16.5 36.375 
Q 16.5 21.390625 20.328125 13.890625 
Q 24.171875 6.390625 31.78125 6.390625 
Q 39.453125 6.390625 43.28125 13.890625 
Q 47.125 21.390625 47.125 36.375 
Q 47.125 51.421875 43.28125 58.90625 
Q 39.453125 66.40625 31.78125 66.40625 
z
M 31.78125 74.21875 
Q 44.046875 74.21875 50.515625 64.515625 
Q 56.984375 54.828125 56.984375 36.375 
Q 56.984375 17.96875 50.515625 8.265625 
Q 44.046875 -1.421875 31.78125 -1.421875 
Q 19.53125 -1.421875 13.0625 8.265625 
Q 6.59375 17.96875 6.59375 36.375 
Q 6.59375 54.828125 13.0625 64.515625 
Q 19.53125 74.21875 31.78125 74.21875 
z
" id="DejaVuSans-30"/>
      </defs>
      <g transform="translate(207.275077 163.898438)scale(0.1 -0.1)">
       <use xlink:href="#DejaVuSans-30"/>
      </g>
     </g>
    </g>
    <g id="text_4">
     <!-- x1 -->
     <defs>
      <path d="M 54.890625 54.6875 
L 35.109375 28.078125 
L 55.90625 0 
L 45.3125 0 
L 29.390625 21.484375 
L 13.484375 0 
L 2.875 0 
L 24.125 28.609375 
L 4.6875 54.6875 
L 15.28125 54.6875 
L 29.78125 35.203125 
L 44.28125 54.6875 
z
" id="DejaVuSans-78"/>
      <path d="M 12.40625 8.296875 
L 28.515625 8.296875 
L 28.515625 63.921875 
L 10.984375 60.40625 
L 10.984375 69.390625 
L 28.421875 72.90625 
L 38.28125 72.90625 
L 38.28125 8.296875 
L 54.390625 8.296875 
L 54.390625 0 
L 12.40625 0 
z
" id="DejaVuSans-31"/>
     </defs>
     <g transform="translate(134.129687 177.576562)scale(0.1 -0.1)">
      <use xlink:href="#DejaVuSans-78"/>
      <use x="59.179688" xlink:href="#DejaVuSans-31"/>
     </g>
    </g>
   </g>
   <g id="matplotlib.axis_2">
    <g id="ytick_1">
     <g id="line2d_4">
      <defs>
       <path d="M 0 0 
L -3.5 0 
" id="m47f142aa9f" style="stroke:#000000;stroke-width:0.8;"/>
      </defs>
      <g>
       <use style="stroke:#000000;stroke-width:0.8;" x="42.620312" xlink:href="#m47f142aa9f" y="126.541379"/>
      </g>
     </g>
     <g id="text_5">
      <!-- −2 -->
      <g transform="translate(20.878125 130.340598)scale(0.1 -0.1)">
       <use xlink:href="#DejaVuSans-2212"/>
       <use x="83.789062" xlink:href="#DejaVuSans-32"/>
      </g>
     </g>
    </g>
    <g id="ytick_2">
     <g id="line2d_5">
      <g>
       <use style="stroke:#000000;stroke-width:0.8;" x="42.620312" xlink:href="#m47f142aa9f" y="81.024138"/>
      </g>
     </g>
     <g id="text_6">
      <!-- 0 -->
      <g transform="translate(29.257812 84.823357)scale(0.1 -0.1)">
       <use xlink:href="#DejaVuSans-30"/>
      </g>
     </g>
    </g>
    <g id="ytick_3">
     <g id="line2d_6">
      <g>
       <use style="stroke:#000000;stroke-width:0.8;" x="42.620312" xlink:href="#m47f142aa9f" y="35.506897"/>
      </g>
     </g>
     <g id="text_7">
      <!-- 2 -->
      <g transform="translate(29.257812 39.306115)scale(0.1 -0.1)">
       <use xlink:href="#DejaVuSans-32"/>
      </g>
     </g>
    </g>
    <g id="text_8">
     <!-- x2 -->
     <g transform="translate(14.798437 86.140625)rotate(-90)scale(0.1 -0.1)">
      <use xlink:href="#DejaVuSans-78"/>
      <use x="59.179688" xlink:href="#DejaVuSans-32"/>
     </g>
    </g>
   </g>
   <g id="LineCollection_1">
    <path clip-path="url(#p4c359173c7)" d="M 97.100821 60.541392 
L 94.496849 60.969785 
L 91.445288 61.485201 
L 88.393727 62.014005 
L 85.342166 62.556195 
L 83.908272 62.817255 
L 82.290605 63.151042 
L 79.239044 63.79587 
L 76.187483 64.455871 
L 73.307338 65.093117 
L 73.135922 65.136879 
L 70.084361 65.93343 
L 67.0328 66.747489 
L 64.752137 67.36898 
L 63.981239 67.617248 
L 60.929678 68.620698 
L 57.878117 69.644837 
L 57.878103 69.644842 
L 54.826556 70.921846 
L 52.486018 71.920704 
L 51.774995 72.31084 
L 48.723434 74.017741 
L 48.409711 74.196566 
L 45.671873 76.381383 
L 45.559878 76.472428 
L 43.880127 78.74829 
L 43.320215 81.024152 
L 43.88014 83.300014 
L 45.559904 85.575876 
L 45.671873 85.666898 
L 48.409752 87.851738 
L 48.723434 88.030539 
L 51.774995 89.737434 
L 52.486074 90.1276 
L 54.826556 91.126431 
L 57.878117 92.403438 
L 57.878176 92.403462 
L 60.929678 93.427579 
L 63.981239 94.431027 
L 64.752228 94.679324 
L 67.0328 95.300789 
L 70.084361 96.114847 
L 73.135922 96.911395 
L 73.30746 96.955187 
L 76.187483 97.592407 
L 79.239044 98.252406 
L 82.290605 98.897232 
L 83.908421 99.23105 
L 85.342166 99.492082 
L 88.393727 100.034272 
L 91.445288 100.563075 
L 94.496849 101.07849 
L 97.100997 101.506912 
L 97.54841 101.572771 
L 100.599971 102.009975 
L 103.651532 102.435201 
L 106.703093 102.848448 
L 109.754654 103.249719 
L 112.806215 103.63901 
L 113.968927 103.782775 
L 115.857776 103.994082 
L 118.909337 104.324623 
L 121.960898 104.644327 
L 125.012459 104.953194 
L 128.06402 105.251223 
L 131.115581 105.538415 
L 134.167142 105.81477 
L 136.969882 106.058638 
L 137.218703 106.078405 
L 140.270264 106.310938 
L 143.321825 106.533577 
L 146.373386 106.74632 
L 149.424947 106.949169 
L 152.476512 107.142123 
L 155.528077 107.325182 
L 158.579641 107.498345 
L 161.631206 107.661614 
L 164.68277 107.814987 
L 167.734335 107.958466 
L 170.7859 108.092049 
L 173.837464 108.215738 
L 176.889029 108.329531 
L 177.034988 108.3345 
L 179.940594 108.425515 
L 182.992158 108.511998 
L 186.043723 108.589378 
L 189.095287 108.657653 
L 192.146852 108.716827 
L 195.198417 108.766895 
L 198.24998 108.807861 
L 201.301544 108.839724 
L 204.353108 108.862482 
L 207.404672 108.876137 
L 210.456236 108.88069 
L 213.5078 108.876138 
L 216.559364 108.862483 
L 219.610927 108.839725 
L 222.662491 108.807863 
L 225.714055 108.766899 
L 228.765619 108.71683 
L 231.817183 108.657658 
L 234.868748 108.589382 
L 237.920313 108.512003 
" style="fill:none;stroke:#1f77b4;stroke-width:1.5;"/>
   </g>
   <g id="LineCollection_2">
    <path clip-path="url(#p4c359173c7)" d="M 42.620312 108.766897 
L 45.671873 109.263034 
L 48.723434 109.750067 
L 51.774995 110.227998 
L 54.263785 110.610363 
L 54.826556 110.690419 
L 57.878117 111.116089 
L 60.929678 111.53333 
L 63.981239 111.942143 
L 67.0328 112.342525 
L 70.084361 112.734478 
L 71.291756 112.886225 
L 73.135922 113.102018 
L 76.187483 113.451244 
L 79.239044 113.792623 
L 82.290605 114.126154 
L 85.342166 114.451838 
L 88.393727 114.769673 
L 91.445288 115.07966 
L 92.277792 115.162088 
L 94.496849 115.367626 
L 97.54841 115.642931 
L 100.599971 115.910895 
L 103.651532 116.171518 
L 106.703093 116.424799 
L 109.754654 116.670739 
L 112.806215 116.909337 
L 115.857776 117.140595 
L 118.909337 117.36451 
L 119.944133 117.437951 
L 121.960898 117.572409 
L 125.012459 117.768961 
L 128.06402 117.958616 
L 131.115581 118.141374 
L 134.167142 118.317236 
L 137.218703 118.486202 
L 140.270264 118.648271 
L 143.321825 118.803443 
L 146.373386 118.951719 
L 149.424947 119.093098 
L 152.476512 119.227581 
L 155.528077 119.355168 
L 158.579641 119.475858 
L 161.631206 119.589651 
L 164.68277 119.696548 
L 165.20962 119.713813 
L 167.734335 119.79182 
L 170.7859 119.879605 
L 173.837464 119.960886 
L 176.889029 120.035663 
L 179.940594 120.103939 
L 182.992158 120.165714 
L 186.043723 120.220984 
L 189.095287 120.269753 
L 192.146852 120.312019 
L 195.198417 120.347783 
L 198.24998 120.377044 
L 201.301544 120.399802 
L 204.353108 120.416059 
L 207.404672 120.425813 
L 210.456236 120.429064 
L 213.5078 120.425813 
L 216.559364 120.41606 
L 219.610927 120.399804 
L 222.662491 120.377045 
L 225.714055 120.347785 
L 228.765619 120.312021 
L 231.817183 120.269755 
L 234.868748 120.220987 
L 237.920313 120.165717 
" style="fill:none;stroke:#1f77b4;stroke-width:1.5;"/>
   </g>
   <g id="LineCollection_3">
    <path clip-path="url(#p4c359173c7)" d="M 42.620312 120.347783 
L 45.671873 120.702168 
L 48.723434 121.050047 
L 51.774995 121.391428 
L 54.826556 121.726303 
L 57.274064 121.989676 
L 57.878117 122.051163 
L 60.929678 122.355637 
L 63.981239 122.653959 
L 67.0328 122.94613 
L 70.084361 123.23215 
L 73.135922 123.512018 
L 76.187483 123.785738 
L 79.239044 124.053305 
L 81.716475 124.265538 
L 82.290605 124.3122 
L 85.342166 124.554375 
L 88.393727 124.790713 
L 91.445288 125.021218 
L 94.496849 125.245885 
L 97.54841 125.464718 
L 100.599971 125.677715 
L 103.651532 125.884877 
L 106.703093 126.086203 
L 109.754654 126.281692 
L 112.806215 126.471349 
L 113.969144 126.541401 
L 115.857776 126.649618 
L 118.909337 126.81892 
L 121.960898 126.982671 
L 125.012459 127.140871 
L 128.06402 127.293521 
L 131.115581 127.440618 
L 134.167142 127.582165 
L 137.218703 127.718163 
L 140.270264 127.848609 
L 143.321825 127.973504 
L 146.373386 128.092848 
L 149.424947 128.20664 
L 152.476512 128.314883 
L 155.528077 128.417574 
L 158.579641 128.514714 
L 161.631206 128.606303 
L 164.68277 128.692342 
L 167.734335 128.772831 
L 169.543588 128.817261 
L 170.7859 128.84635 
L 173.837464 128.912507 
L 176.889029 128.973375 
L 179.940594 129.028949 
L 182.992158 129.079229 
L 186.043723 129.124218 
L 189.095287 129.163911 
L 192.146852 129.198315 
L 195.198417 129.227424 
L 198.24998 129.251243 
L 201.301544 129.269768 
L 204.353108 129.283 
L 207.404672 129.290937 
L 210.456236 129.293584 
L 213.5078 129.290937 
L 216.559364 129.283 
L 219.610927 129.269768 
L 222.662491 129.251243 
L 225.714055 129.227427 
L 228.765619 129.198318 
L 231.817183 129.163914 
L 234.868748 129.12422 
L 237.920313 129.079232 
" style="fill:none;stroke:#1f77b4;stroke-width:1.5;"/>
   </g>
   <g id="LineCollection_4">
    <path clip-path="url(#p4c359173c7)" d="M 42.620312 129.227426 
L 45.671873 129.515877 
L 48.723434 129.799037 
L 51.774995 130.076903 
L 54.826556 130.349476 
L 57.878117 130.616757 
L 60.929678 130.878745 
L 63.478136 131.093121 
L 63.981239 131.133561 
L 67.0328 131.373791 
L 70.084361 131.608962 
L 73.135922 131.839078 
L 76.187483 132.064135 
L 79.239044 132.284135 
L 82.290605 132.499077 
L 85.342166 132.708963 
L 88.393727 132.913788 
L 91.445288 133.11356 
L 94.496849 133.308271 
L 95.473669 133.368981 
L 97.54841 133.492439 
L 100.599971 133.669182 
L 103.651532 133.841082 
L 106.703093 134.008141 
L 109.754654 134.170355 
L 112.806215 134.32773 
L 115.857776 134.480261 
L 118.909337 134.627949 
L 121.960898 134.770796 
L 125.012459 134.908801 
L 128.06402 135.041964 
L 131.115581 135.170283 
L 134.167142 135.293762 
L 137.218703 135.412397 
L 140.270264 135.52619 
L 143.321825 135.635141 
L 143.606143 135.644841 
L 146.373386 135.735396 
L 149.424947 135.830609 
L 152.476512 135.921181 
L 155.528077 136.007105 
L 158.579641 136.088386 
L 161.631206 136.165022 
L 164.68277 136.237014 
L 167.734335 136.304361 
L 170.7859 136.367065 
L 173.837464 136.425121 
L 176.889029 136.478536 
L 179.940594 136.527304 
L 182.992158 136.571428 
L 186.043723 136.610908 
L 189.095287 136.645741 
L 192.146852 136.675932 
L 195.198417 136.701477 
L 198.24998 136.722379 
L 201.301544 136.738636 
L 204.353108 136.750247 
L 207.404672 136.757213 
L 210.456236 136.759536 
L 213.5078 136.757213 
L 216.559364 136.750247 
L 219.610927 136.738636 
L 222.662491 136.722379 
L 225.714055 136.701479 
L 228.765619 136.675934 
L 231.817183 136.645743 
L 234.868748 136.61091 
L 237.920313 136.57143 
" style="fill:none;stroke:#1f77b4;stroke-width:1.5;"/>
   </g>
   <g id="LineCollection_5">
    <path clip-path="url(#p4c359173c7)" d="M 42.620312 136.701477 
L 45.671873 136.954609 
L 48.723434 137.203097 
L 51.774995 137.446938 
L 54.826556 137.686135 
L 57.878117 137.920687 
L 57.878294 137.920701 
L 60.929678 138.14158 
L 63.981239 138.35801 
L 67.0328 138.569978 
L 70.084361 138.777482 
L 73.135922 138.980525 
L 76.187483 139.179105 
L 79.239044 139.373223 
L 82.290605 139.562878 
L 85.342166 139.748071 
L 88.393727 139.9288 
L 91.445288 140.105068 
L 93.070356 140.19656 
L 94.496849 140.273842 
L 97.54841 140.43487 
L 100.599971 140.591604 
L 103.651532 140.744044 
L 106.703093 140.89219 
L 109.754654 141.036041 
L 112.806215 141.175599 
L 115.857776 141.310862 
L 118.909337 141.441832 
L 121.960898 141.568507 
L 125.012459 141.690889 
L 128.06402 141.808977 
L 131.115581 141.922769 
L 134.167142 142.032269 
L 137.218703 142.137473 
L 140.270264 142.238384 
L 143.321825 142.335001 
L 146.373386 142.427324 
L 147.93668 142.47242 
L 149.424947 142.513791 
L 152.476512 142.594481 
L 155.528077 142.671032 
L 158.579641 142.743446 
L 161.631206 142.811722 
L 164.68277 142.87586 
L 167.734335 142.93586 
L 170.7859 142.991723 
L 173.837464 143.043447 
L 176.889029 143.091034 
L 179.940594 143.134482 
L 182.992158 143.173793 
L 186.043723 143.208966 
L 189.095287 143.239999 
L 192.146852 143.266896 
L 195.198417 143.289654 
L 198.24998 143.308277 
L 201.301544 143.322759 
L 204.353108 143.333104 
L 207.404672 143.33931 
L 210.456236 143.34138 
L 213.5078 143.33931 
L 216.559364 143.333104 
L 219.610927 143.322759 
L 222.662491 143.308277 
L 225.714055 143.289656 
L 228.765619 143.266898 
L 231.817183 143.240001 
L 234.868748 143.208968 
L 237.920313 143.173795 
" style="fill:none;stroke:#1f77b4;stroke-width:1.5;"/>
   </g>
   <g id="LineCollection_6">
    <path clip-path="url(#p4c359173c7)" d="M 42.620312 143.289655 
L 45.671873 143.515173 
L 48.723434 143.736551 
L 51.774995 143.953793 
L 54.826556 144.166896 
L 57.878117 144.375862 
L 60.929678 144.580688 
L 63.477986 144.74828 
L 63.981239 144.780216 
L 67.0328 144.96987 
L 70.084361 145.155533 
L 73.135922 145.337202 
L 76.187483 145.51488 
L 79.239044 145.688564 
L 82.290605 145.858253 
L 85.342166 146.023953 
L 88.393727 146.185661 
L 91.445288 146.343371 
L 94.496849 146.497091 
L 97.54841 146.64682 
L 100.599971 146.792555 
L 103.651532 146.9343 
L 105.641817 147.02414 
L 106.703093 147.070422 
L 109.754654 147.199647 
L 112.806215 147.32501 
L 115.857776 147.44652 
L 118.909337 147.564169 
L 121.960898 147.677963 
L 125.012459 147.787897 
L 128.06402 147.893976 
L 131.115581 147.996199 
L 134.167142 148.09456 
L 137.218703 148.189066 
L 140.270264 148.279717 
L 143.321825 148.366508 
L 146.373386 148.449441 
L 149.424947 148.528518 
L 152.476512 148.603736 
L 155.528077 148.675099 
L 158.579641 148.742604 
L 161.631206 148.806252 
L 164.68277 148.866042 
L 167.734335 148.921973 
L 170.7859 148.974049 
L 173.837464 149.022266 
L 176.889029 149.066627 
L 179.940594 149.10713 
L 182.992158 149.143773 
L 186.043723 149.176561 
L 189.095287 149.205494 
L 192.146852 149.230565 
L 195.198417 149.251783 
L 198.24998 149.269139 
L 201.301544 149.28264 
L 204.353108 149.292286 
L 207.404672 149.298072 
L 210.456236 149.3 
" style="fill:none;stroke:#1f77b4;stroke-width:1.5;"/>
    <path clip-path="url(#p4c359173c7)" d="M 210.456236 149.3 
L 213.5078 149.298072 
L 216.559364 149.292286 
L 219.610927 149.282644 
L 222.662491 149.269143 
L 225.714055 149.251783 
L 228.765619 149.230568 
L 231.817183 149.205494 
L 234.868748 149.176565 
L 237.920313 149.143777 
" style="fill:none;stroke:#1f77b4;stroke-width:1.5;"/>
   </g>
   <g id="LineCollection_7">
    <path clip-path="url(#p4c359173c7)" d="M 42.620312 149.251783 
L 43.320206 149.3 
" style="fill:none;stroke:#1f77b4;stroke-width:1.5;"/>
   </g>
   <g id="line2d_7">
    <path clip-path="url(#p4c359173c7)" d="M 57.878132 126.541379 
L 76.187515 17.3 
L 101.454465 115.617241 
L 127.168163 81.752414 
L 150.019591 63.072138 
L 168.697714 96.8168 
L 183.047809 75.786742 
L 193.511879 77.841463 
L 200.777247 86.507243 
L 205.571421 77.680681 
L 208.554697 81.291697 
L 210.27453 82.455064 
L 211.156263 79.602525 
L 211.513137 81.588126 
L 211.564756 81.227355 
L 211.457555 80.559249 
L 211.283807 81.34093 
L 211.097635 80.97147 
L 210.927592 80.913143 
L 210.786019 81.150367 
L 210.67567 80.966029 
" style="fill:none;stroke:#ff7f0e;stroke-linecap:square;stroke-width:1.5;"/>
    <defs>
     <path d="M 0 3 
C 0.795609 3 1.55874 2.683901 2.12132 2.12132 
C 2.683901 1.55874 3 0.795609 3 0 
C 3 -0.795609 2.683901 -1.55874 2.12132 -2.12132 
C 1.55874 -2.683901 0.795609 -3 0 -3 
C -0.795609 -3 -1.55874 -2.683901 -2.12132 -2.12132 
C -2.683901 -1.55874 -3 -0.795609 -3 0 
C -3 0.795609 -2.683901 1.55874 -2.12132 2.12132 
C -1.55874 2.683901 -0.795609 3 0 3 
z
" id="mb62d4953a1" style="stroke:#ff7f0e;"/>
    </defs>
    <g clip-path="url(#p4c359173c7)">
     <use style="fill:#ff7f0e;stroke:#ff7f0e;" x="57.878132" xlink:href="#mb62d4953a1" y="126.541379"/>
     <use style="fill:#ff7f0e;stroke:#ff7f0e;" x="76.187515" xlink:href="#mb62d4953a1" y="17.3"/>
     <use style="fill:#ff7f0e;stroke:#ff7f0e;" x="101.454465" xlink:href="#mb62d4953a1" y="115.617241"/>
     <use style="fill:#ff7f0e;stroke:#ff7f0e;" x="127.168163" xlink:href="#mb62d4953a1" y="81.752414"/>
     <use style="fill:#ff7f0e;stroke:#ff7f0e;" x="150.019591" xlink:href="#mb62d4953a1" y="63.072138"/>
     <use style="fill:#ff7f0e;stroke:#ff7f0e;" x="168.697714" xlink:href="#mb62d4953a1" y="96.8168"/>
     <use style="fill:#ff7f0e;stroke:#ff7f0e;" x="183.047809" xlink:href="#mb62d4953a1" y="75.786742"/>
     <use style="fill:#ff7f0e;stroke:#ff7f0e;" x="193.511879" xlink:href="#mb62d4953a1" y="77.841463"/>
     <use style="fill:#ff7f0e;stroke:#ff7f0e;" x="200.777247" xlink:href="#mb62d4953a1" y="86.507243"/>
     <use style="fill:#ff7f0e;stroke:#ff7f0e;" x="205.571421" xlink:href="#mb62d4953a1" y="77.680681"/>
     <use style="fill:#ff7f0e;stroke:#ff7f0e;" x="208.554697" xlink:href="#mb62d4953a1" y="81.291697"/>
     <use style="fill:#ff7f0e;stroke:#ff7f0e;" x="210.27453" xlink:href="#mb62d4953a1" y="82.455064"/>
     <use style="fill:#ff7f0e;stroke:#ff7f0e;" x="211.156263" xlink:href="#mb62d4953a1" y="79.602525"/>
     <use style="fill:#ff7f0e;stroke:#ff7f0e;" x="211.513137" xlink:href="#mb62d4953a1" y="81.588126"/>
     <use style="fill:#ff7f0e;stroke:#ff7f0e;" x="211.564756" xlink:href="#mb62d4953a1" y="81.227355"/>
     <use style="fill:#ff7f0e;stroke:#ff7f0e;" x="211.457555" xlink:href="#mb62d4953a1" y="80.559249"/>
     <use style="fill:#ff7f0e;stroke:#ff7f0e;" x="211.283807" xlink:href="#mb62d4953a1" y="81.34093"/>
     <use style="fill:#ff7f0e;stroke:#ff7f0e;" x="211.097635" xlink:href="#mb62d4953a1" y="80.97147"/>
     <use style="fill:#ff7f0e;stroke:#ff7f0e;" x="210.927592" xlink:href="#mb62d4953a1" y="80.913143"/>
     <use style="fill:#ff7f0e;stroke:#ff7f0e;" x="210.786019" xlink:href="#mb62d4953a1" y="81.150367"/>
     <use style="fill:#ff7f0e;stroke:#ff7f0e;" x="210.67567" xlink:href="#mb62d4953a1" y="80.966029"/>
    </g>
   </g>
   <g id="patch_3">
    <path d="M 42.620312 149.3 
L 42.620312 10.7 
" style="fill:none;stroke:#000000;stroke-linecap:square;stroke-linejoin:miter;stroke-width:0.8;"/>
   </g>
   <g id="patch_4">
    <path d="M 237.920313 149.3 
L 237.920313 10.7 
" style="fill:none;stroke:#000000;stroke-linecap:square;stroke-linejoin:miter;stroke-width:0.8;"/>
   </g>
   <g id="patch_5">
    <path d="M 42.620312 149.3 
L 237.920313 149.3 
" style="fill:none;stroke:#000000;stroke-linecap:square;stroke-linejoin:miter;stroke-width:0.8;"/>
   </g>
   <g id="patch_6">
    <path d="M 42.620312 10.7 
L 237.920313 10.7 
" style="fill:none;stroke:#000000;stroke-linecap:square;stroke-linejoin:miter;stroke-width:0.8;"/>
   </g>
  </g>
 </g>
 <defs>
  <clipPath id="p4c359173c7">
   <rect height="138.6" width="195.3" x="42.620312" y="10.7"/>
  </clipPath>
 </defs>
</svg>
