<?xml version="1.0" encoding="utf-8" standalone="no"?>
<!DOCTYPE svg PUBLIC "-//W3C//DTD SVG 1.1//EN"
  "http://www.w3.org/Graphics/SVG/1.1/DTD/svg11.dtd">
<!-- Created with matplotlib (http://matplotlib.org/) -->
<svg height="186.85625pt" version="1.1" viewBox="0 0 248.620313 186.85625" width="248.620313pt" xmlns="http://www.w3.org/2000/svg" xmlns:xlink="http://www.w3.org/1999/xlink">
 <defs>
  <style type="text/css">
*{stroke-linecap:butt;stroke-linejoin:round;}
  </style>
 </defs>
 <g id="figure_1">
  <g id="patch_1">
   <path d="M 0 186.85625 
L 248.620313 186.85625 
L 248.620313 0 
L 0 0 
z
" style="fill:#ffffff;"/>
  </g>
  <g id="axes_1">
   <g id="patch_2">
    <path d="M 42.620312 149.3 
L 237.920313 149.3 
L 237.920313 10.7 
L 42.620312 10.7 
z
" style="fill:#ffffff;"/>
   </g>
   <g id="matplotlib.axis_1">
    <g id="xtick_1">
     <g id="line2d_1">
      <defs>
       <path d="M 0 0 
L 0 3.5 
" id="m35673c1d87" style="stroke:#000000;stroke-width:0.8;"/>
      </defs>
      <g>
       <use style="stroke:#000000;stroke-width:0.8;" x="88.393771" xlink:href="#m35673c1d87" y="149.3"/>
      </g>
     </g>
     <g id="text_1">
      <!-- −4 -->
      <defs>
       <path d="M 10.59375 35.5 
L 73.1875 35.5 
L 73.1875 27.203125 
L 10.59375 27.203125 
z
" id="DejaVuSans-2212"/>
       <path d="M 37.796875 64.3125 
L 12.890625 25.390625 
L 37.796875 25.390625 
z
M 35.203125 72.90625 
L 47.609375 72.90625 
L 47.609375 25.390625 
L 58.015625 25.390625 
L 58.015625 17.1875 
L 47.609375 17.1875 
L 47.609375 0 
L 37.796875 0 
L 37.796875 17.1875 
L 4.890625 17.1875 
L 4.890625 26.703125 
z
" id="DejaVuSans-34"/>
      </defs>
      <g transform="translate(81.022677 163.898438)scale(0.1 -0.1)">
       <use xlink:href="#DejaVuSans-2212"/>
       <use x="83.789062" xlink:href="#DejaVuSans-34"/>
      </g>
     </g>
    </g>
    <g id="xtick_2">
     <g id="line2d_2">
      <g>
       <use style="stroke:#000000;stroke-width:0.8;" x="149.425049" xlink:href="#m35673c1d87" y="149.3"/>
      </g>
     </g>
     <g id="text_2">
      <!-- −2 -->
      <defs>
       <path d="M 19.1875 8.296875 
L 53.609375 8.296875 
L 53.609375 0 
L 7.328125 0 
L 7.328125 8.296875 
Q 12.9375 14.109375 22.625 23.890625 
Q 32.328125 33.6875 34.8125 36.53125 
Q 39.546875 41.84375 41.421875 45.53125 
Q 43.3125 49.21875 43.3125 52.78125 
Q 43.3125 58.59375 39.234375 62.25 
Q 35.15625 65.921875 28.609375 65.921875 
Q 23.96875 65.921875 18.8125 64.3125 
Q 13.671875 62.703125 7.8125 59.421875 
L 7.8125 69.390625 
Q 13.765625 71.78125 18.9375 73 
Q 24.125 74.21875 28.421875 74.21875 
Q 39.75 74.21875 46.484375 68.546875 
Q 53.21875 62.890625 53.21875 53.421875 
Q 53.21875 48.921875 51.53125 44.890625 
Q 49.859375 40.875 45.40625 35.40625 
Q 44.1875 33.984375 37.640625 27.21875 
Q 31.109375 20.453125 19.1875 8.296875 
z
" id="DejaVuSans-32"/>
      </defs>
      <g transform="translate(142.053955 163.898438)scale(0.1 -0.1)">
       <use xlink:href="#DejaVuSans-2212"/>
       <use x="83.789062" xlink:href="#DejaVuSans-32"/>
      </g>
     </g>
    </g>
    <g id="xtick_3">
     <g id="line2d_3">
      <g>
       <use style="stroke:#000000;stroke-width:0.8;" x="210.456327" xlink:href="#m35673c1d87" y="149.3"/>
      </g>
     </g>
     <g id="text_3">
      <!-- 0 -->
      <defs>
       <path d="M 31.78125 66.40625 
Q 24.171875 66.40625 20.328125 58.90625 
Q 16.5 51.421875 16.5 36.375 
Q 16.5 21.390625 20.328125 13.890625 
Q 24.171875 6.390625 31.78125 6.390625 
Q 39.453125 6.390625 43.28125 13.890625 
Q 47.125 21.390625 47.125 36.375 
Q 47.125 51.421875 43.28125 58.90625 
Q 39.453125 66.40625 31.78125 66.40625 
z
M 31.78125 74.21875 
Q 44.046875 74.21875 50.515625 64.515625 
Q 56.984375 54.828125 56.984375 36.375 
Q 56.984375 17.96875 50.515625 8.265625 
Q 44.046875 -1.421875 31.78125 -1.421875 
Q 19.53125 -1.421875 13.0625 8.265625 
Q 6.59375 17.96875 6.59375 36.375 
Q 6.59375 54.828125 13.0625 64.515625 
Q 19.53125 74.21875 31.78125 74.21875 
z
" id="DejaVuSans-30"/>
      </defs>
      <g transform="translate(207.275077 163.898438)scale(0.1 -0.1)">
       <use xlink:href="#DejaVuSans-30"/>
      </g>
     </g>
    </g>
    <g id="text_4">
     <!-- x1 -->
     <defs>
      <path d="M 54.890625 54.6875 
L 35.109375 28.078125 
L 55.90625 0 
L 45.3125 0 
L 29.390625 21.484375 
L 13.484375 0 
L 2.875 0 
L 24.125 28.609375 
L 4.6875 54.6875 
L 15.28125 54.6875 
L 29.78125 35.203125 
L 44.28125 54.6875 
z
" id="DejaVuSans-78"/>
      <path d="M 12.40625 8.296875 
L 28.515625 8.296875 
L 28.515625 63.921875 
L 10.984375 60.40625 
L 10.984375 69.390625 
L 28.421875 72.90625 
L 38.28125 72.90625 
L 38.28125 8.296875 
L 54.390625 8.296875 
L 54.390625 0 
L 12.40625 0 
z
" id="DejaVuSans-31"/>
     </defs>
     <g transform="translate(134.129687 177.576562)scale(0.1 -0.1)">
      <use xlink:href="#DejaVuSans-78"/>
      <use x="59.179688" xlink:href="#DejaVuSans-31"/>
     </g>
    </g>
   </g>
   <g id="matplotlib.axis_2">
    <g id="ytick_1">
     <g id="line2d_4">
      <defs>
       <path d="M 0 0 
L -3.5 0 
" id="m27092a2b52" style="stroke:#000000;stroke-width:0.8;"/>
      </defs>
      <g>
       <use style="stroke:#000000;stroke-width:0.8;" x="42.620312" xlink:href="#m27092a2b52" y="149.3"/>
      </g>
     </g>
     <g id="text_5">
      <!-- −3 -->
      <defs>
       <path d="M 40.578125 39.3125 
Q 47.65625 37.796875 51.625 33 
Q 55.609375 28.21875 55.609375 21.1875 
Q 55.609375 10.40625 48.1875 4.484375 
Q 40.765625 -1.421875 27.09375 -1.421875 
Q 22.515625 -1.421875 17.65625 -0.515625 
Q 12.796875 0.390625 7.625 2.203125 
L 7.625 11.71875 
Q 11.71875 9.328125 16.59375 8.109375 
Q 21.484375 6.890625 26.8125 6.890625 
Q 36.078125 6.890625 40.9375 10.546875 
Q 45.796875 14.203125 45.796875 21.1875 
Q 45.796875 27.640625 41.28125 31.265625 
Q 36.765625 34.90625 28.71875 34.90625 
L 20.21875 34.90625 
L 20.21875 43.015625 
L 29.109375 43.015625 
Q 36.375 43.015625 40.234375 45.921875 
Q 44.09375 48.828125 44.09375 54.296875 
Q 44.09375 59.90625 40.109375 62.90625 
Q 36.140625 65.921875 28.71875 65.921875 
Q 24.65625 65.921875 20.015625 65.03125 
Q 15.375 64.15625 9.8125 62.3125 
L 9.8125 71.09375 
Q 15.4375 72.65625 20.34375 73.4375 
Q 25.25 74.21875 29.59375 74.21875 
Q 40.828125 74.21875 47.359375 69.109375 
Q 53.90625 64.015625 53.90625 55.328125 
Q 53.90625 49.265625 50.4375 45.09375 
Q 46.96875 40.921875 40.578125 39.3125 
z
" id="DejaVuSans-33"/>
      </defs>
      <g transform="translate(20.878125 153.099219)scale(0.1 -0.1)">
       <use xlink:href="#DejaVuSans-2212"/>
       <use x="83.789062" xlink:href="#DejaVuSans-33"/>
      </g>
     </g>
    </g>
    <g id="ytick_2">
     <g id="line2d_5">
      <g>
       <use style="stroke:#000000;stroke-width:0.8;" x="42.620312" xlink:href="#m27092a2b52" y="113.761533"/>
      </g>
     </g>
     <g id="text_6">
      <!-- −2 -->
      <g transform="translate(20.878125 117.560752)scale(0.1 -0.1)">
       <use xlink:href="#DejaVuSans-2212"/>
       <use x="83.789062" xlink:href="#DejaVuSans-32"/>
      </g>
     </g>
    </g>
    <g id="ytick_3">
     <g id="line2d_6">
      <g>
       <use style="stroke:#000000;stroke-width:0.8;" x="42.620312" xlink:href="#m27092a2b52" y="78.223067"/>
      </g>
     </g>
     <g id="text_7">
      <!-- −1 -->
      <g transform="translate(20.878125 82.022285)scale(0.1 -0.1)">
       <use xlink:href="#DejaVuSans-2212"/>
       <use x="83.789062" xlink:href="#DejaVuSans-31"/>
      </g>
     </g>
    </g>
    <g id="ytick_4">
     <g id="line2d_7">
      <g>
       <use style="stroke:#000000;stroke-width:0.8;" x="42.620312" xlink:href="#m27092a2b52" y="42.6846"/>
      </g>
     </g>
     <g id="text_8">
      <!-- 0 -->
      <g transform="translate(29.257812 46.483819)scale(0.1 -0.1)">
       <use xlink:href="#DejaVuSans-30"/>
      </g>
     </g>
    </g>
    <g id="text_9">
     <!-- x2 -->
     <g transform="translate(14.798437 86.140625)rotate(-90)scale(0.1 -0.1)">
      <use xlink:href="#DejaVuSans-78"/>
      <use x="59.179688" xlink:href="#DejaVuSans-32"/>
     </g>
    </g>
   </g>
   <g id="LineCollection_1">
    <path clip-path="url(#p162850e67b)" d="M 97.100821 10.7 
L 94.496849 11.368952 
L 91.445288 12.173795 
L 88.393727 12.999542 
L 85.342166 13.846192 
L 83.908272 14.253848 
L 82.290605 14.775069 
L 79.239044 15.781993 
L 76.187483 16.81261 
L 73.307338 17.807695 
L 73.135922 17.87603 
L 70.084361 19.119876 
L 67.0328 20.39106 
L 64.752137 21.361543 
L 63.981239 21.749223 
L 60.929678 23.316149 
L 57.878117 24.915381 
L 57.878103 24.915389 
L 54.826556 26.909481 
L 52.486018 28.469235 
L 51.774995 29.078448 
L 48.723434 31.74384 
L 48.409711 32.023082 
L 45.671873 35.434759 
L 45.559878 35.576928 
L 43.880127 39.130775 
L 43.320215 42.684622 
L 43.88014 46.238468 
L 45.559904 49.792315 
L 45.671873 49.93445 
L 48.409752 53.346162 
L 48.723434 53.625366 
L 51.774995 56.290749 
L 52.486074 56.900008 
L 54.826556 58.459721 
L 57.878117 60.453817 
L 57.878176 60.453855 
L 60.929678 62.053053 
L 63.981239 63.619977 
L 64.752228 64.007702 
L 67.0328 64.978144 
L 70.084361 66.249326 
L 73.135922 67.493166 
L 73.30746 67.56155 
L 76.187483 68.556593 
L 79.239044 69.587208 
L 82.290605 70.594128 
L 83.908421 71.115397 
L 85.342166 71.52301 
L 88.393727 72.36966 
L 91.445288 73.195406 
L 94.496849 74.000247 
L 97.100997 74.669245 
L 97.54841 74.772085 
L 100.599971 75.454796 
L 103.651532 76.118803 
L 106.703093 76.764105 
L 109.754654 77.390704 
L 112.806215 77.998597 
L 113.968927 78.223092 
L 115.857776 78.553056 
L 118.909337 79.069209 
L 121.960898 79.568439 
L 125.012459 80.050747 
L 128.06402 80.516131 
L 131.115581 80.964592 
L 134.167142 81.396132 
L 136.969882 81.77694 
L 137.218703 81.807807 
L 140.270264 82.170917 
L 143.321825 82.518576 
L 146.373386 82.850783 
L 149.424947 83.16754 
L 152.476512 83.468844 
L 155.528077 83.754698 
L 158.579641 84.025098 
L 161.631206 84.280049 
L 164.68277 84.519547 
L 167.734335 84.743596 
L 170.7859 84.95219 
L 173.837464 85.145335 
L 176.889029 85.323027 
L 177.034988 85.330787 
L 179.940594 85.47291 
L 182.992158 85.607957 
L 186.043723 85.728789 
L 189.095287 85.835403 
L 192.146852 85.927805 
L 195.198417 86.005989 
L 198.24998 86.069959 
L 201.301544 86.119714 
L 204.353108 86.155251 
L 207.404672 86.176575 
L 210.456236 86.183684 
L 213.5078 86.176576 
L 216.559364 86.155253 
L 219.610927 86.119716 
L 222.662491 86.069962 
L 225.714055 86.005994 
L 228.765619 85.92781 
L 231.817183 85.83541 
L 234.868748 85.728796 
L 237.920313 85.607965 
" style="fill:none;stroke:#1f77b4;stroke-width:1.5;"/>
   </g>
   <g id="LineCollection_2">
    <path clip-path="url(#p162850e67b)" d="M 42.620312 86.005992 
L 45.671873 86.780728 
L 48.723434 87.54125 
L 51.774995 88.287558 
L 54.263785 88.884635 
L 54.826556 89.009646 
L 57.878117 89.674346 
L 60.929678 90.325884 
L 63.981239 90.96426 
L 67.0328 91.589472 
L 70.084361 92.201523 
L 71.291756 92.438482 
L 73.135922 92.775451 
L 76.187483 93.320781 
L 79.239044 93.853857 
L 82.290605 94.374678 
L 85.342166 94.883246 
L 88.393727 95.379558 
L 91.445288 95.863616 
L 92.277792 95.99233 
L 94.496849 96.313285 
L 97.54841 96.743185 
L 100.599971 97.161621 
L 103.651532 97.568594 
L 106.703093 97.964102 
L 109.754654 98.348147 
L 112.806215 98.720727 
L 115.857776 99.081844 
L 118.909337 99.431496 
L 119.944133 99.546177 
L 121.960898 99.756139 
L 125.012459 100.063063 
L 128.06402 100.359216 
L 131.115581 100.6446 
L 134.167142 100.919216 
L 137.218703 101.183062 
L 140.270264 101.43614 
L 143.321825 101.678447 
L 146.373386 101.909985 
L 149.424947 102.130754 
L 152.476512 102.340755 
L 155.528077 102.539986 
L 158.579641 102.728449 
L 161.631206 102.906141 
L 164.68277 103.073065 
L 165.20962 103.100025 
L 167.734335 103.221835 
L 170.7859 103.358914 
L 173.837464 103.485838 
L 176.889029 103.602606 
L 179.940594 103.709221 
L 182.992158 103.805685 
L 186.043723 103.891991 
L 189.095287 103.968146 
L 192.146852 104.034147 
L 195.198417 104.089993 
L 198.24998 104.135685 
L 201.301544 104.171223 
L 204.353108 104.196608 
L 207.404672 104.21184 
L 210.456236 104.216917 
L 213.5078 104.21184 
L 216.559364 104.196611 
L 219.610927 104.171225 
L 222.662491 104.135687 
L 225.714055 104.089996 
L 228.765619 104.034149 
L 231.817183 103.968149 
L 234.868748 103.891996 
L 237.920313 103.80569 
" style="fill:none;stroke:#1f77b4;stroke-width:1.5;"/>
   </g>
   <g id="LineCollection_3">
    <path clip-path="url(#p162850e67b)" d="M 42.620312 104.089993 
L 45.671873 104.643379 
L 48.723434 105.186606 
L 51.774995 105.719685 
L 54.826556 106.242606 
L 57.274064 106.653872 
L 57.878117 106.749888 
L 60.929678 107.225334 
L 63.981239 107.691177 
L 67.0328 108.147412 
L 70.084361 108.594044 
L 73.135922 109.031069 
L 76.187483 109.458493 
L 79.239044 109.87631 
L 81.716475 110.20772 
L 82.290605 110.280583 
L 85.342166 110.65875 
L 88.393727 111.0278 
L 91.445288 111.387743 
L 94.496849 111.738569 
L 97.54841 112.080284 
L 100.599971 112.412888 
L 103.651532 112.736379 
L 106.703093 113.050759 
L 109.754654 113.356022 
L 112.806215 113.652178 
L 113.969144 113.761567 
L 115.857776 113.930552 
L 118.909337 114.194923 
L 121.960898 114.450627 
L 125.012459 114.697663 
L 128.06402 114.936032 
L 131.115581 115.165729 
L 134.167142 115.38676 
L 137.218703 115.599127 
L 140.270264 115.802822 
L 143.321825 115.997851 
L 146.373386 116.184212 
L 149.424947 116.361902 
L 152.476512 116.530928 
L 155.528077 116.691283 
L 158.579641 116.842971 
L 161.631206 116.985992 
L 164.68277 117.120345 
L 167.734335 117.246031 
L 169.543588 117.315411 
L 170.7859 117.360834 
L 173.837464 117.464142 
L 176.889029 117.559189 
L 179.940594 117.645969 
L 182.992158 117.724484 
L 186.043723 117.794736 
L 189.095287 117.856719 
L 192.146852 117.910442 
L 195.198417 117.955896 
L 198.24998 117.993091 
L 201.301544 118.022018 
L 204.353108 118.04268 
L 207.404672 118.055074 
L 210.456236 118.059208 
L 213.5078 118.055074 
L 216.559364 118.04268 
L 219.610927 118.022018 
L 222.662491 117.993091 
L 225.714055 117.9559 
L 228.765619 117.910446 
L 231.817183 117.856723 
L 234.868748 117.794739 
L 237.920313 117.724488 
" style="fill:none;stroke:#1f77b4;stroke-width:1.5;"/>
   </g>
   <g id="LineCollection_4">
    <path clip-path="url(#p162850e67b)" d="M 42.620312 117.9559 
L 45.671873 118.406326 
L 48.723434 118.848492 
L 51.774995 119.28239 
L 54.826556 119.708024 
L 57.878117 120.125393 
L 60.929678 120.534498 
L 63.478136 120.869254 
L 63.981239 120.932402 
L 67.0328 121.307531 
L 70.084361 121.67476 
L 73.135922 122.034095 
L 76.187483 122.38553 
L 79.239044 122.729068 
L 82.290605 123.064709 
L 85.342166 123.392453 
L 88.393727 123.712297 
L 91.445288 124.024247 
L 94.496849 124.328297 
L 95.473669 124.423097 
L 97.54841 124.615882 
L 100.599971 124.891872 
L 103.651532 125.160302 
L 106.703093 125.42117 
L 109.754654 125.674474 
L 112.806215 125.920221 
L 115.857776 126.158403 
L 118.909337 126.389025 
L 121.960898 126.612086 
L 125.012459 126.827586 
L 128.06402 127.035525 
L 131.115581 127.2359 
L 134.167142 127.428717 
L 137.218703 127.61397 
L 140.270264 127.791662 
L 143.321825 127.961793 
L 143.606143 127.97694 
L 146.373386 128.118347 
L 149.424947 128.267026 
L 152.476512 128.408456 
L 155.528077 128.542631 
L 158.579641 128.669553 
L 161.631206 128.789223 
L 164.68277 128.901642 
L 167.734335 129.006807 
L 170.7859 129.104721 
L 173.837464 129.195379 
L 176.889029 129.278788 
L 179.940594 129.354942 
L 182.992158 129.423843 
L 186.043723 129.485492 
L 189.095287 129.539885 
L 192.146852 129.58703 
L 195.198417 129.626919 
L 198.24998 129.659559 
L 201.301544 129.684943 
L 204.353108 129.703076 
L 207.404672 129.713952 
L 210.456236 129.71758 
L 213.5078 129.713952 
L 216.559364 129.703076 
L 219.610927 129.684943 
L 222.662491 129.659559 
L 225.714055 129.626922 
L 228.765619 129.587033 
L 231.817183 129.539889 
L 234.868748 129.485495 
L 237.920313 129.423846 
" style="fill:none;stroke:#1f77b4;stroke-width:1.5;"/>
   </g>
   <g id="LineCollection_5">
    <path clip-path="url(#p162850e67b)" d="M 42.620312 129.626919 
L 45.671873 130.022194 
L 48.723434 130.410217 
L 51.774995 130.790985 
L 54.826556 131.1645 
L 57.878117 131.530763 
L 57.878294 131.530784 
L 60.929678 131.875696 
L 63.981239 132.21366 
L 67.0328 132.544656 
L 70.084361 132.868681 
L 73.135922 133.18574 
L 76.187483 133.495831 
L 79.239044 133.798953 
L 82.290605 134.095107 
L 85.342166 134.384293 
L 88.393727 134.666508 
L 91.445288 134.941758 
L 93.070356 135.084627 
L 94.496849 135.205305 
L 97.54841 135.456756 
L 100.599971 135.701502 
L 103.651532 135.939543 
L 106.703093 136.17088 
L 109.754654 136.395508 
L 112.806215 136.613434 
L 115.857776 136.824652 
L 118.909337 137.029166 
L 121.960898 137.226975 
L 125.012459 137.418078 
L 128.06402 137.602477 
L 131.115581 137.780168 
L 134.167142 137.951156 
L 137.218703 138.115438 
L 140.270264 138.273014 
L 143.321825 138.423885 
L 146.373386 138.568051 
L 147.93668 138.63847 
L 149.424947 138.703072 
L 152.476512 138.829073 
L 155.528077 138.948611 
L 158.579641 139.061687 
L 161.631206 139.168302 
L 164.68277 139.268457 
L 167.734335 139.36215 
L 170.7859 139.449382 
L 173.837464 139.53015 
L 176.889029 139.60446 
L 179.940594 139.672306 
L 182.992158 139.733691 
L 186.043723 139.788614 
L 189.095287 139.837074 
L 192.146852 139.879075 
L 195.198417 139.914613 
L 198.24998 139.943692 
L 201.301544 139.966308 
L 204.353108 139.982462 
L 207.404672 139.992152 
L 210.456236 139.995384 
L 213.5078 139.992152 
L 216.559364 139.982462 
L 219.610927 139.966308 
L 222.662491 139.943692 
L 225.714055 139.914616 
L 228.765619 139.879078 
L 231.817183 139.837077 
L 234.868748 139.788617 
L 237.920313 139.733694 
" style="fill:none;stroke:#1f77b4;stroke-width:1.5;"/>
   </g>
   <g id="LineCollection_6">
    <path clip-path="url(#p162850e67b)" d="M 42.620312 139.914614 
L 45.671873 140.266769 
L 48.723434 140.612459 
L 51.774995 140.951691 
L 54.826556 141.28446 
L 57.878117 141.610768 
L 60.929678 141.930611 
L 63.477986 142.192313 
L 63.981239 142.242182 
L 67.0328 142.538334 
L 70.084361 142.828254 
L 73.135922 143.111937 
L 76.187483 143.389389 
L 79.239044 143.660603 
L 82.290605 143.92558 
L 85.342166 144.184325 
L 88.393727 144.436839 
L 91.445288 144.68311 
L 94.496849 144.923149 
L 97.54841 145.156957 
L 100.599971 145.384528 
L 103.651532 145.605867 
L 105.641817 145.746157 
L 106.703093 145.818427 
L 109.754654 146.020218 
L 112.806215 146.215976 
L 115.857776 146.40572 
L 118.909337 146.589433 
L 121.960898 146.767126 
L 125.012459 146.938792 
L 128.06402 147.104439 
L 131.115581 147.264065 
L 134.167142 147.417659 
L 137.218703 147.565234 
L 140.270264 147.706788 
L 143.321825 147.842316 
L 146.373386 147.971819 
L 149.424947 148.095301 
L 152.476512 148.212757 
L 155.528077 148.324194 
L 158.579641 148.429604 
L 161.631206 148.528994 
L 164.68277 148.622358 
L 167.734335 148.709697 
L 170.7859 148.791015 
L 173.837464 148.866307 
L 176.889029 148.935579 
L 179.940594 148.998825 
L 182.992158 149.056046 
L 186.043723 149.107246 
L 189.095287 149.152426 
L 192.146852 149.191574 
L 195.198417 149.224708 
L 198.24998 149.25181 
L 201.301544 149.272892 
L 204.353108 149.287954 
L 207.404672 149.29699 
L 210.456236 149.3 
" style="fill:none;stroke:#1f77b4;stroke-width:1.5;"/>
    <path clip-path="url(#p162850e67b)" d="M 210.456236 149.3 
L 213.5078 149.29699 
L 216.559364 149.287954 
L 219.610927 149.272898 
L 222.662491 149.251816 
L 225.714055 149.224708 
L 228.765619 149.19158 
L 231.817183 149.152426 
L 234.868748 149.107251 
L 237.920313 149.056051 
" style="fill:none;stroke:#1f77b4;stroke-width:1.5;"/>
   </g>
   <g id="LineCollection_7">
    <path clip-path="url(#p162850e67b)" d="M 42.620312 149.224708 
L 43.320206 149.3 
" style="fill:none;stroke:#1f77b4;stroke-width:1.5;"/>
   </g>
   <g id="line2d_8">
    <path clip-path="url(#p162850e67b)" d="M 57.878132 113.761533 
L 118.90938 42.684601 
L 150.309709 42.6846 
L 169.853467 42.6846 
L 182.748903 42.6846 
L 191.458688 42.6846 
L 197.40218 42.6846 
L 201.477112 42.6846 
L 204.277078 42.6846 
L 206.202978 42.6846 
L 207.528316 42.6846 
L 208.440579 42.6846 
L 209.06858 42.6846 
L 209.500918 42.6846 
L 209.798562 42.6846 
L 210.003478 42.6846 
L 210.144556 42.6846 
L 210.241683 42.6846 
L 210.308552 42.6846 
L 210.354589 42.6846 
L 210.386283 42.6846 
" style="fill:none;stroke:#ff7f0e;stroke-linecap:square;stroke-width:1.5;"/>
    <defs>
     <path d="M 0 3 
C 0.795609 3 1.55874 2.683901 2.12132 2.12132 
C 2.683901 1.55874 3 0.795609 3 0 
C 3 -0.795609 2.683901 -1.55874 2.12132 -2.12132 
C 1.55874 -2.683901 0.795609 -3 0 -3 
C -0.795609 -3 -1.55874 -2.683901 -2.12132 -2.12132 
C -2.683901 -1.55874 -3 -0.795609 -3 0 
C -3 0.795609 -2.683901 1.55874 -2.12132 2.12132 
C -1.55874 2.683901 -0.795609 3 0 3 
z
" id="mf703929f6d" style="stroke:#ff7f0e;"/>
    </defs>
    <g clip-path="url(#p162850e67b)">
     <use style="fill:#ff7f0e;stroke:#ff7f0e;" x="57.878132" xlink:href="#mf703929f6d" y="113.761533"/>
     <use style="fill:#ff7f0e;stroke:#ff7f0e;" x="118.90938" xlink:href="#mf703929f6d" y="42.684601"/>
     <use style="fill:#ff7f0e;stroke:#ff7f0e;" x="150.309709" xlink:href="#mf703929f6d" y="42.6846"/>
     <use style="fill:#ff7f0e;stroke:#ff7f0e;" x="169.853467" xlink:href="#mf703929f6d" y="42.6846"/>
     <use style="fill:#ff7f0e;stroke:#ff7f0e;" x="182.748903" xlink:href="#mf703929f6d" y="42.6846"/>
     <use style="fill:#ff7f0e;stroke:#ff7f0e;" x="191.458688" xlink:href="#mf703929f6d" y="42.6846"/>
     <use style="fill:#ff7f0e;stroke:#ff7f0e;" x="197.40218" xlink:href="#mf703929f6d" y="42.6846"/>
     <use style="fill:#ff7f0e;stroke:#ff7f0e;" x="201.477112" xlink:href="#mf703929f6d" y="42.6846"/>
     <use style="fill:#ff7f0e;stroke:#ff7f0e;" x="204.277078" xlink:href="#mf703929f6d" y="42.6846"/>
     <use style="fill:#ff7f0e;stroke:#ff7f0e;" x="206.202978" xlink:href="#mf703929f6d" y="42.6846"/>
     <use style="fill:#ff7f0e;stroke:#ff7f0e;" x="207.528316" xlink:href="#mf703929f6d" y="42.6846"/>
     <use style="fill:#ff7f0e;stroke:#ff7f0e;" x="208.440579" xlink:href="#mf703929f6d" y="42.6846"/>
     <use style="fill:#ff7f0e;stroke:#ff7f0e;" x="209.06858" xlink:href="#mf703929f6d" y="42.6846"/>
     <use style="fill:#ff7f0e;stroke:#ff7f0e;" x="209.500918" xlink:href="#mf703929f6d" y="42.6846"/>
     <use style="fill:#ff7f0e;stroke:#ff7f0e;" x="209.798562" xlink:href="#mf703929f6d" y="42.6846"/>
     <use style="fill:#ff7f0e;stroke:#ff7f0e;" x="210.003478" xlink:href="#mf703929f6d" y="42.6846"/>
     <use style="fill:#ff7f0e;stroke:#ff7f0e;" x="210.144556" xlink:href="#mf703929f6d" y="42.6846"/>
     <use style="fill:#ff7f0e;stroke:#ff7f0e;" x="210.241683" xlink:href="#mf703929f6d" y="42.6846"/>
     <use style="fill:#ff7f0e;stroke:#ff7f0e;" x="210.308552" xlink:href="#mf703929f6d" y="42.6846"/>
     <use style="fill:#ff7f0e;stroke:#ff7f0e;" x="210.354589" xlink:href="#mf703929f6d" y="42.6846"/>
     <use style="fill:#ff7f0e;stroke:#ff7f0e;" x="210.386283" xlink:href="#mf703929f6d" y="42.6846"/>
    </g>
   </g>
   <g id="patch_3">
    <path d="M 42.620312 149.3 
L 42.620312 10.7 
" style="fill:none;stroke:#000000;stroke-linecap:square;stroke-linejoin:miter;stroke-width:0.8;"/>
   </g>
   <g id="patch_4">
    <path d="M 237.920313 149.3 
L 237.920313 10.7 
" style="fill:none;stroke:#000000;stroke-linecap:square;stroke-linejoin:miter;stroke-width:0.8;"/>
   </g>
   <g id="patch_5">
    <path d="M 42.620312 149.3 
L 237.920313 149.3 
" style="fill:none;stroke:#000000;stroke-linecap:square;stroke-linejoin:miter;stroke-width:0.8;"/>
   </g>
   <g id="patch_6">
    <path d="M 42.620312 10.7 
L 237.920313 10.7 
" style="fill:none;stroke:#000000;stroke-linecap:square;stroke-linejoin:miter;stroke-width:0.8;"/>
   </g>
  </g>
 </g>
 <defs>
  <clipPath id="p162850e67b">
   <rect height="138.6" width="195.3" x="42.620312" y="10.7"/>
  </clipPath>
 </defs>
</svg>
